<svg xmlns="http://www.w3.org/2000/svg" width="500" height="500" viewBox="0 0 500 500"><defs><style>.cls-1{opacity:0.75;}.cls-2{fill:#c8dced;}.cls-3{fill:#94b9d3;}.cls-4{fill:#999;}.cls-5{fill:#cee4ef;}.cls-6{fill:#fff;}.cls-7{fill:#afcfe2;}.cls-8{fill:none;}.cls-9{fill:#ddb63a;}.cls-10{fill:#9b403b;}.cls-11{fill:#cbe5f4;}.cls-12{fill:#8bc9e6;}.cls-13{fill:#1d2f3a;}.cls-14{fill:#afc3cf;}.cls-15{fill:#00234a;}</style></defs><g id="Layer_1" data-name="Layer 1"><g class="cls-1"><path class="cls-2" d="M204.19,179.33A18,18,0,0,1,218.13,173a19.12,19.12,0,0,1,4.83.65c0-.65-.05-1.29-.05-1.93s0-1,0-1.54a19,19,0,0,0-4.81-.64,17.91,17.91,0,0,0-13.94,6.35h0A14.09,14.09,0,0,0,201,186.69a14.53,14.53,0,0,1,3.21-7.35Z"/><path class="cls-3" d="M256.91,138.8a34.49,34.49,0,0,1,25.49,11.1,30.76,30.76,0,0,1,20.39-7.62c1,0,2,.05,3,.14,6.86-18.12,24.86-31,46-31,21.86,0,40.31,13.81,46.63,32.87a30.33,30.33,0,0,1,5.71-.52c14.14,0,26,9.36,29.36,22a19.68,19.68,0,0,1,5.39-.73,19.44,19.44,0,0,1,15.73,7.83,18.11,18.11,0,0,1,3.46,9,17.09,17.09,0,0,0,.09-1.75,18.15,18.15,0,0,0-3.55-10.77,19.45,19.45,0,0,0-15.73-7.84,20.08,20.08,0,0,0-5.39.74c-3.34-12.66-15.22-22-29.36-22a31.18,31.18,0,0,0-5.71.52c-6.32-19.06-24.8-32.87-46.63-32.87-21.13,0-39.13,12.94-46,31.05-1-.09-2-.14-3-.14a30.81,30.81,0,0,0-20.39,7.62,34.49,34.49,0,0,0-25.49-11.1c-18.78,0-34,14.71-34,32.86,0,.57,0,1.13.05,1.7C223.91,152.56,238.75,138.8,256.91,138.8Z"/><path class="cls-4" d="M223,169.88v.24h0Z"/><path class="cls-5" d="M218.13,200.41a17.61,17.61,0,0,0,15.38-8.4,34.48,34.48,0,0,0,20.75,8.92A34.26,34.26,0,0,0,283,216.17a34.65,34.65,0,0,0,21.37-7.28,50.16,50.16,0,0,0,69.44,6.18,31,31,0,0,0,8.29,1.1A30.3,30.3,0,0,0,410,198.22a30.69,30.69,0,0,0,13.76-6.43,19.53,19.53,0,0,0,15.08,7,19,19,0,0,0,19.2-16.87,18.17,18.17,0,0,0-3.5-9.08A19.46,19.46,0,0,0,438.83,165a20.06,20.06,0,0,0-5.39.77c-3.34-12.68-15.22-22-29.36-22a30.33,30.33,0,0,0-5.71.52c-6.32-19.06-24.8-32.87-46.63-32.87-21.13,0-39.13,12.93-46,31-1-.09-2-.14-3-.14a30.76,30.76,0,0,0-20.39,7.62,34.49,34.49,0,0,0-25.49-11.1c-18.16,0-33,13.76-34,31.08v.24h0c0,.51,0,1,0,1.54,0,.66,0,1.3.06,1.93a18.79,18.79,0,0,0-4.83-.64,17.94,17.94,0,0,0-14,6.34h0a14.45,14.45,0,0,0-3.21,7.35C201.94,194.42,209.25,200.41,218.13,200.41Z"/><path class="cls-6" d="M349.72,150.5c22.2,0,40.45,15.14,42.69,34.56a35.79,35.79,0,0,0,.22-4c0-21.3-19.21-38.58-42.91-38.58s-42.9,17.27-42.9,38.58a33.58,33.58,0,0,0,.23,4C309.27,165.64,327.56,150.5,349.72,150.5Z"/><path class="cls-6" d="M256.91,151.75a21.18,21.18,0,0,1,21.18,18.78,19.73,19.73,0,0,0,.12-2.17,21.3,21.3,0,0,0-42.6,0,19.73,19.73,0,0,0,.12,2.17A21.17,21.17,0,0,1,256.91,151.75Z"/><path class="cls-7" d="M458.09,180.15c0,10.29-8.63,18.64-19.29,18.64a19.53,19.53,0,0,1-15.08-7A30.74,30.74,0,0,1,410,198.22,30.33,30.33,0,0,1,382,216.17a31,31,0,0,1-8.29-1.1,50.16,50.16,0,0,1-69.41-6.18,34.65,34.65,0,0,1-21.37,7.28,34.26,34.26,0,0,1-28.68-15.24A34.48,34.48,0,0,1,233.51,192a17.61,17.61,0,0,1-15.38,8.4c-9.52,0-17.24-6.91-17.24-15.45a14.28,14.28,0,0,1,3.3-9.09h0c.47-.28-1.44,21.14,27.72,9.2,3.5-1.42,17.7,20.06,30.62,1.64,0,0,5.3,35.41,42.17,12.49,0,0,30.54,34.48,66,7.72,0,0,24.89,12.33,34.42-14.07,0,0,12.86,2.45,18.09-7.78,0,0,24.23,22.93,30.41-9.21l.92-6.48A18.15,18.15,0,0,1,458.09,180.15Z"/></g></g><g id="Layer_2" data-name="Layer 2"><g id="Layer_2-2" data-name="Layer 2"><path class="cls-8" d="M305.52,372l-1.3,1.1.92-.62a29,29,0,0,0,2.64-2l-.14-.24Z"/><path class="cls-8" d="M355.66,326.65c.46-.42.89-.88,1.2-1.2l.48-.51-1.75,1.75Z"/><path class="cls-9" d="M364.43,317.57l-.53.56-3.34,3.52c-.89.93-2,2.08-3.19,3.27l-.48.5c-.36.33-.78.79-1.21,1.21a4.38,4.38,0,0,1,1.24-.18l2.38.08a5.72,5.72,0,0,1,3.12,1.28l7.51,6.95a4.67,4.67,0,0,1,1.32,3v5.31a7.76,7.76,0,0,1-.93,3.36l-5.54,9.32a12.26,12.26,0,0,0-1.24,3.33l-2.23,12a2.7,2.7,0,0,1-2.11,2.05l-2.85.44a9.66,9.66,0,0,0-3.27,1.3l-.54.37a8.73,8.73,0,0,1-3.28,1.21l-7.52.83a18.76,18.76,0,0,0-3.49.78l-10.84,3.74c-1,.32-2.5.76-3.47,1,0,0-3,.67-3.62.85s-6.16-3.73-6.16-3.73a10,10,0,0,1-2.37-2.6l-4-7a25.82,25.82,0,0,1-2.64,2l-.92.62c-2.29,1.94-4.89,4.11-6.23,5.22A11.25,11.25,0,0,1,297,379a17.83,17.83,0,0,0-.85,2.13l7.82,2.79a2.66,2.66,0,0,1,1.64,2.41l-.33,13.8c0,1,.63,1.35,1.46.8l10.16-6.78c.83-.55,1.29-.22,1,.74,0,0-4.71,17.58-5.16,18s12-6.61,12-6.61a1.08,1.08,0,0,1,1.52.21,1.1,1.1,0,0,1,.22.7l1.07,11.34c.1,1,.58,1.09,1.05.2l12.09-20.92a1.1,1.1,0,0,1,2-.13l1.83,2.41c.6.79,1.27.64,1.48-.33l.82-3.63a1,1,0,0,1,1.1-1,1,1,0,0,1,.71.33l11.53,9c.77.6,1,.42.48-.44l-2.87-4.76c-.51-.85-.28-1.06.5-.47l18.05,13.6a22.24,22.24,0,0,1,2.63,2.41l41.16,45.91c.66.73,1.17.53,1.14-.46l-.05-1.94c0-1,.63-1.36,1.46-.83l32.24,20.17c.83.53.94.4.25-.3L435.53,458c-.66-.72-.52-1,.39-.59l20,8.17c.89.34,1.14.12.44-.63L418,424.6c-.67-.73-1.73-2-2.32-2.74l-13-17.31c-.59-.79-.24-1.53.72-1.58l7.07-.54c1-.07,1.22-.71.53-1.41l-25.85-25.86a23.93,23.93,0,0,1-2.28-2.75l-12.27-18a1.26,1.26,0,0,1,.72-2l12.5-3.79c.94-.29,1.1-1,.31-1.63l-5.77-4.53a1.35,1.35,0,0,1-.35-1.88,1.41,1.41,0,0,1,.35-.34L388.76,332c.78-.61.61-1.2-.38-1.28l-13.32-1.25c-1-.08-1.1-.58-.25-1.08l9.58-5.69c.85-.5.75-1-.23-1.19l-4-.63a28.2,28.2,0,0,1-3.5-.82l-1.56-.45a7.84,7.84,0,0,1-3-1.9l-2.61-2.86a1.6,1.6,0,0,0-.25-.27,20.22,20.22,0,0,0-3.43,2Z"/><path class="cls-10" d="M352,330.14l-.46.42c1,.45,2,.91,2.78,1.38a27.82,27.82,0,0,1,5.91,4.5c1.23,1.35.89,4.1-.76,6.1a48.94,48.94,0,0,1-6.19,6.11c-1.75,1.34-4.22,1.54-5.45.46s-3.25-4.48-4.45-7.55l-.95-2.41-5.68,5.35c.85.38,1.73.82,2.45,1.22a28.14,28.14,0,0,1,5.92,4.5c1.23,1.35.89,4.1-.77,6.1a46.42,46.42,0,0,1-6.21,6.17c-1.75,1.35-4.22,1.56-5.45.47s-3.25-4.49-4.45-7.55l-.87-2.21c-1.14,1-2.25,2-3.15,2.76L323,357.07c.89.42,1.77.85,2.51,1.26a27.88,27.88,0,0,1,5.92,4.5c1.23,1.35.89,4.1-.76,6.1a47.72,47.72,0,0,1-6.2,6.11c-1.75,1.35-4.22,1.55-5.45.47s-3.25-4.48-4.45-7.55l-1.07-2.72-4.76,4-1.07.91.14.24,4,7a9.76,9.76,0,0,0,2.37,2.59s5.51,3.93,6.16,3.74,3.62-.85,3.62-.85c.95-.22,2.51-.67,3.46-1l10.84-3.74a19,19,0,0,1,3.5-.78l7.52-.84a8.46,8.46,0,0,0,3.28-1.21l.54-.36a9.38,9.38,0,0,1,3.27-1.3l2.85-.44a2.72,2.72,0,0,0,2.11-2l2.22-12.05a12.34,12.34,0,0,1,1.25-3.32l5.54-9.33a7.72,7.72,0,0,0,.93-3.35v-5.32a4.63,4.63,0,0,0-1.33-3l-7.5-6.95a5.81,5.81,0,0,0-3.13-1.29l-2.37-.07a4.33,4.33,0,0,0-1.24.18l0,0Z"/><path d="M270.11,428.76c-1.36-3-3.51-7.94-4.79-11l-3.75-8.86c-.77-1.84-1.73-4.42-2.52-6.9l-1.18-2.83.59,2.28a102.44,102.44,0,0,0,3.85,11.31l3.91,9.25c1.27,3,3.43,8,4.78,11l7.21,16c.11.21.2.44.3.66L276,441.81Z"/><path d="M323.77,347.26l4.64-4.24-1.63,1.4c-2.51,2.17-6.5,5.81-8.88,8.11l-7.61,7.39c2.37-2.3,6.3-6,8.74-8.27Z"/><path d="M445.23,305.64l-82.35-43.42c-2.91-1.53-7.61-4.17-10.43-5.88l-19.2-11.54a101.45,101.45,0,0,0-10.67-5.38l-14.4-6A50.19,50.19,0,0,1,298,227.35l-9.44-7.59a108.65,108.65,0,0,0-9.81-6.82l-.67-.39a59.7,59.7,0,0,1-9.39-7.28l-.17-.19c-2.35-2.31-6-6.23-8.22-8.69L244,177.92c-2.18-2.46-5.77-6.47-8-8.91l-6.3-6.89a57.88,57.88,0,0,0-8.45-7.42,55,55,0,0,1-8.45-7.54l-13-14.85c-2.18-2.48-5.85-6.41-8.23-8.69L184.81,117a110,110,0,0,0-9.09-7.75l-10.39-7.69c-2.64-2-7-5.12-9.68-7l-12.13-8.63a94.47,94.47,0,0,0-10.22-6.15l-9.17-4.55a106.49,106.49,0,0,0-11-4.61l-10.35-3.52C99.63,66,94.49,64.42,91.32,63.5l-.91-.26c-3.15-.93-7.15-1.14-8.84-.5A15.9,15.9,0,0,0,76,67a18,18,0,0,0-3,8.09,30.62,30.62,0,0,0,1.42,10.67L79,99c1,3.12,2.82,8.22,3.94,11.35l4.4,12.45c1,3.08,3.12,8.09,4.5,11.06l11.41,24.47a88.52,88.52,0,0,0,5.91,10.37l10.67,15.56c1.85,2.72,5.1,7,7.21,9.52l20.58,24.52c2.12,2.52,5.67,6.57,7.89,9L197,272.76c2.22,2.43,4.14,5.55,4.25,6.93s2.35,4.18,4.94,6.21a19.44,19.44,0,0,1,1.54,1.34c.41.45,8.1,12.72,8.1,12.72a38.24,38.24,0,0,1,4.08,8.8,58.55,58.55,0,0,0,3.5,9.12l5.39,11.25c-.62-1.61-1.23-3.15-1.7-4.38,0,0-1.38-3.64-2.73-6.95l-.94-2c-.48-1-1-2.11-1.45-3.27a12,12,0,0,1-1.42-3.72c-.27-.8-.49-1.52-.63-2.08a38.22,38.22,0,0,0-4.06-8.72s-7.47-11.95-7.86-12.38a15.19,15.19,0,0,0-1.42-1.24c-2.59-2-4.82-4.81-4.93-6.15a2.38,2.38,0,0,0-.13-.6h0a8.12,8.12,0,0,1-1.39-2.79,28.35,28.35,0,0,0-2.68-3.49L156.85,227c-2.21-2.42-5.76-6.47-7.88-9l-20-23.87c-1-1.24-2.36-2.91-3.65-4.6a.66.66,0,0,1-.61-.43c-.17-.33-.33-.66-.47-1-.93-1.26-1.82-2.48-2.49-3.47l-10.31-15.06a89.92,89.92,0,0,1-5.92-10.36L94.33,135.39c-1.39-3-3.43-8-4.53-11.08l-4.25-12c-1.1-3.11-2.87-8.19-3.94-11.35L77.32,88.22a30.31,30.31,0,0,1-1.44-10.57,17.92,17.92,0,0,1,2.93-8,15.68,15.68,0,0,1,5.47-4.18c1.67-.63,5.62-.4,8.79.52l.67.19c3.15.93,8.31,2.54,11.43,3.61l10,3.35a107.41,107.41,0,0,1,11,4.61l8.75,4.42a94.69,94.69,0,0,1,10.23,6.16l11.72,8.31c2.68,1.9,7,5.08,9.68,7l10,7.43a106.4,106.4,0,0,1,9.09,7.74l6.45,6.3.19.2a3.61,3.61,0,0,1,1.49.68c.53.45.58.83.26,1.08,2.14,2.19,4.64,4.86,6.28,6.72l12.65,14.39a52.83,52.83,0,0,0,8.25,7.42,58.75,58.75,0,0,1,8.33,7.35l6.12,6.7c2.21,2.43,5.82,6.43,8,8.9l15.84,18c2.19,2.47,5.85,6.4,8.22,8.69h0a59,59,0,0,0,9.44,7.22l.45.27a103.33,103.33,0,0,1,9.81,6.81l9.08,7.31A51,51,0,0,0,306.6,233l13.93,5.8a101.45,101.45,0,0,1,10.67,5.38l18.64,11.21c2.83,1.69,7.52,4.34,10.43,5.87l80.55,42.48c2.92,1.53,5.6,3.61,6,4.59s-.94,3.25-2.93,5.09h0a13.22,13.22,0,0,1-9.79,3.78l-7.5-.66c-1.49-.12-3.43-.32-5.38-.48l-9.86-.42c-3.3-.15-8.68-.58-12-1L379,312.23c-1-.05-2-.07-2.87-.08l-2,0a12,12,0,0,1-3.19-.53,14.13,14.13,0,0,0-1.95.07,5.38,5.38,0,0,0-1.12.27c.4.31.6.66.49,1a36.34,36.34,0,0,1-3.93,4.65l1.38-1a20.51,20.51,0,0,1,3.43-2,10,10,0,0,1,2.62-.85,49,49,0,0,1,8.56.39L403,316.75c3.28.38,8.65.81,11.95,1l23.43,1c3.3.14,7.71-1.29,9.8-3.19s3.44-4.3,3.07-5.29S448.14,307.18,445.23,305.64Z"/><path d="M294.17,379.68a11,11,0,0,0-.24,1.9l-.52,15.91.12,12.36.07,1,.64,9.36a52.65,52.65,0,0,1-.7,11.83l-2.05,10.13-.11.51-.08.69a30.28,30.28,0,0,1-2.46,8.8l0,0c-.8,2.3-2.89,4.39-4.62,4.65l-.12.06a3,3,0,0,1-.61.15c-1,.08-2.26-1.13-3.28-3a35.21,35.21,0,0,1,1.23,4.3c.41,2.14,2.2,3.66,3.95,3.41s3.88-2.39,4.72-4.74a91.2,91.2,0,0,0,2.69-10.14l2.15-10.56a52.41,52.41,0,0,0,.76-11.87l-.67-9.73c-.25-3.29-.35-8.68-.24-12l.62-17.82a13.5,13.5,0,0,1,.74-3.72,20.51,20.51,0,0,1,.82-2.19C295.73,379.8,294.6,380.09,294.17,379.68Z"/><path class="cls-11" d="M293,427.4l-1.63,15.3.11-.51L293.54,432a52.65,52.65,0,0,0,.7-11.83l-.67-9.34-.06-1,.05,5.58A108.34,108.34,0,0,1,293,427.4Z"/><path class="cls-11" d="M222,312.6a34.18,34.18,0,0,0,1.46,3.27l.94,2a37.13,37.13,0,0,0-2.36-5.18Z"/><path class="cls-11" d="M284.05,456.9h.08c1.73-.25,3.82-2.34,4.62-4.65l0,0c-.16.34-.33.64-.48.9A9.72,9.72,0,0,1,284.05,456.9Z"/><path class="cls-11" d="M223.42,304A26.85,26.85,0,0,1,231.8,310l57.38,62.82a18.18,18.18,0,0,1,4.1,10.42l.13,14.24.54-15.9a10.26,10.26,0,0,1,.22-1.91h0a2.91,2.91,0,0,1-.47-2.55c.25-.84,2.4-3.41,4.77-5.71l11.83-11.49h0l7.61-7.39c2.37-2.31,6.36-6,8.88-8.11l1.63-1.4,19.87-18.15c2.45-2.24,6.58-5.72,9.19-7.74l.68-.53a11.94,11.94,0,0,1-4.12-3.38l-14.56-17.11c-2.13-2.5-1.93-2.69.45-.41l16.27,15.57a11.32,11.32,0,0,1,3.17,4.41l1.34-1c2.61-2,5.49-3.43,6.37-3.1a2.69,2.69,0,0,1,.81.41,5.23,5.23,0,0,1,1.12-.27,14.07,14.07,0,0,1,1.95-.07,15.73,15.73,0,0,1-6.86-4l-61-66.73c-2.22-2.43-4.14-6-4.28-7.85l-.24-3.43,2.05.55.81.42,6.1,3.22L440,303.66a35.15,35.15,0,0,1,6.51,4.12c.67.73-.49,3.23-2.59,5.6,2-1.83,3.28-4.15,2.93-5.1s-3.08-3.06-6-4.59l-80.55-42.47c-2.92-1.54-7.61-4.18-10.43-5.88l-18.65-11.2a98.71,98.71,0,0,0-10.67-5.39L306.61,233a50,50,0,0,1-10.16-6.08l-9.09-7.3a102,102,0,0,0-9.8-6.82l-.45-.27a58.61,58.61,0,0,1-9.4-7.28h0c-2.34-2.31-6-6.22-8.22-8.69l-15.84-17.95c-2.18-2.47-5.78-6.47-8-8.9L229.58,163a57.67,57.67,0,0,0-8.33-7.35,53.8,53.8,0,0,1-8.25-7.42l-12.65-14.39c-1.63-1.87-4.14-4.53-6.28-6.72a2.92,2.92,0,0,1-1.77.29,17.64,17.64,0,0,0-6.87,1.42c-1.94.87-5.46,2.69-7.88,4s-6.1,3.47-8.24,4.84-1.86.65.59-1.59l1.26-1.14a40.72,40.72,0,0,1,9.56-6.25c2.8-1.2,6.48-2.63,8.17-3.18a6.55,6.55,0,0,1,3.43-.11l-.19-.21-6.44-6.3a109.25,109.25,0,0,0-9.2-7.72l-10-7.4c-2.64-2-7-5.13-9.68-7l-11.72-8.33a96.19,96.19,0,0,0-10.22-6.16l-8.79-4.39a106.32,106.32,0,0,0-11-4.61l-10-3.35c-3.11-1.07-8.23-2.72-11.43-3.61L93,66.08c-3.15-.93-7.12-1.15-8.79-.52a15.64,15.64,0,0,0-5.46,4.18,17.8,17.8,0,0,0-2.93,8,30.35,30.35,0,0,0,1.48,10.53L81.66,101c1.06,3.12,2.83,8.22,4,11.35l4.23,12c1.1,3.11,3.14,8.09,4.53,11.07l11.11,23.82a90.41,90.41,0,0,0,5.89,10.35l10.3,15.06c.69,1,1.57,2.22,2.5,3.47-.31-.78-.43-1.42-.27-1.56a51.25,51.25,0,0,0,2.83-5.82,44.3,44.3,0,0,1,5.5-9.09c1.74-2,5-5.69,7.15-8.17l3.67-4.11c2.2-2.47,2.27-2.42.13.14l-.85,1a86.75,86.75,0,0,0-6.92,9.78l-3.16,5.36a66.94,66.94,0,0,0-4.68,10.4c-.71,2.14-1.61,3.45-2.3,3.49,1.29,1.69,2.61,3.37,3.65,4.59l20,23.88c2.12,2.52,5.67,6.57,7.89,9l40.52,44.36a27.61,27.61,0,0,1,2.68,3.49,11.85,11.85,0,0,1-.49-2.2,6.61,6.61,0,0,1,1.51-5,9,9,0,0,1,5.14-1.81c1.75,0,4.87,2,6.94,4.59l4.52,5.63c2.07,2.57,5.62,6.61,7.89,9l27,28.16c2.28,2.38,6,6.31,8.18,8.74l25.39,27.8c2.22,2.42,2.13,2.5-.18.16l-75.08-75.72c-2.32-2.34-4.89-4-5.73-3.68s-1.63,2.42-1.84,4.71-1,3.35-1.78,2.51a2.38,2.38,0,0,1,.12.59c.1,1.37,2.34,4.12,4.93,6.15a16.94,16.94,0,0,1,1.43,1.24c.4.44,7.85,12.39,7.85,12.39a37.86,37.86,0,0,1,4.07,8.72c.13.56.36,1.27.63,2.07-.12-.42-.18-.72-.18-.72C219.65,304.94,221,303.05,223.42,304Zm68.82-58L266,217.22a5.49,5.49,0,0,1-1-4.63c.4-1.52,2.8-3.71,5.28-4.92l.4.44c1.43,1.56,1.63,3,.43,3.32a4.22,4.22,0,0,0-2.83,2.58c-.37,1.17.66,3.57,2.29,5.35s4.84,5.16,7.15,7.51c0,0,10.31,10.51,10.64,12s11.75,11.77,12.1,13.24,27.35,30.38,27.35,30.38c2.25,2.4,2.18,2.47-.14.13l-19.1-19.12c-2.32-2.33-6-6.22-8.27-8.66Zm-144.33-93a15.82,15.82,0,0,1,3.39-4.32,17,17,0,0,1,4.69-3.07c1.15-.38.09,1.13-2.36,3.37l-5.87,5.36C147.4,154.57,147.47,154,147.91,152.91ZM168,202.05l.93-2.12a3,3,0,0,1,2.52-1.67l4.47,0a16.26,16.26,0,0,0,3.54-.51l4.29-1.22a10.54,10.54,0,0,0,3.11-1.64l6.5-5.38a8.23,8.23,0,0,0,2-2.81l2.08-5.41a3.17,3.17,0,0,0-.56-3l-2-2.21a4.9,4.9,0,0,0-3-1.36l-3.79-.06a8.1,8.1,0,0,0-3.41.81l-8.85,4.79a24.72,24.72,0,0,0-3,2L168.18,186a10,10,0,0,1-3.17,1.58l-3.81.94a3.31,3.31,0,0,1-3-.89l-1.62-1.77a4.7,4.7,0,0,1-1-3.12l.51-4.46a18,18,0,0,1,.79-3.49l2.22-6.23a8.58,8.58,0,0,1,1.94-2.92l5.43-5c.74-.67,2-1.69,2.81-2.27l5.33-3.82c.8-.59,2.07-1.61,2.8-2.27l2.22-2a2.8,2.8,0,0,1,3-.39l1.35.68a2.38,2.38,0,0,1,1.18,2.56l-.7,2.8a7.21,7.21,0,0,1-1.77,3l-3,2.71a8.76,8.76,0,0,1-3.09,1.67l-5.27,1.36a8.63,8.63,0,0,0-3.08,1.67L163.11,171a4.26,4.26,0,0,0-1.22,3l.15,2.56a2.55,2.55,0,0,0,1.86,2.17l1.53.32a4.39,4.39,0,0,0,3.18-.75l10-7.83a8.3,8.3,0,0,1,3.2-1.42l8.44-1.44a7.08,7.08,0,0,1,3.41.43l6.29,2.77a5.83,5.83,0,0,1,2.46,2.36l2.27,4.59a5,5,0,0,1,.24,3.33L203,186.89a9.63,9.63,0,0,1-1.81,3.05l-8.27,8.8a13.29,13.29,0,0,1-2.82,2.18l-5.55,3a10.06,10.06,0,0,1-3.38,1l-7.05.57a9.29,9.29,0,0,1-3.47-.51l-1.65-.62a1.72,1.72,0,0,1-1-2.2A.54.54,0,0,1,168,202.05Zm39.4,19.7c-1.47-1.11-5.16-1.74-8.21-1.42a65.18,65.18,0,0,1-11.52.06l-2.44-.25c-3.28-.33-6.18-1.44-6.45-2.46a4,4,0,0,1,1-3.36,6.19,6.19,0,0,1,3.4-1.62l5.76-.39a60.5,60.5,0,0,1,7.85.12,17.41,17.41,0,0,0,8.15-1.77c2.28-1.2,3.86-4.68,3.55-7.71S208,195,208,192s.61-6.32,1.44-7.41a3.55,3.55,0,0,1,3.72-1.29,4,4,0,0,1,2.34,3.54c.05,1.53.18,5.08.29,7.87a26.71,26.71,0,0,0,1.3,7.73,7.94,7.94,0,0,0,3.23,3.53,26.59,26.59,0,0,0,4.61,1.47c1.4.28,4.33.71,6.57.9a39.34,39.34,0,0,1,9.32,2.64c2.92,1.25,6.92,3,8.9,3.95a20.37,20.37,0,0,1,4.63,2.79,5.22,5.22,0,0,1,1,3.27c-.06,1.2-1.54,2-3.28,1.77a38.05,38.05,0,0,1-8.64-2.78l-2.78-1.24a62.83,62.83,0,0,0-10.94-3.52c-3-.59-6.74-.66-8.28-.14a7.1,7.1,0,0,0-3.82,4.3c-.55,1.85-.58,6-.07,9.26l1.06,6.56c.52,3.26,1.3,8.6,1.72,11.87l.63,4.76c.43,3.27.18,6.5-.55,7.18a6,6,0,0,1-3.24,1.35,4.33,4.33,0,0,1-2.29-.28,26.53,26.53,0,0,1-1.26-4.94c-.49-2.5-1.24-7.22-1.66-10.49l-.63-4.77c-.43-3.26-.85-8.24-.95-11S208.89,222.88,207.42,221.75Zm91.82,141.72-3.35-4.56c-.26-.37,1.68.77,4.33,2.53s4.16,3.82,3.35,4.56S300.79,365.58,299.24,363.47Z"/><path class="cls-11" d="M388.1,312.84c-2.44-.25-6.05-.47-9.09-.59l20.37,2.4c3.28.38,8.66.81,11.95,1l9.86.43-6.56-.63Z"/><path class="cls-11" d="M265.32,417.78c1.28,3,3.43,8,4.79,11L276,441.81l-1-3.2a84.55,84.55,0,0,0-4.55-10.91c-1.49-2.89-3.78-7.7-5.06-10.73L259.07,402c.8,2.47,1.75,5.07,2.52,6.91Z"/><path class="cls-12" d="M283.46,457a2.65,2.65,0,0,0,.62-.14,9.67,9.67,0,0,0,4.21-3.85,10,10,0,0,0,.48-.89,30.46,30.46,0,0,0,2.49-8.77l.07-.69,1.64-15.3a116.17,116.17,0,0,0,.58-11.95l-.05-5.59-.12-12.36-.14-14.25a18.23,18.23,0,0,0-4.1-10.42L231.79,310a26.84,26.84,0,0,0-8.37-6.07c-2.4-.9-3.77,1-3.06,4.22,0,0,.06.29.17.71a12.3,12.3,0,0,0,1.42,3.73h0a36.11,36.11,0,0,1,2.36,5.18c1.35,3.3,2.73,6.94,2.73,6.94.47,1.24,1.07,2.78,1.7,4.38.94,2.4,1.95,4.94,2.7,6.74l8,19.6c1.24,3.05,3.31,8,4.6,11.07l13.8,32.67,1.19,2.82L265.37,417c1.28,3,3.55,7.86,5.05,10.73A83.53,83.53,0,0,1,275,438.61l1,3.2,2.51,7.85.58,1.89a13.47,13.47,0,0,0,1.12,2.48C281.23,455.92,282.46,457.1,283.46,457Z"/><path class="cls-12" d="M446.49,307.78a35.15,35.15,0,0,0-6.51-4.12L307.6,233.85l-6.11-3.22-.8-.42-2.05-.55.23,3.43c.14,1.89,2.07,5.42,4.28,7.85l60.94,66.71a15.75,15.75,0,0,0,6.85,4,12,12,0,0,0,3.2.53l2,0c.85,0,1.82,0,2.87.07,3.05.12,6.66.35,9.1.59l26.53,2.6,6.56.62c2,.18,3.89.36,5.39.48l7.5.66a13.27,13.27,0,0,0,9.79-3.78h0C446,311,447.16,308.5,446.49,307.78Z"/><path class="cls-13" d="M170.59,204.94a9.58,9.58,0,0,0,3.48.51l7.07-.54a10.54,10.54,0,0,0,3.38-1l5.55-3a13.55,13.55,0,0,0,2.82-2.18l8.27-8.8a9.52,9.52,0,0,0,1.81-3l1.88-5.78a5.15,5.15,0,0,0-.24-3.33l-2.28-4.59a5.81,5.81,0,0,0-2.46-2.35L193.59,168a7,7,0,0,0-3.42-.42l-8.43,1.43a8.43,8.43,0,0,0-3.21,1.42l-10,7.83a4.43,4.43,0,0,1-3.18.76l-1.47-.23a2.57,2.57,0,0,1-1.87-2.17l-.15-2.56a4.23,4.23,0,0,1,1.22-3l5.15-4.71a8.77,8.77,0,0,1,3.08-1.66l5.28-1.37a8.78,8.78,0,0,0,3.08-1.66l3-2.72a7.11,7.11,0,0,0,1.77-3l.7-2.8a2.38,2.38,0,0,0-1.18-2.56l-1.35-.69a2.82,2.82,0,0,0-3,.39l-2.22,2a35.87,35.87,0,0,1-2.79,2.27l-5.34,3.82c-.8.58-2.06,1.6-2.8,2.27l-5.42,4.95a8.8,8.8,0,0,0-1.93,2.92l-2.23,6.23a18.18,18.18,0,0,0-.84,3.42l-.45,4.45a4.65,4.65,0,0,0,1,3.12l1.62,1.77a3.32,3.32,0,0,0,3,.88l3.81-.94a9.85,9.85,0,0,0,3.16-1.57l4.7-3.79a23.18,23.18,0,0,1,3-2l8.85-4.8a8,8,0,0,1,3.4-.8l3.8.06a4.76,4.76,0,0,1,3,1.36l2,2.2a3.18,3.18,0,0,1,.56,3l-2.09,5.41a8.33,8.33,0,0,1-2,2.82l-6.51,5.38a10.52,10.52,0,0,1-3.11,1.63l-4.29,1.23a16.17,16.17,0,0,1-3.53.51l-4.47,0a3,3,0,0,0-2.52,1.67l-.94,2.12a1.7,1.7,0,0,0,.84,2.25l.11.05Z"/><path class="cls-13" d="M211.22,239.93l.62,4.77c.43,3.27,1.18,8,1.67,10.49a27,27,0,0,0,1.24,4.91,4.46,4.46,0,0,0,2.29.28,6.11,6.11,0,0,0,3.25-1.35c.73-.67,1-3.91.54-7.18l-.63-4.76c-.42-3.27-1.2-8.61-1.72-11.87l-1-6.55c-.52-3.25-.49-7.42.07-9.27a7.11,7.11,0,0,1,3.82-4.29c1.54-.52,5.27-.45,8.27.14a61.83,61.83,0,0,1,10.95,3.52l2.77,1.24a38.8,38.8,0,0,0,8.65,2.78c1.74.19,3.2-.62,3.27-1.77a5.26,5.26,0,0,0-.95-3.28,20.59,20.59,0,0,0-4.64-2.83c-2-.92-6-2.7-8.9-3.95a39.84,39.84,0,0,0-9.32-2.65c-2.21-.2-5.17-.61-6.58-.89a26.49,26.49,0,0,1-4.6-1.47,7.89,7.89,0,0,1-3.23-3.53,27.06,27.06,0,0,1-1.31-7.73c-.09-2.8-.22-6.36-.28-7.87a4,4,0,0,0-2.35-3.54,3.54,3.54,0,0,0-3.71,1.29c-.8,1.12-1.46,4.46-1.45,7.41s.25,7.83.59,10.91-1.28,6.51-3.55,7.71a17.56,17.56,0,0,1-8.15,1.77,58.92,58.92,0,0,0-7.86-.12l-5.75.39a6.12,6.12,0,0,0-3.4,1.62,3.92,3.92,0,0,0-1,3.36c.26,1,3.17,2.13,6.45,2.46l2.47.31a65.92,65.92,0,0,0,11.5,0c3.06-.33,6.75.3,8.21,1.42s2.77,4.3,2.84,7.13S210.79,236.67,211.22,239.93Z"/><path d="M314.54,368c1.2,3.07,3.21,6.47,4.45,7.56s3.7.87,5.45-.48a47.64,47.64,0,0,0,6.2-6.1c1.63-2,2-4.76.76-6.11a28.43,28.43,0,0,0-5.92-4.49c-.77-.45-1.61-.84-2.51-1.26l-.37.33c.9.4,1.79.84,2.54,1.25a25.34,25.34,0,0,1,5.33,4.05c1.11,1.21.8,3.68-.72,5.51a43.2,43.2,0,0,1-5.57,5.5c-1.58,1.21-3.79,1.41-4.9.43s-3-4.3-4.23-7.37l-.55-1.37c-.1-.27-.19-.53-.28-.8l-.75.69Z"/><path class="cls-13" d="M315.05,366.75c1.2,3.07,3.09,6.38,4.23,7.37s3.32.78,4.9-.43a43.86,43.86,0,0,0,5.58-5.49c1.49-1.81,1.82-4.3.71-5.52a25.34,25.34,0,0,0-5.33-4.05c-.77-.44-1.62-.82-2.54-1.25l-4.69,4-3.66,3.14c.09.27.18.53.28.79Z"/><path d="M332.74,362.94c1.25,1.1,3.7.88,5.45-.47a47.72,47.72,0,0,0,6.2-6.11c1.63-2,2-4.75.76-6.1a28.48,28.48,0,0,0-5.92-4.5c-.72-.41-1.59-.84-2.44-1.22l-.35.32c.84.38,1.73.82,2.45,1.21a25.33,25.33,0,0,1,5.32,4.06c1.11,1.21.8,3.68-.68,5.49a43.86,43.86,0,0,1-5.58,5.49c-1.58,1.22-3.78,1.41-4.9.43s-3-4.3-4.23-7.36l-.54-1.38a.72.72,0,0,1-.11-.3l-.74.68.87,2.21C329.49,358.45,331.5,361.85,332.74,362.94Z"/><path class="cls-13" d="M328.82,354.18c1.2,3.06,3.1,6.37,4.23,7.36s3.32.79,4.9-.43a43.86,43.86,0,0,0,5.58-5.49c1.48-1.81,1.79-4.28.68-5.49a25.33,25.33,0,0,0-5.32-4.06c-.72-.39-1.61-.83-2.45-1.21l-3.23,3-5,4.58c.06.07.06.2.1.29Z"/><path d="M347.85,349.14c1.25,1.09,3.7.88,5.45-.46a48.29,48.29,0,0,0,6.19-6.11c1.63-2,2-4.76.76-6.1a27.82,27.82,0,0,0-5.91-4.5c-.8-.43-1.8-.93-2.78-1.38l-.36.33c1,.42,2,.9,2.79,1.35a25.59,25.59,0,0,1,5.32,4.06c1.11,1.21.8,3.68-.68,5.49a43.86,43.86,0,0,1-5.58,5.49c-1.58,1.22-3.78,1.41-4.9.43s-3-4.3-4.24-7.36l-.54-1.38c-.06-.17-.13-.35-.19-.53l-.75.69,1,2.45C344.6,344.66,346.6,348.06,347.85,349.14Z"/><path class="cls-13" d="M343.92,340.39c1.21,3.06,3.1,6.37,4.24,7.36s3.31.78,4.9-.43a43.2,43.2,0,0,0,5.57-5.5c1.49-1.8,1.8-4.27.68-5.49a25,25,0,0,0-5.32-4.05c-.79-.43-1.8-.93-2.78-1.36l-8,7.57c.06.18.13.36.19.53Z"/><path class="cls-14" d="M203.24,275.21c.2-2.3,1-4.37,1.81-4.7s3.41,1.34,5.73,3.67l75,75.76c2.31,2.33,2.39,2.26.18-.17L260.63,322c-2.22-2.42-5.9-6.35-8.18-8.74l-27-28.15c-2.27-2.38-5.84-6.4-7.89-9l-4.52-5.63c-2.07-2.57-5.19-4.63-6.94-4.59a9.05,9.05,0,0,0-5.08,1.8,6.69,6.69,0,0,0-1.52,5,12.72,12.72,0,0,0,.49,2.2,8.15,8.15,0,0,0,1.4,2.79h0C202.31,278.55,203.11,277.45,203.24,275.21Z"/><path class="cls-14" d="M303.57,366c.81-.74-.71-2.8-3.35-4.56s-4.6-2.91-4.33-2.53l3.35,4.56C300.81,365.61,302.76,366.74,303.57,366Z"/><path class="cls-14" d="M327.71,282.6c2.32,2.33,2.39,2.26.15-.13,0,0-27-28.9-27.36-30.38s-11.77-11.78-12.09-13.24-10.65-12-10.65-12c-2.31-2.36-5.52-5.73-7.14-7.51s-2.67-4.18-2.3-5.35a4.25,4.25,0,0,1,2.84-2.59c1.19-.26,1-1.75-.43-3.31l-.4-.44c-2.5,1.18-4.88,3.4-5.29,4.92a5.49,5.49,0,0,0,1,4.62l34.34,37.6c2.23,2.44,5.95,6.33,8.27,8.66Z"/><path class="cls-14" d="M356.14,311.27l-16.27-15.56c-2.37-2.27-2.58-2.09-.45.41L354,313.23a11.94,11.94,0,0,0,4.12,3.38l1.2-.92A11.07,11.07,0,0,0,356.14,311.27Z"/><path class="cls-14" d="M127.57,186.07a65.44,65.44,0,0,1,4.79-10.42l3.15-5.37a87.93,87.93,0,0,1,6.92-9.77l.86-1c2.11-2.55,2-2.6-.14-.15l-3.66,4.11c-2.2,2.47-5.42,6.15-7.16,8.18a44.3,44.3,0,0,0-5.5,9.09,49.56,49.56,0,0,1-2.88,5.85c-.18.16,0,.8.27,1.56.14.34.3.68.47,1a.69.69,0,0,0,.61.43C126,189.53,126.86,188.22,127.57,186.07Z"/><path class="cls-14" d="M188.83,125.47c-1.69.55-5.38,2-8.18,3.18a41.13,41.13,0,0,0-9.56,6.25L169.84,136c-2.45,2.24-2.71,3-.59,1.59s5.81-3.53,8.23-4.84,5.92-3.11,7.89-4a17.59,17.59,0,0,1,6.86-1.42,3,3,0,0,0,1.78-.29c.3-.28.27-.63-.27-1.09a3.73,3.73,0,0,0-1.49-.67A6.51,6.51,0,0,0,188.83,125.47Z"/><path class="cls-14" d="M147.76,154.25l5.87-5.36c2.45-2.24,3.5-3.74,2.36-3.37a17,17,0,0,0-4.69,3.07,15.82,15.82,0,0,0-3.39,4.32C147.47,154,147.4,154.57,147.76,154.25Z"/><path class="cls-15" d="M360.66,314.63l-1.34,1.05-1.2.93-.68.52c-2.61,2-6.75,5.51-9.19,7.74L328.42,343l-4.65,4.24L319,351.58c-2.45,2.24-6.37,6-8.74,8.27h0l-11.82,11.49c-2.37,2.31-4.52,4.88-4.78,5.72a2.94,2.94,0,0,0,.51,2.62h0c.42.4,1.55.11,2.77-.65a9.65,9.65,0,0,0,1.05-.76c1.32-1.07,3.93-3.26,6.24-5.21l1.29-1.1,2.14-1.82,1.08-.91,4.72-4,.75-.69,3.66-3.14,4.69-4,.37-.33,1.29-1.11c.87-.8,2-1.74,3.15-2.77l.74-.67,5-4.59,3.22-3,.37-.33,5.67-5.36.75-.69,8-7.57.84-.77c1-.93,2.28-2.18,3.58-3.47l1.75-1.75c1.2-1.2,2.31-2.34,3.19-3.27l3.35-3.52.53-.56a36.26,36.26,0,0,0,3.92-4.65c.11-.29-.09-.65-.48-1a2.69,2.69,0,0,0-.81-.41C366.13,311.23,363.28,312.61,360.66,314.63Z"/><path class="cls-13" d="M276.71,290.37Z"/><path class="cls-13" d="M269.32,282.25c3.1.18,6.07-1.32,6.55-4.61.42-2.89-1.29-5.73-3.1-7.81a75.65,75.65,0,0,0-7.63-7,1.85,1.85,0,0,0-2.54-.1,1.8,1.8,0,0,0-.12,2.53c2,1.77,4.09,3.5,6,5.35,1.63,1.55,3.37,3.44,3.76,5.63a3.36,3.36,0,0,1,0,1,1.59,1.59,0,0,1-.39.84,3.35,3.35,0,0,1-2.55.57,12.59,12.59,0,0,1-5.84-2.36c-2.44-1.58-4.68-3.48-7.32-4.71a1.88,1.88,0,0,0-2.5.57,1.81,1.81,0,0,0,.57,2.48C259.41,277,263.34,281.91,269.32,282.25Z"/><path class="cls-13" d="M290,302.35a15.41,15.41,0,0,0,4.27-5.53c.92-1.86,1.8-3.95,1.39-6-.51-2.4-2.66-3.81-4.83-4.58a8.15,8.15,0,0,0-6.21.26,37.78,37.78,0,0,0-4.47,2.93,7.38,7.38,0,0,1-2.1,1,2.45,2.45,0,0,1-.89.11l-.17-.05.05-.13a7.21,7.21,0,0,1,.3-.77,14.22,14.22,0,0,1,.78-1.5,15.44,15.44,0,0,1,2-2.65,16,16,0,0,1,5.74-3.9,1.8,1.8,0,0,0-1.46-3.3l-.17.09a19,19,0,0,0-9.44,8.4c-1,1.84-2.26,4.37-.57,6.19,1.51,1.65,4,1.35,5.92.59a25.6,25.6,0,0,0,4.33-2.72c1.37-.93,2.65-1.68,4.31-1.39,1.36.23,3.35,1.06,3.45,2.52a5.42,5.42,0,0,1-.5,2.05,19.53,19.53,0,0,1-1.31,2.58c-1.07,1.75-2.64,3.56-4.57,4.08a5.08,5.08,0,0,1-2.45.07,3.33,3.33,0,0,1-1.09-.44l-.32-.23a5.57,5.57,0,0,1-.52-.57,1.8,1.8,0,0,0-2.66,2.44C281.48,305.34,286.68,304.84,290,302.35Zm-13.22-12h0s0,0,0,0Z"/><path class="cls-13" d="M315.65,307a39.67,39.67,0,0,0-8.86-5.48,40.2,40.2,0,0,0-4.72-1.8,14.08,14.08,0,0,0-4.72-.82c-3.81.19-6.21,3.28-6.57,6.89a17.34,17.34,0,0,0,.37,4.87,19.65,19.65,0,0,0,1.46,5,12,12,0,0,0,3.87,4.51c1.52,1.15,3.26,2,4.72,3.27a1.86,1.86,0,0,0,2.54.11,1.81,1.81,0,0,0,.13-2.54,38.38,38.38,0,0,0-3.92-2.81,15.39,15.39,0,0,1-3-2.37l.15-.14c2.72-3.44,5.39-7.28,9.21-9.57a1.92,1.92,0,0,0,.63-.57,38.24,38.24,0,0,1,6.77,4.49,1.81,1.81,0,0,0,1.93-3.06Zm-20.44,5.33-.16-.61a24.28,24.28,0,0,1-.7-4.06c-.16-2.15.43-5,2.95-5.17a10,10,0,0,1,3.68.67c.75.23,1.49.48,2.22.76C300.05,306.22,297.62,309.27,295.21,312.36Z"/></g></g><g id="Layer_3" data-name="Layer 3"><g class="cls-1"><path class="cls-2" d="M43.61,395.79a22.55,22.55,0,0,1,17.51-8,24.38,24.38,0,0,1,6.07.81c0-.81-.07-1.61-.07-2.42,0-.65,0-1.29,0-1.93a23.69,23.69,0,0,0-6-.81,22.55,22.55,0,0,0-17.51,8h0a17.92,17.92,0,0,0-4.14,11.42A17.6,17.6,0,0,0,39.6,405a18.21,18.21,0,0,1,4-9.23Z"/><path class="cls-3" d="M109.83,344.89a43.3,43.3,0,0,1,32,13.94,38.72,38.72,0,0,1,25.61-9.57q1.89,0,3.72.18c8.62-22.76,31.22-39,57.76-39,27.45,0,50.63,17.33,58.56,41.27a39.12,39.12,0,0,1,7.17-.66c17.77,0,32.69,11.76,36.88,27.66a25.35,25.35,0,0,1,6.77-.92,24.46,24.46,0,0,1,19.75,9.84A22.74,22.74,0,0,1,362.4,399c.07-.73.11-1.46.11-2.19a22.72,22.72,0,0,0-4.46-13.53,24.43,24.43,0,0,0-19.75-9.84,25.35,25.35,0,0,0-6.77.92c-4.19-15.9-19.11-27.65-36.88-27.65a38.25,38.25,0,0,0-7.17.65c-7.93-23.94-31.15-41.27-58.56-41.27-26.54,0-49.14,16.24-57.76,39q-1.83-.18-3.72-.18a38.72,38.72,0,0,0-25.61,9.57,43.25,43.25,0,0,0-32-13.93c-23.59,0-42.71,18.46-42.71,41.25,0,.72,0,1.43.06,2.14C68.38,362.18,87,344.89,109.83,344.89Z"/><path class="cls-4" d="M67.18,383.92v.3h0A3,3,0,0,0,67.18,383.92Z"/><path class="cls-5" d="M61.12,422.27c8.42,0,15.71-4.28,19.31-10.55a43.3,43.3,0,0,0,26.06,11.2,43.08,43.08,0,0,0,36.07,19.15,43.52,43.52,0,0,0,26.83-9.15,63,63,0,0,0,87.22,7.76A39.75,39.75,0,0,0,267,442.07a38.09,38.09,0,0,0,35.1-22.56,38.45,38.45,0,0,0,17.28-8.07,24.5,24.5,0,0,0,18.94,8.8c12.6,0,23-9.3,24.1-21.2a22.65,22.65,0,0,0-4.39-11.4,24.45,24.45,0,0,0-19.75-9.86,25,25,0,0,0-6.77,1c-4.19-15.94-19.11-27.7-36.88-27.7a39.12,39.12,0,0,0-7.17.66c-7.93-23.94-31.15-41.27-58.56-41.27-26.54,0-49.14,16.23-57.76,39q-1.83-.18-3.72-.18a38.72,38.72,0,0,0-25.61,9.57,43.3,43.3,0,0,0-32-13.94c-22.82,0-41.45,17.29-42.65,39v.31h0c0,.64-.05,1.28-.05,1.93,0,.82,0,1.63.07,2.42a24.23,24.23,0,0,0-6.06-.8,22.5,22.5,0,0,0-17.52,8h0a18.21,18.21,0,0,0-4,9.23C40.79,414.74,50,422.27,61.12,422.27Z"/><path class="cls-6" d="M226.39,359.58c27.87,0,50.8,19,53.6,43.41a44.51,44.51,0,0,0,.29-5c0-26.76-24.13-48.45-53.89-48.45S172.5,371.19,172.5,398a44.51,44.51,0,0,0,.29,5C175.58,378.6,198.55,359.58,226.39,359.58Z"/><path class="cls-6" d="M109.83,361.16a26.6,26.6,0,0,1,26.6,23.58c.09-.91.14-1.82.14-2.73a26.75,26.75,0,0,0-53.5,0,25,25,0,0,0,.15,2.73A26.59,26.59,0,0,1,109.83,361.16Z"/><path class="cls-7" d="M362.48,396.82c0,12.92-10.83,23.42-24.22,23.42a24.5,24.5,0,0,1-18.94-8.8A38.45,38.45,0,0,1,302,419.51a38.1,38.1,0,0,1-35.11,22.56,39.73,39.73,0,0,1-10.4-1.39,63,63,0,0,1-87.18-7.76,43.52,43.52,0,0,1-26.83,9.15,43.06,43.06,0,0,1-36-19.15,43.3,43.3,0,0,1-26.06-11.2c-3.6,6.27-10.89,10.55-19.31,10.55-12,0-21.65-8.69-21.65-19.41a17.93,17.93,0,0,1,4.15-11.42h0C44.2,391.09,41.8,418,78.43,403c4.39-1.8,22.22,25.19,38.45,2.06,0,0,6.66,44.47,53,15.68,0,0,38.35,43.31,82.91,9.69,0,0,31.26,15.5,43.24-17.67,0,0,16.15,3.08,22.72-9.77,0,0,30.42,28.79,38.18-11.57l1.17-8.13A22.76,22.76,0,0,1,362.48,396.82Z"/></g></g></svg>