<svg xmlns="http://www.w3.org/2000/svg" width="500" height="500" viewBox="0 0 500 500"><defs><style>.cls-1{opacity:0.75;}.cls-2{fill:#c8dced;}.cls-3{fill:#94b9d3;}.cls-4{fill:#999;}.cls-5{fill:#cee4ef;}.cls-6{fill:#fff;}.cls-7{fill:#afcfe2;}.cls-8{fill:#ffdb32;}.cls-9{fill:#ffb54b;}.cls-10{fill:#805b26;}.cls-11{fill:#402d13;}.cls-12{fill:#ff2300;}.cls-13{fill:#c84800;}</style></defs><g id="Layer_4" data-name="Layer 4"><g class="cls-1"><path class="cls-2" d="M135.64,360.74A15.52,15.52,0,0,1,147.85,355a16.34,16.34,0,0,1,4.23.58c0-.58-.05-1.16-.05-1.74s0-.93,0-1.39a15.78,15.78,0,0,0-4.21-.58,15.51,15.51,0,0,0-12.21,5.73h0a13.19,13.19,0,0,0-2.89,8.22,13.64,13.64,0,0,0,.1,1.57,13.29,13.29,0,0,1,2.81-6.64Z"/><path class="cls-3" d="M181.8,324.1a29.67,29.67,0,0,1,22.3,10A26.54,26.54,0,0,1,222,327.24a24.68,24.68,0,0,1,2.59.13A42.9,42.9,0,0,1,305.63,329a26.11,26.11,0,0,1,5-.47,26.52,26.52,0,0,1,25.71,19.91,17.14,17.14,0,0,1,4.72-.67,16.9,16.9,0,0,1,13.77,7.08,16.67,16.67,0,0,1,3,8.18c0-.53.07-1.06.07-1.58a16.82,16.82,0,0,0-16.87-16.83,17.14,17.14,0,0,0-4.72.67,26.53,26.53,0,0,0-25.71-19.91,26.94,26.94,0,0,0-5,.47,42.9,42.9,0,0,0-81.08-1.64c-.85-.08-1.72-.12-2.59-.12A26.48,26.48,0,0,0,204.1,331,29.78,29.78,0,0,0,152,350.65c0,.52,0,1,0,1.54A29.75,29.75,0,0,1,181.8,324.1Z"/><path class="cls-4" d="M152.07,352.19v.22h0A1.61,1.61,0,0,0,152.07,352.19Z"/><path class="cls-5" d="M147.85,379.8a15.31,15.31,0,0,0,13.46-7.6,29.64,29.64,0,0,0,18.16,8.06,29.83,29.83,0,0,0,43.85,7.2,42.94,42.94,0,0,0,60.79,5.59,26.93,26.93,0,0,0,7.25,1,26.53,26.53,0,0,0,24.47-16.24A26.42,26.42,0,0,0,327.88,372a16,16,0,1,0,13.17-24.23,17.18,17.18,0,0,0-4.72.7,26.51,26.51,0,0,0-25.71-19.93,26.11,26.11,0,0,0-5,.47,42.9,42.9,0,0,0-81.08-1.64,24.68,24.68,0,0,0-2.59-.13,26.54,26.54,0,0,0-17.86,6.89,29.79,29.79,0,0,0-52,18.06v.22h0c0,.46,0,.93,0,1.39s0,1.18.05,1.74a16.79,16.79,0,0,0-4.23-.58,15.55,15.55,0,0,0-12.21,5.74h0a13.32,13.32,0,0,0-2.81,6.65C133.68,374.37,140.07,379.8,147.85,379.8Z"/><path class="cls-6" d="M263,334.67c19.43,0,35.42,13.69,37.37,31.25a34,34,0,0,0,.2-3.63c0-19.25-16.82-34.87-37.57-34.87s-37.56,15.6-37.56,34.87a31.56,31.56,0,0,0,.21,3.63C227.63,348.36,243.64,334.67,263,334.67Z"/><path class="cls-6" d="M181.8,335.8a18.76,18.76,0,0,1,18.54,17,18.43,18.43,0,0,0,.1-2,18.65,18.65,0,1,0-37.29,0,18.38,18.38,0,0,0,.1,2A18.76,18.76,0,0,1,181.8,335.8Z"/><path class="cls-7" d="M357.91,361.47A16.9,16.9,0,0,1,327.82,372a26.42,26.42,0,0,1-12.05,5.81,26.51,26.51,0,0,1-24.46,16.24,27.06,27.06,0,0,1-7.26-1,42.94,42.94,0,0,1-60.76-5.59,29.79,29.79,0,0,1-43.82-7.2,29.64,29.64,0,0,1-18.16-8.06,15.31,15.31,0,0,1-13.46,7.6c-8.34,0-15.1-6.26-15.1-14a13.26,13.26,0,0,1,2.9-8.22h0c.4-.25-1.27,19.12,24.26,8.33,3.07-1.29,15.49,18.13,26.81,1.48,0,0,4.64,32,36.91,11.29,0,0,26.73,31.17,57.79,7,0,0,21.79,11.16,30.14-12.71,0,0,11.26,2.22,15.83-7,0,0,21.21,20.73,26.62-8.32l.81-5.86A16.77,16.77,0,0,1,357.91,361.47Z"/></g></g><g id="Layer_1" data-name="Layer 1"><path class="cls-8" d="M132.21,425.92l-6.73-20.23a3.61,3.61,0,0,1,.41-2.83l2.54-3.59a1.58,1.58,0,0,0,.26-1.12L67.5,355.09A4.63,4.63,0,0,0,67,355l-27.69-3.09c-.88-.1-.95.12-.14.49l26.74,12.35c.8.37.74.65-.14.62l-15.34-.55c-.86,0-1,.37-.32.9l12,9c.7.53.57.85-.29.69l-14.57-2.19c-.87-.13-1,.27-.42.86l5.93,5.58c.65.6.49,1.31-.34,1.52l-11.88,3.55c-.85.25-.84.62,0,.83L65,391.25a1,1,0,0,1,.93,1,.93.93,0,0,1-.32.68l-6.16,8a29.23,29.23,0,0,0-1.77,2.66L38.15,437.43c-.44.76-.34.83.23.14l15-18.1c.57-.68.75-.56.4.26L49.45,430.1a17.6,17.6,0,0,1-1.55,2.78L19.23,473c-.52.71-.38.84.3.28L44.88,452.5c.68-.55.84-.41.34.32L15.69,496.51c-.47.74-.44.77.13.08l59.45-72.81c.55-.68.68-.59.28.19L58.18,458.08c-.39.79-.27.87.28.18l34.8-43.32a1.47,1.47,0,0,1,2.07-.19l.08.07,9.32,9.18a.86.86,0,0,0,1.56-.42l1.1-4a1,1,0,0,1,1.73-.62l9.07,6.38c.72.5,1.06.25.76-.58L116,416.79c-.33-.84,0-1.09.75-.58l14.6,10.32C132.13,427,132.49,426.76,132.21,425.92Z"/><path d="M131.4,400.08a5.37,5.37,0,0,0,7.46-1.29l6.52-9.25a45.53,45.53,0,0,0,4.8-9.4l6.34-18.45a42.86,42.86,0,0,1,4.85-9.3L306,153.69a52.27,52.27,0,0,0,5.12-9.26l9.35-23.19a94.24,94.24,0,0,0,3.28-10.09l8.85-35.26a16.78,16.78,0,0,0-1.08-10l-1.07-2.15a11.72,11.72,0,0,0-7.68-5.65L321.74,58a18.65,18.65,0,0,0-10,1.63L297.5,67.06c-2.62,1.35-6.74,3.79-9.2,5.39l-19.94,13a47.92,47.92,0,0,0-8,6.9l-22.09,24.86c-2,2.22-5,5.92-6.71,8.27L97.15,307.17a104.42,104.42,0,0,1-6.84,8.14L62.13,344.9a4.48,4.48,0,0,0,0,6.34,4.07,4.07,0,0,0,.76.61l4.64,3.28,61.2,43.06ZM66.23,345.5l27.26-29.16c2-2.14,5.06-5.82,6.8-8.18L232,129.49c1.74-2.36,4.74-6.09,6.67-8.29l21.4-24.44a51.74,51.74,0,0,1,7.91-7L287,76.81c2.42-1.66,6.5-4.18,9.06-5.62l13.39-7.48a18.82,18.82,0,0,1,7.75-2,3.81,3.81,0,0,1,3,.2,11.35,11.35,0,0,1,6.22,4.14,5.12,5.12,0,0,1,2.08,3.74,1.2,1.2,0,0,1-.09.45,17.2,17.2,0,0,1,.3,8.55l-9.32,33.94a99.55,99.55,0,0,1-3.47,10.06L306.5,145.2a55,55,0,0,1-5.19,9.23L159.41,349.74c-.51.7-1,1.54-1.59,2.46a3.1,3.1,0,0,1-.25.8,26,26,0,0,1-2.49,4.5c-.24.56-.46,1.08-.64,1.57L148,376.79a48.28,48.28,0,0,1-4.89,9.37l-6.3,8.95a5.36,5.36,0,0,1-7.46,1.28l-1.54-1.08c-.41.33-.79.42-1.09.21s-.36-.62-.24-1.14l-11.38-8a1.19,1.19,0,0,1-1-.35,1.59,1.59,0,0,1-.28-.53L93.57,371.22A1.68,1.68,0,0,1,92,371.1a1.81,1.81,0,0,1-.66-1.45L72,356c-.39.33-.7.48-.87.36s-.14-.46,0-.95L67,352.47a4.54,4.54,0,0,1-1.29-6.29A5.11,5.11,0,0,1,66.23,345.5Z"/><path class="cls-9" d="M323.92,64.13c.64.56,1.59,1.2,2.46,2A11.35,11.35,0,0,0,320.16,62,14.42,14.42,0,0,1,323.92,64.13Z"/><path class="cls-9" d="M73.6,351.62l3.24-4c1.86-2.29,2.13-2.11.62.4l-2.67,4.38A16,16,0,0,1,72,356L91.4,369.6a7.41,7.41,0,0,1,1.65-4.37l25.33-34.32c1.74-2.36,1.94-2.23.45.29L97,368a7,7,0,0,1-3.35,3.16l20.29,14.27c-.38-1.22.46-3.42,2.09-5.34L141.82,350c1.92-2.25,2.09-2.09.4.31l-23.35,33.15c-1.23,1.75-2.71,2.83-3.76,2.89l11.38,8a6.46,6.46,0,0,1,1.68-2.67c1.52-1.57,2.12-1.16,1.32.94a6.47,6.47,0,0,1-1.7,2.63l1.54,1.09a5.36,5.36,0,0,0,7.45-1.28l6.31-9a48.81,48.81,0,0,0,4.89-9.37L154.41,359c.18-.49.4-1,.64-1.58-.67,1-1.4,2-2.17,3,0,0-18.69,22.73-19.63,23.93l0,.05,0-.05,22.42-30.42c1.39-1.91,2.21-2.55,2.11-1.77.55-.92,1.09-1.77,1.59-2.45L301.28,154.37a55,55,0,0,0,5.19-9.23l9.38-22.37a101.2,101.2,0,0,0,3.47-10.06l9.35-33.88a17.17,17.17,0,0,0-.32-8.57c-.7,1.64-5.34-2.35-6.42-3.17s-6.39-3-5.21-4.91a1.18,1.18,0,0,1,.42-.41,18.87,18.87,0,0,0-7.76,2L296,71.19c-2.56,1.44-6.64,4-9.06,5.62L268,89.72a50.75,50.75,0,0,0-7.91,7L238.74,121.2c-2,2.22-4.93,5.94-6.67,8.29L100.29,308.16c-1.74,2.36-4.79,6-6.8,8.18L66.23,345.5a4.54,4.54,0,0,0,.06,6.42,3.92,3.92,0,0,0,.67.55l4.2,2.95A15.79,15.79,0,0,1,73.6,351.62Zm196-262.8c.87-.47,2.34.43,3.3,2a26,26,0,0,0,5,5.47c1.8,1.44,5.21,4.08,7.56,5.85,0,0,9.42,7.08,9.73,6.64s2.74,1.77,2.74,1.77c2.66,2.36,5.45,4.59,8.34,6.68l.88.62c2.4,1.68,5.45,3.24,6.75,3.44s2.05,1,1.66,1.82-2.17.57-4-.52-5.24-3.38-7.66-5.06l-3.45-2.43-8.77-6.16-6.07-4.27c-2.4-1.69-6.17-4.7-8.36-6.67l-5.27-4.74C269.85,91.28,268.77,89.29,269.64,88.82ZM98.23,313.22c1.84-2.11,2.08-1.79.54.7L85,336.14c-1.55,2.48-1.67,2.4-.28-.18l7.65-14.24A55.15,55.15,0,0,1,98.23,313.22Z"/><path class="cls-10" d="M322,67.1c1.08.82,5.72,4.81,6.42,3.18a1.2,1.2,0,0,0,.09-.45,5,5,0,0,0-2.08-3.74c-.87-.76-1.82-1.4-2.46-2A14.42,14.42,0,0,0,320.16,62a3.72,3.72,0,0,0-3-.2,1.3,1.3,0,0,0-.42.42C315.54,64,320.79,66.21,322,67.1Z"/><path class="cls-10" d="M272,93.25,277.29,98c2.21,2,5.95,5,8.36,6.67l6.07,4.27,8.77,6.16,3.45,2.43c2.4,1.69,5.85,4,7.66,5.06s3.59,1.32,4,.52-.36-1.63-1.66-1.82-4.33-1.75-6.73-3.43l-.88-.62q-4.33-3.14-8.35-6.68s-2.43-2.21-2.74-1.77-9.73-6.65-9.73-6.65c-2.35-1.76-5.75-4.4-7.56-5.84a25.86,25.86,0,0,1-5-5.46c-.94-1.56-2.44-2.45-3.3-2S269.85,91.28,272,93.25Z"/><path class="cls-10" d="M85,336.14l13.78-22.22c1.54-2.49,1.3-2.81-.54-.7a55.15,55.15,0,0,0-5.87,8.5L84.71,336C83.3,338.57,83.44,338.62,85,336.14Z"/><path class="cls-10" d="M74.76,352.43l2.66-4.38c1.52-2.51,1.25-2.68-.61-.4l-3.24,4a16,16,0,0,0-2.46,3.79c-.18.48-.21.83,0,.95s.48,0,.87-.36A16.13,16.13,0,0,0,74.76,352.43Z"/><path class="cls-10" d="M96.93,368l21.86-36.78c1.49-2.53,1.3-2.65-.45-.29L93,365.27a7.48,7.48,0,0,0-1.65,4.37,1.78,1.78,0,0,0,.66,1.44,1.68,1.68,0,0,0,1.54.13A7.17,7.17,0,0,0,96.93,368Z"/><path class="cls-10" d="M118.87,383.44l23.31-33.11c1.69-2.4,1.5-2.52-.4-.31l-25.84,30.09c-1.64,1.91-2.47,4.12-2.09,5.34a1.36,1.36,0,0,0,.28.53,1.18,1.18,0,0,0,1,.35C116.16,386.27,117.64,385.2,118.87,383.44Z"/><path class="cls-10" d="M155.7,354S134.28,383,133.28,384.38c.94-1.2,19.64-23.93,19.64-23.93.77-.95,1.49-1.94,2.16-3a26.64,26.64,0,0,0,2.5-4.49,3.78,3.78,0,0,0,.24-.81C157.89,351.41,157.09,352.06,155.7,354Z"/><path class="cls-10" d="M133.28,384.39l0,.05Z"/><path class="cls-10" d="M129.5,392.62c.8-2.1.19-2.49-1.32-.93a6.32,6.32,0,0,0-1.68,2.66c-.13.52-.06.93.24,1.14s.67.12,1.08-.21A6.49,6.49,0,0,0,129.5,392.62Z"/><path class="cls-11" d="M278.72,148l2.21,1.56a2.65,2.65,0,0,1,.65,3.71h0a2.67,2.67,0,0,1-3.71.65l-2.21-1.56a2.65,2.65,0,0,1-.65-3.71h0A2.66,2.66,0,0,1,278.72,148Z"/><path class="cls-11" d="M286.61,153.54l.9.63a2.68,2.68,0,0,1,.65,3.72h0a2.67,2.67,0,0,1-3.72.64l-.9-.63a2.66,2.66,0,0,1-.64-3.71h0A2.65,2.65,0,0,1,286.61,153.54Z"/><path class="cls-11" d="M293.18,158.17h0a2.65,2.65,0,0,1,.65,3.71h0a2.67,2.67,0,0,1-3.72.65v0a2.65,2.65,0,0,1-.65-3.71h0A2.66,2.66,0,0,1,293.18,158.17Z"/><path class="cls-11" d="M267.55,162.94l2.21,1.55a2.67,2.67,0,0,1,.65,3.71h0a2.67,2.67,0,0,1-3.72.65l-2.21-1.55a2.67,2.67,0,0,1-.64-3.72h0A2.66,2.66,0,0,1,267.55,162.94Z"/><path class="cls-11" d="M275.44,168.49l.9.63a2.66,2.66,0,0,1,.64,3.71h0a2.67,2.67,0,0,1-3.71.65l-.9-.63a2.68,2.68,0,0,1-.65-3.72h0A2.67,2.67,0,0,1,275.44,168.49Z"/><path class="cls-11" d="M282,173.1l0,0a2.65,2.65,0,0,1,.65,3.71h0a2.67,2.67,0,0,1-3.71.65l0,0a2.65,2.65,0,0,1-.65-3.71h0A2.67,2.67,0,0,1,282,173.1Z"/><path class="cls-12" d="M173.74,247.07a2.37,2.37,0,0,1-.28-.27A2.37,2.37,0,0,0,173.74,247.07Z"/><path class="cls-12" d="M168.71,289.83c-2.14,2.5-4.67,5.1-8,5.94-3.14.82-6.39-.73-8.81-2.74-2.71-2.25-2.09-6-1.58-9.17.58-3.6,3.58-5.54,4.79-8.83s-3.87-5-5-1.82c-.83,2.25-2.92,3.76-3.92,6a21.31,21.31,0,0,0-1.48,7.46c-.32,4.69.84,8.44,4.81,11.24,3.59,2.55,7.78,4.16,12.16,3.18,4.81-1.11,8.34-4.51,11.44-8.13C175.32,290.3,170.92,287.24,168.71,289.83Z"/><path class="cls-12" d="M190.3,274.08c-2-5-6-8.4-10.22-11.51l-.65-.49a2.79,2.79,0,0,0-1.71-1.27,29.87,29.87,0,0,1-4-3.56c-2-2.23-3.33-4.81-5.8-6.59-2.8-2-5.86,2.32-3.07,4.36,2.14,1.53,3.29,4,5.06,6a32.71,32.71,0,0,0,3.26,3,50.14,50.14,0,0,0-5.6,7.3q-4.44-3.9-8.9-7.71c-2.62-2.23-5.67,2.14-3.07,4.36q11.25,9.57,22,19.55c2.52,2.33,5.56-2.05,3.07-4.36q-4.52-4.17-9.09-8.24a45.89,45.89,0,0,1,5.74-7.63c3.3,2.48,6.47,5.06,8,9C186.68,279.51,191.53,277.28,190.3,274.08Z"/><path class="cls-12" d="M178.87,253.18c2.1,2.43,4.93,4,7.09,6.28s3.95,5.57,5.8,8.33,6-.54,4.12-3.38-3.54-5.88-5.8-8.33-5-3.88-7.08-6.28C180.74,247.19,176.62,250.57,178.87,253.18Z"/><path class="cls-12" d="M171.88,249.38a3.41,3.41,0,0,0,3.23,1.13,3.74,3.74,0,0,0,2.42-1.92,5.41,5.41,0,0,0,.84-2.84,5.32,5.32,0,0,0-.06-.56,2.8,2.8,0,0,0-.19-1.43,2.91,2.91,0,0,0-3.36-1.64,5.27,5.27,0,0,0-2.55,1.69A4.17,4.17,0,0,0,171.88,249.38Zm1.58-2.58a2.37,2.37,0,0,0,.28.27,2.37,2.37,0,0,1-.3-.23Z"/><path class="cls-12" d="M210.18,245.05c-7.24-6.84-12.36-14.88-17.54-23.3-1.8-2.9-6.67-.72-4.86,2.2A176.52,176.52,0,0,0,198.52,240l-4.12-1.36a62.55,62.55,0,0,0-14.68-3.61c-2.89-.25-3.6,3.16-1.76,4.83,3.76,3.43,8.06,6.7,11.35,10.58,3.07,3.65,4.44,8,9.23,9.9,3.2,1.28,5-3.73,1.8-5-2.41-1-3.57-3.3-4.88-5.37a25.5,25.5,0,0,0-4-4.89c-1-.91-1.92-1.83-2.89-2.73,1.34.41,2.67.85,4,1.31,4.62,1.58,9.73,2.81,14,5.23C209,250.29,212.55,247.29,210.18,245.05Z"/><path class="cls-12" d="M215.49,238.06c-2.25-3-4.48-6-6.76-9a18.07,18.07,0,0,0,3-4.26,27.8,27.8,0,0,1,2.44-4.28,3.14,3.14,0,0,0,.95-.56,34.51,34.51,0,0,1,7,6.27c2.23,2.62,6.36-.76,4.12-3.38a38.66,38.66,0,0,0-23.16-13.21c-2.43-.42-6.25-1.27-8.4.36s-1.17,5-.77,7.34c.55,3,2.24,4.89,4.19,7.16,4.69,5.45,8.9,11.28,13.19,17C213.45,244.23,217.57,240.83,215.49,238.06ZM198.8,214.54a3.93,3.93,0,0,0,.48-.06c.57.05,1.14.1,1.71.17a31.05,31.05,0,0,1,3.57.64,34.36,34.36,0,0,1,5.56,1.89c-1.71,2.39-2.7,5.53-4.72,7.64-2.56-2.94-6.37-6.28-6.57-10.26Z"/><path class="cls-13" d="M70.9,356.3c16.84,14.79,39.11,24.31,56.33,39.64-4.14,0-6.46,1.06-11,.44S107,393.1,101.54,394s-9.28-.49-13.64-4.26-24.78-28.23-18.53-31.9S72.14,358.1,70.9,356.3Z"/></g><g id="Layer_5" data-name="Layer 5"><g class="cls-1"><path class="cls-2" d="M20.24,143.16a18,18,0,0,1,14-6.34,18.79,18.79,0,0,1,4.83.64c0-.64-.06-1.29-.06-1.93s0-1,0-1.54a19.08,19.08,0,0,0-4.81-.64,17.93,17.93,0,0,0-13.95,6.35h0A14.29,14.29,0,0,0,17,148.79a12.46,12.46,0,0,0,.11,1.73,14.45,14.45,0,0,1,3.21-7.35Z"/><path class="cls-3" d="M73,102.63a34.47,34.47,0,0,1,25.48,11.1,30.8,30.8,0,0,1,20.4-7.62c1,0,2,0,3,.14,6.86-18.12,24.85-31,46-31,21.86,0,40.32,13.81,46.63,32.87a31.34,31.34,0,0,1,5.71-.52c14.15,0,26,9.36,29.37,22a19.82,19.82,0,0,1,21.11,7.1,18,18,0,0,1,3.47,9,17.08,17.08,0,0,0,.08-1.75,18.08,18.08,0,0,0-3.55-10.77,19.42,19.42,0,0,0-15.72-7.84,20,20,0,0,0-5.39.74c-3.34-12.66-15.22-22-29.37-22a31.34,31.34,0,0,0-5.71.52c-6.31-19.06-24.8-32.87-46.63-32.87-21.13,0-39.12,12.94-46,31.05-1-.09-2-.14-3-.14a30.9,30.9,0,0,0-20.4,7.62A34.47,34.47,0,0,0,73,99.15c-18.78,0-34,14.71-34,32.86,0,.57,0,1.13,0,1.7C40,116.39,54.81,102.63,73,102.63Z"/><path class="cls-4" d="M39,133.71V134h0A1.92,1.92,0,0,0,39,133.71Z"/><path class="cls-5" d="M34.19,164.25a17.59,17.59,0,0,0,15.37-8.41,34.48,34.48,0,0,0,20.75,8.92A34.28,34.28,0,0,0,99,180a34.65,34.65,0,0,0,21.37-7.28,50.15,50.15,0,0,0,69.44,6.18,31,31,0,0,0,8.29,1.1,30.33,30.33,0,0,0,28-17.95,30.74,30.74,0,0,0,13.76-6.43,19.53,19.53,0,0,0,15.08,7c10,0,18.28-7.4,19.19-16.87a18,18,0,0,0-3.5-9.08,19.43,19.43,0,0,0-15.72-7.85,20,20,0,0,0-5.39.77c-3.34-12.68-15.22-22-29.37-22a31.34,31.34,0,0,0-5.71.52C208.11,89,189.62,75.2,167.79,75.2c-21.13,0-39.12,12.93-46,31.05-1-.09-2-.14-3-.14a30.8,30.8,0,0,0-20.4,7.62A34.47,34.47,0,0,0,73,102.63c-18.16,0-33,13.76-34,31.08V134h0c0,.51,0,1,0,1.54s0,1.3.06,1.93a18.73,18.73,0,0,0-4.83-.64,17.92,17.92,0,0,0-13.94,6.34h0A14.46,14.46,0,0,0,17,150.47C18,158.25,25.3,164.25,34.19,164.25Z"/><path class="cls-6" d="M165.78,114.33c22.2,0,40.45,15.14,42.68,34.56a35.8,35.8,0,0,0,.23-4c0-21.3-19.21-38.58-42.91-38.58s-42.91,17.27-42.91,38.58a35.8,35.8,0,0,0,.23,4C125.33,129.47,143.62,114.33,165.78,114.33Z"/><path class="cls-6" d="M73,115.58a21.18,21.18,0,0,1,21.18,18.78,19.73,19.73,0,0,0,.12-2.17,21.3,21.3,0,0,0-42.6,0c0,.72,0,1.45.11,2.17A21.18,21.18,0,0,1,73,115.58Z"/><path class="cls-7" d="M274.14,144c0,10.29-8.63,18.64-19.29,18.64a19.51,19.51,0,0,1-15.07-7A30.79,30.79,0,0,1,226,162.05a30.33,30.33,0,0,1-28,17.95,30.88,30.88,0,0,1-8.28-1.1,50.16,50.16,0,0,1-69.41-6.18A34.67,34.67,0,0,1,99,180a34.28,34.28,0,0,1-28.69-15.24,34.48,34.48,0,0,1-20.75-8.92,17.59,17.59,0,0,1-15.37,8.41c-9.53,0-17.24-6.92-17.24-15.46a14.3,14.3,0,0,1,3.3-9.09h0c.46-.28-1.45,21.14,27.72,9.2,3.5-1.42,17.7,20.06,30.62,1.64,0,0,5.3,35.41,42.17,12.49,0,0,30.53,34.48,66,7.72,0,0,24.89,12.33,34.43-14.07,0,0,12.86,2.45,18.09-7.78,0,0,24.22,22.93,30.4-9.21l.93-6.48A18.08,18.08,0,0,1,274.14,144Z"/></g></g></svg>