<svg id="Layer_5" data-name="Layer 5" xmlns="http://www.w3.org/2000/svg" width="500" height="500" viewBox="0 0 500 500"><defs><style>.cls-1{opacity:0.75;}.cls-2{fill:#c8dced;}.cls-3{fill:#94b9d3;}.cls-4{fill:#999;}.cls-5{fill:#cee4ef;}.cls-6{fill:#fff;}.cls-7{fill:#afcfe2;}.cls-8{fill:none;}.cls-9{fill:#f2f4f6;}.cls-10{fill:#c3c8ca;}.cls-11{fill:#878b8e;}.cls-12{fill:#b4babd;}.cls-13{fill:#6f7275;}.cls-14{fill:#dee4e9;}</style></defs><g class="cls-1"><path class="cls-2" d="M48.94,183.28a27.89,27.89,0,0,1,21.69-9.87,29.73,29.73,0,0,1,7.51,1q-.09-1.5-.09-3c0-.8,0-1.6.06-2.39a29.49,29.49,0,0,0-7.48-1,27.89,27.89,0,0,0-21.69,9.87h0a22,22,0,0,0-5,16.84,22.51,22.51,0,0,1,5-11.43Z"/><path class="cls-3" d="M130.94,120.25a53.54,53.54,0,0,1,39.63,17.26,47.93,47.93,0,0,1,31.72-11.85c1.55,0,3.09.07,4.6.22,10.67-28.18,38.66-48.29,71.52-48.29,34,0,62.7,21.47,72.52,51.11a49,49,0,0,1,8.88-.81c22,0,40.48,14.56,45.67,34.25a31.25,31.25,0,0,1,8.38-1.14,30.26,30.26,0,0,1,24.46,12.18,28.09,28.09,0,0,1,5.39,14.06c.09-.91.13-1.81.13-2.72a28.14,28.14,0,0,0-5.52-16.75,30.27,30.27,0,0,0-24.46-12.19,31.26,31.26,0,0,0-8.38,1.15c-5.19-19.69-23.67-34.25-45.67-34.25a49,49,0,0,0-8.88.81c-9.82-29.64-38.57-51.11-72.52-51.11-32.86,0-60.85,20.11-71.52,48.29-1.51-.15-3-.22-4.6-.22a47.93,47.93,0,0,0-31.72,11.85,53.54,53.54,0,0,0-39.63-17.26c-29.21,0-52.89,22.87-52.89,51.09,0,.89,0,1.77.08,2.65C79.61,141.65,102.69,120.25,130.94,120.25Z"/><path class="cls-4" d="M78.13,168.58V169h0C78.14,168.83,78.13,168.71,78.13,168.58Z"/><path class="cls-5" d="M70.63,216.07c10.42,0,19.45-5.31,23.91-13.07a53.58,53.58,0,0,0,32.27,13.87,53.35,53.35,0,0,0,44.66,23.71,53.94,53.94,0,0,0,33.23-11.33,78,78,0,0,0,108,9.61,49.24,49.24,0,0,0,12.89,1.72c19.57,0,36.35-11.52,43.47-27.93a47.67,47.67,0,0,0,21.4-10,30.36,30.36,0,0,0,23.45,10.9c15.61,0,28.43-11.52,29.85-26.25a28.1,28.1,0,0,0-5.44-14.12A30.24,30.24,0,0,0,413.86,161a31.32,31.32,0,0,0-8.38,1.21c-5.19-19.73-23.67-34.29-45.67-34.29a49,49,0,0,0-8.88.81c-9.82-29.64-38.57-51.11-72.52-51.11-32.86,0-60.85,20.11-71.52,48.29-1.51-.15-3-.22-4.6-.22a47.93,47.93,0,0,0-31.72,11.85,53.54,53.54,0,0,0-39.63-17.26c-28.25,0-51.33,21.4-52.81,48.33V169h0c0,.79-.06,1.59-.06,2.39q0,1.53.09,3a29.73,29.73,0,0,0-7.51-1A27.89,27.89,0,0,0,49,183.22h0a22.51,22.51,0,0,0-5,11.43C45.45,206.74,56.81,216.07,70.63,216.07Z"/><path class="cls-6" d="M275.28,138.44c34.52,0,62.91,23.55,66.38,53.75A56.42,56.42,0,0,0,342,186c0-33.13-29.87-60-66.73-60s-66.73,26.85-66.73,60a54.09,54.09,0,0,0,.36,6.23C212.37,162,240.81,138.44,275.28,138.44Z"/><path class="cls-6" d="M130.94,140.39a32.92,32.92,0,0,1,32.94,29.2,31.75,31.75,0,0,0,.18-3.38c0-18-14.83-32.59-33.12-32.59s-33.13,14.56-33.13,32.56a31.75,31.75,0,0,0,.18,3.38A32.93,32.93,0,0,1,130.94,140.39Z"/><path class="cls-7" d="M443.81,184.55c0,16-13.42,29-30,29a30.36,30.36,0,0,1-23.45-10.9,47.67,47.67,0,0,1-21.4,10c-7.12,16.41-23.9,27.93-43.47,27.93a49.24,49.24,0,0,1-12.89-1.72,78,78,0,0,1-108-9.61,53.94,53.94,0,0,1-33.23,11.33,53.33,53.33,0,0,1-44.61-23.71A53.58,53.58,0,0,1,94.54,203c-4.46,7.76-13.49,13.07-23.91,13.07-14.82,0-26.82-10.76-26.82-24A22.26,22.26,0,0,1,49,177.89h0c.72-.43-2.25,32.89,43.11,14.32,5.44-2.22,27.52,31.2,47.62,2.55,0,0,8.24,55.07,65.58,19.42,0,0,47.49,53.63,102.67,12,0,0,38.71,19.19,53.54-21.88,0,0,20,3.82,28.13-12.1,0,0,37.68,35.66,47.29-14.32l1.44-10.07A28.17,28.17,0,0,1,443.81,184.55Z"/></g><g id="Layer_2" data-name="Layer 2"><path class="cls-8" d="M263.08,375.28h.15l.08,1.42C263.23,376.25,263.15,375.79,263.08,375.28Z"/><path d="M68.65,344.19c-1.75.69-3.28,2.2-2.07,5.51,2.34,6.39,9.77,8,11.34,7.41s55.23,9.94,55.23,9.94c1.21.24,3.2.6,4.42.79l17,2.75c1.22.19,3.23.4,4.46.45l29.22,1.25c1.21,0,3.16.09,4.4.09,27.59-6.81,59.82-14.11,74.91-15.1,29.15-1.93,41.14,3.75,41.14,3.75a8.83,8.83,0,0,1,3.12,2.7l1.48,2.3c1.86.84-6.21,2.58-19.45,4.73l69.3-3.27c1.24-.06,3.25-.25,4.47-.42l21-3a43.49,43.49,0,0,0,4.37-.92s26.86-7.46,19.66-13.25l-6.89-4.15a24.53,24.53,0,0,0-4-1.84l-5-1.71a14.77,14.77,0,0,1-2.22-1h0l-3.35-3a1.86,1.86,0,0,0-1.15-.41h-.29l-.35-.26a15.43,15.43,0,0,0-3.84-2l-3.16-1a15.77,15.77,0,0,0-4.37-.64l-35.38.85c-1.24,0-3.26.1-4.5.15l-44.5,1.81c-1.24,0-3.26.2-4.49.34l-14.24,1.49c-1.23.13-3.24.38-4.46.54l-12.21,1.67c-1.22.16-3.24.32-4.48.36l-114.59,3.35a23.57,23.57,0,0,1-4.44-.39,32.43,32.43,0,0,1-4.7-1.48l1.61-.24c.37-.06.38-.19,0-.29L126,340.36a.44.44,0,0,0-.39,0,20.06,20.06,0,0,1-4.83-3.87c-4.94-5.72-45.42-32.13-45.42-32.13a8.86,8.86,0,0,0-4.07-1.19H57c-1.24,0-1.84.84-1.35,1.86l17.87,36.84a1.92,1.92,0,0,1,.15.48l-.61-.12c-.36-.07-.59.13-.5.46l.21.74a.35.35,0,0,0,.06.14,2.12,2.12,0,0,1-.66.07h-.63c-5.6-14.15-12.84-27.85-19.34-41.72,6.29-.15,12.5-1.38,18.82-.81,17.43,7.93,32.24,20.72,47.78,30.75s-1,8.46,25.62,10,77.71-2.55,99.85-3.19S259.65,336.58,272,336s11.22-1.73,24-2.38,31.54-1.46,45.72-1.93,27.47-.59,41.39-1c2.37,1,4.91,1.89,7.36,2.83l7,6c3.29,1.44,6.14,2.18,9.49,3.84s5.77,4.45,10.21,5.74c-3.92,9.83-14.3,14.41-26.76,15.91s-13.26,3-33.86,4.34c-15,1-44.62,2.58-68.88,3.65,0-.43.06-.86.08-1.27l-2.48.38c-6.66,1-14.14,2.08-22,3.16h-.15l-4.54.62c-42.64,5.8-94.52,11.86-94.52,11.86-1.23.14-3.25.26-4.48.26H145.39c-1.24,0-2.25-.62-2.25-1.39s1-1.65,2.15-2c0,0,18.19-5,41-10.68-11-.25-17.6-.7-27.56-1.51-12.74-1-13.37-1.8-25.76-4.11s-43.51-10.63-55.4-9-9.16-2.64-13-8.45C61.49,346.33,65,344.84,68.65,344.19Zm83.4,39.19c-1.19.32-2.16,1.18-2.16,1.91s1,1.32,2.25,1.32h13.21c1.24,0,3.26-.12,4.49-.26,0,0,148.88-17.39,141.67-20.63l-1.35-2.1a8.83,8.83,0,0,0-3.12-2.7s-11.28-5.34-39-3.52S152.05,383.38,152.05,383.38Z"/><path class="cls-9" d="M72.12,343.64a2.12,2.12,0,0,0,.66-.07.93.93,0,0,0,.77.45H90.38l-12.61-.88a9.89,9.89,0,0,1-1.33-.18l-2.79-.61a1.92,1.92,0,0,0-.15-.48L55.65,305c-.49-1,.11-1.86,1.35-1.86H71.25a8.86,8.86,0,0,1,4.07,1.19s40.48,26.42,45.42,32.14a19.92,19.92,0,0,0,4.91,3.9.32.32,0,0,0-.07.36l.08.25a.54.54,0,0,1-.37.67l-.11,0-11,1.63c-.36.05-1,.11-1.34.13l-10.19.54h0l25-1.15a9.65,9.65,0,0,0,1.34-.14l1.09-.16a32.43,32.43,0,0,0,4.7,1.48,23.57,23.57,0,0,0,4.44.39l114.59-3.35a41.83,41.83,0,0,0,4.48-.36l12.21-1.63c1.22-.16,3.23-.41,4.46-.54L289.17,337c1.23-.14,3.25-.29,4.49-.34l44.57-1.81c1.24,0,3.26-.12,4.5-.15l35.34-.88a15.77,15.77,0,0,1,4.37.64l3.15,1a15.43,15.43,0,0,1,3.84,2l.35.26-4,.14a1.13,1.13,0,0,0-.91.6s-1.19,2.88.65,2.67,4.09.61,9,0a14.77,14.77,0,0,0,2.22,1l5,1.71a24.53,24.53,0,0,1,4,1.84l6.91,4.19c7.18,5.79-19.68,13.28-19.68,13.28a43.49,43.49,0,0,1-4.37.92l-21,3c-1.22.17-3.23.36-4.47.42l-69.3,3.24c13.24-2.15,21.31-3.89,19.45-4.73l-1.48-2.3a8.83,8.83,0,0,0-3.12-2.7s-12-5.68-41.14-3.75c-15.09,1-47.32,8.29-74.91,15.1-1.24,0-3.19,0-4.4-.09L159,371a35.28,35.28,0,0,1-4.46-.45l-17-2.75c-1.22-.19-3.21-.55-4.42-.79,0,0-53.61-10.55-55.19-9.94s-9-1-11.34-7.41c-1.21-3.31.32-4.82,2.07-5.51a9.53,9.53,0,0,1,2.8-.55Zm269-1.63.16,2.38a2,2,0,0,0,2.18,1.73l2.64-.15A1.92,1.92,0,0,0,348,344V344l-.16-2.38a2,2,0,0,0-2.18-1.73L343,340a1.93,1.93,0,0,0-1.89,2v0Zm-8.78.4.16,2.38a2,2,0,0,0,2.21,1.7l2.64-.15a1.92,1.92,0,0,0,1.92-1.92v-.08l-.16-2.37a2,2,0,0,0-2.18-1.74l-2.64.15a1.94,1.94,0,0,0-1.92,2v.07Zm-9.23.61.17,2.38a2,2,0,0,0,2.17,1.73l2.64-.15a1.92,1.92,0,0,0,1.93-1.93V345l-.17-2.38a2,2,0,0,0-2.18-1.73L325,341a1.94,1.94,0,0,0-1.89,2h0Zm-9.45,1,.16,2.37a2,2,0,0,0,2.18,1.74l2.64-.15a1.94,1.94,0,0,0,1.92-2v0l-.16-2.37a2,2,0,0,0-2.18-1.73l-2.64.14a1.94,1.94,0,0,0-1.93,2v0Zm-8.78,1,.16,2.38a2,2,0,0,0,2.18,1.73l2.64-.15a1.92,1.92,0,0,0,1.92-1.94V347l-.13-2.31a2,2,0,0,0-2.18-1.73l-2.64.15a1.92,1.92,0,0,0-1.92,1.94v0Zm-8.78.41.16,2.37a2,2,0,0,0,2.18,1.73l2.64-.14a1.94,1.94,0,0,0,1.92-2v0l-.16-2.37a2,2,0,0,0-2.19-1.68l-2.6.15a1.94,1.94,0,0,0-1.92,2v0Zm-9.23.6.17,2.38a2,2,0,0,0,2.17,1.73l2.64-.15a1.92,1.92,0,0,0,1.93-1.93V348l-.13-2.31a2,2,0,0,0-2.18-1.73l-2.64.15a1.94,1.94,0,0,0-1.93,1.95h0Zm-9.45,1,.23,2.46a2,2,0,0,0,2.18,1.74l2.64-.15a1.94,1.94,0,0,0,1.92-2v0l-.16-2.38a2,2,0,0,0-2.18-1.73l-2.64.15a1.92,1.92,0,0,0-2,1.9v.06Z"/><path class="cls-10" d="M343.07,340.05l2.64-.15a2,2,0,0,1,2.18,1.73l.16,2.38a1.93,1.93,0,0,1-1.86,2h-.06l-2.64.15a2,2,0,0,1-2.18-1.73l-.16-2.38a1.93,1.93,0,0,1,1.86-2Z"/><path class="cls-10" d="M334.29,340.49l2.64-.15a2,2,0,0,1,2.18,1.74l.16,2.37a1.93,1.93,0,0,1-1.84,2h-.08l-2.64.15a2,2,0,0,1-2.18-1.73l-.16-2.38a1.94,1.94,0,0,1,1.88-2Z"/><path class="cls-10" d="M325.06,341.06l2.64-.15a2,2,0,0,1,2.18,1.73l.17,2.38a1.93,1.93,0,0,1-1.86,2h-.07l-2.64.15a2,2,0,0,1-2.17-1.73l-.17-2.38a1.94,1.94,0,0,1,1.88-2Z"/><path class="cls-10" d="M315.65,342.07l2.64-.14a2,2,0,0,1,2.18,1.73l.16,2.37a1.94,1.94,0,0,1-1.88,2h0l-2.64.15a2,2,0,0,1-2.18-1.74l-.24-2.4a1.94,1.94,0,0,1,1.91-2Z"/><path class="cls-10" d="M306.83,343.09l2.64-.15a2,2,0,0,1,2.18,1.73l.16,2.38a1.93,1.93,0,0,1-1.86,2h-.06l-2.64.15a2,2,0,0,1-2.18-1.73l-.16-2.38a1.93,1.93,0,0,1,1.86-2Z"/><path class="cls-10" d="M298.05,343.49l2.64-.15a2,2,0,0,1,2.18,1.74l.16,2.37a1.94,1.94,0,0,1-1.88,2h0l-2.64.14a2,2,0,0,1-2.18-1.73l-.16-2.37a1.94,1.94,0,0,1,1.88-2Z"/><path class="cls-10" d="M288.82,344.1l2.64-.15a2,2,0,0,1,2.19,1.73l.17,2.38a1.93,1.93,0,0,1-1.86,2h-.07l-2.64.15a2,2,0,0,1-2.18-1.72l-.17-2.38a1.94,1.94,0,0,1,1.87-2Z"/><path class="cls-10" d="M279.37,345.12,282,345a2,2,0,0,1,2.18,1.73l.16,2.38a1.94,1.94,0,0,1-1.88,2h0l-2.64.15a2,2,0,0,1-2.14-1.74l-.16-2.37a1.93,1.93,0,0,1,1.86-2Z"/><path class="cls-11" d="M127.65,342.84l-25,1.15h0l10.1-.5a11.48,11.48,0,0,0,1.34-.13l11-1.63a.54.54,0,0,0,.5-.58.43.43,0,0,0,0-.11l-.08-.25a.32.32,0,0,1,.16-.4.44.44,0,0,1,.39,0l5.61,1.62c.36.1.35.23,0,.29l-1.63.24-1.09.16C128.58,342.76,128,342.82,127.65,342.84Z"/><path class="cls-11" d="M77.77,343.1l12.61.88H73.55a.93.93,0,0,1-.77-.45.35.35,0,0,1-.06-.14l-.21-.74c-.09-.33.14-.53.5-.46l.61.12,2.82.57A10,10,0,0,0,77.77,343.1Z"/><path class="cls-12" d="M263.31,376.68l-.08-1.42c7.88-1.08,15.36-2.15,22-3.16-.08,1-.18,2.3-.26,3.14,0,0-.41,4.52.39,5.23a2.19,2.19,0,0,1-.2.66c-2.12,2.77-19.38.67-19.38.67a2.65,2.65,0,0,1-2.32-2.31V379h.14C263.89,379.2,263.65,378.24,263.31,376.68Z"/><path class="cls-12" d="M385.53,341.18c-1.84.21-.65-2.67-.65-2.67a1.13,1.13,0,0,1,.91-.6l4-.14h.29a1.86,1.86,0,0,1,1.15.41l3.35,3h0C389.65,341.79,387.37,341,385.53,341.18Z"/><path class="cls-13" d="M263.31,376.68c.29,1.56.58,2.52.26,2.42h-.14a9.46,9.46,0,0,1-4.14-2,2.17,2.17,0,0,1-.75-1.17l4.54-.62C263.15,375.79,263.23,376.25,263.31,376.68Z"/><path class="cls-13" d="M285,375.24c.08-.84.18-2.1.26-3.14l2.48-.38a6.88,6.88,0,0,1-.08,1.27,42.06,42.06,0,0,1-.9,6.31c-.35,1.45-.83,1.25-1.12,1.26a.38.38,0,0,1-.25-.09C284.58,379.76,285,375.24,285,375.24Z"/><path class="cls-14" d="M268.07,357.4c27.69-1.82,39,3.52,39,3.52a8.83,8.83,0,0,1,3.12,2.7l1.35,2.1c7.21,3.24-141.67,20.63-141.67,20.63-1.23.14-3.25.26-4.49.26H152.14c-1.23,0-2.25-.6-2.25-1.32s1-1.59,2.16-1.91C152.05,383.38,240.38,359.23,268.07,357.4Z"/></g></svg>