<svg id="Layer_5" data-name="Layer 5" xmlns="http://www.w3.org/2000/svg" width="500" height="500" viewBox="0 0 500 500"><defs><style>.cls-1{fill:#ffdb32;}.cls-2{fill:#ffb54b;}.cls-3{fill:#805b26;}.cls-4{fill:#402d13;}.cls-5{fill:#ff2300;}.cls-6{fill:#c84800;}.cls-7{fill:none;}.cls-8{fill:#ddb63a;}.cls-9{fill:#9b403b;}.cls-10{fill:#cbe5f4;}.cls-11{fill:#8bc9e6;}.cls-12{fill:#1d2f3a;}.cls-13{fill:#afc3cf;}.cls-14{fill:#00234a;}</style></defs><path class="cls-1" d="M183.8,361.94,170.4,351.2a2.87,2.87,0,0,1-1-2.09l.14-3.54a1.26,1.26,0,0,0-.31-.87l-60.22-2.36a2.64,2.64,0,0,0-.38.18l-20.08,10c-.64.31-.59.49.12.39l23.48-3.34c.71-.1.79.12.18.48l-10.61,6.33c-.59.36-.54.71.17.75L114,358c.71,0,.76.32.12.59l-10.82,4.89c-.65.29-.59.64.09.77l6.46,1.17c.7.13.89.68.43,1.18l-6.49,7.6c-.46.54-.29.78.38.55l19-6.86a.77.77,0,0,1,1,.26.74.74,0,0,1,.08.6l-.65,8.13q-.08,1.29,0,2.58l1.55,31.42c0,.71.13.71.22,0l2.23-18.81c.09-.71.26-.71.39,0l1.6,8.91a14.62,14.62,0,0,1,.17,2.56L128,443.17c0,.71.12.74.33.06l8.08-25.12c.21-.67.38-.64.36.07l-.86,42.46q0,1.07.12,0l8.37-75.24c.08-.7.2-.7.27,0l3.17,30.67c.08.7.2.7.27,0l4.59-44.52a1.17,1.17,0,0,1,1.31-1h.09l10.32,2.13c.69.14,1.09-.3.87-1l-1-3.2a.85.85,0,0,1,.44-1.12.89.89,0,0,1,.46-.06l8.92.35c.71,0,.83-.3.26-.73l-5.46-4.08c-.59-.42-.45-.75.26-.72l14.39.59C184.23,362.72,184.36,362.39,183.8,361.94Z"/><path d="M172,344.82a4.33,4.33,0,0,0,4.49-4.13l.36-9.11a36.94,36.94,0,0,0-.86-8.46l-3.79-15.25a35,35,0,0,1-.79-8.41L182.31,101.8a41.73,41.73,0,0,0-.59-8.5L177.9,73.53a73.86,73.86,0,0,0-2.19-8.26l-9.44-27.72a13.45,13.45,0,0,0-5.08-6.26l-1.66-1a9.46,9.46,0,0,0-7.67-.46l-.8.34A15.22,15.22,0,0,0,145,35.66l-6.36,11.28c-1.18,2.06-2.9,5.51-3.86,7.67L127,72.1a38.53,38.53,0,0,0-2.4,8.17l-4.07,26.47c-.35,2.36-.77,6.18-.92,8.53L108.16,297a83.63,83.63,0,0,1-1.07,8.5L101,337.79a3.6,3.6,0,0,0,2.75,4.3,3.44,3.44,0,0,0,.78.08l4.57.19,60.23,2.36ZM104,336.41l5.68-31.65c.42-2.32.88-6.15,1-8.51l11-178.44c.15-2.36.54-6.2.88-8.53l3.79-25.89a41.17,41.17,0,0,1,2.28-8.21l7.16-17c.91-2.18,2.57-5.67,3.67-7.76l5.78-10.92a15.31,15.31,0,0,1,4.39-4.71,3,3,0,0,1,2.12-1.18,9.08,9.08,0,0,1,6,.08,4.13,4.13,0,0,1,3,1.61.89.89,0,0,1,.14.35,13.82,13.82,0,0,1,3.94,5.65l8.54,27a82.14,82.14,0,0,1,2.06,8.32l3.43,19.24a44.05,44.05,0,0,1,.53,8.51L168.88,298.52c0,.69,0,1.5,0,2.36a3,3,0,0,1,.19.65,21.2,21.2,0,0,1,.28,4.13c.08.48.16.94.26,1.35L173,321.8a38.32,38.32,0,0,1,.79,8.48l-.34,8.81a4.33,4.33,0,0,1-4.49,4.13l-1.51-.06c-.14.4-.36.63-.64.62s-.52-.26-.67-.67l-11.2-.44a1,1,0,0,1-.81.19,1.1,1.1,0,0,1-.42-.24l-20-.78a1.33,1.33,0,0,1-1.1.59,1.48,1.48,0,0,1-1.08-.68L112.5,341c-.12.4-.27.64-.43.63s-.3-.25-.38-.66l-4.13-.16a3.65,3.65,0,0,1-3.62-3.69A4.05,4.05,0,0,1,104,336.41Z"/><path class="cls-2" d="M155.24,33.41c.68.09,1.6.11,2.52.25a9.08,9.08,0,0,0-6-.08A11.42,11.42,0,0,1,155.24,33.41Z"/><path class="cls-2" d="M111.67,337.32l.44-4.13c.25-2.36.51-2.36.59,0l.11,4.13a13,13,0,0,1-.3,3.63l19.06.75a5.93,5.93,0,0,1-.79-3.68l2.12-34.29c.15-2.36.34-2.36.43,0l1.3,34.44a5.71,5.71,0,0,1-.89,3.6l20,.78c-.79-.66-1.18-2.52-.92-4.52l4.31-31.66c.32-2.35.5-2.32.41,0l-1.3,32.64a4.91,4.91,0,0,1-1.28,3.6l11.21.44a5.2,5.2,0,0,1,0-2.54c.34-1.73.92-1.71,1.3.05a5.16,5.16,0,0,1,0,2.53l1.52.06a4.31,4.31,0,0,0,4.48-4.12l.35-8.82a39.53,39.53,0,0,0-.79-8.47l-3.4-14.8c-.09-.41-.18-.86-.26-1.34a29.17,29.17,0,0,1-.17,2.95s-2.7,23.55-2.81,24.77v0c.08-1.34,1.85-30.38,1.85-30.38.12-1.9.39-2.7.66-2.12,0-.87,0-1.67,0-2.36l10.56-194.16a44.14,44.14,0,0,0-.52-8.51L175.43,76.6a81.44,81.44,0,0,0-2.05-8.32l-8.5-27a13.87,13.87,0,0,0-4-5.65c.24,1.41-4.64.74-5.73.66s-5.66.73-5.67-1a1.1,1.1,0,0,1,.1-.47,15.46,15.46,0,0,0-4.39,4.72l-5.78,10.9c-1.1,2.09-2.76,5.58-3.67,7.76l-7.16,17a41,41,0,0,0-2.28,8.21l-3.76,25.89c-.34,2.35-.73,6.17-.88,8.52l-11,178.47a83.71,83.71,0,0,1-1,8.51L104,336.41a3.66,3.66,0,0,0,2.85,4.31,3.25,3.25,0,0,0,.69.08l4.13.16A12.68,12.68,0,0,1,111.67,337.32ZM129.33,73.85c.38-.7,1.76-.74,3.1-.1a21.09,21.09,0,0,0,5.78,1.52c1.84.19,5.31.48,7.66.65,0,0,9.48.66,9.49.23s2.63,0,2.63,0q4.26.64,8.56.87l.87,0a18.47,18.47,0,0,0,6.07-.62c1-.44,1.83-.21,1.92.51s-1.22,1.33-2.91,1.38-5,0-7.4-.07l-3.4-.13-8.62-.34-6-.23c-2.36-.1-6.23-.48-8.57-.86l-5.65-.9C130.55,75.41,128.94,74.54,129.33,73.85Zm-17.8,226.73c.33-2.23.63-2.13.67.23l.4,21.06c0,2.36-.08,2.36-.27,0l-1-13A45.26,45.26,0,0,1,111.53,300.58Z"/><path class="cls-3" d="M155.2,36.28c1.1.08,6,.75,5.74-.66a.89.89,0,0,0-.14-.35,4,4,0,0,0-3-1.61c-.92-.14-1.84-.16-2.52-.25a11.42,11.42,0,0,0-3.5.17,3,3,0,0,0-2.12,1.18,1,1,0,0,0-.1.46C149.53,37,154,36.18,155.2,36.28Z"/><path class="cls-3" d="M132.89,75.79l5.62.9c2.36.38,6.2.76,8.57.86l6,.23,8.62.34,3.4.13c2.36.09,5.7.12,7.4.07s3-.68,2.91-1.38-.95-1-1.92-.51a18.34,18.34,0,0,1-6.05.62l-.87,0q-4.31-.22-8.57-.87s-2.61-.43-2.62,0-9.49-.23-9.49-.23c-2.36-.17-5.82-.46-7.67-.65a21,21,0,0,1-5.76-1.52c-1.32-.64-2.72-.59-3.1.1S130.55,75.41,132.89,75.79Z"/><path class="cls-3" d="M112.6,321.87l-.4-21.06c0-2.36-.34-2.46-.67-.23a45.26,45.26,0,0,0-.25,8.31l1,13C112.52,324.26,112.64,324.23,112.6,321.87Z"/><path class="cls-3" d="M112.81,337.36l-.12-4.13c-.07-2.36-.33-2.36-.59,0l-.44,4.13a13.05,13.05,0,0,0,0,3.64c.09.41.22.65.39.66s.31-.23.43-.62A13.4,13.4,0,0,0,112.81,337.36Z"/><path class="cls-3" d="M134.62,338.22l-1.3-34.44c-.09-2.36-.28-2.36-.43,0l-2.12,34.28a6,6,0,0,0,.79,3.68,1.45,1.45,0,0,0,1.08.69,1.38,1.38,0,0,0,1.1-.59A5.72,5.72,0,0,0,134.62,338.22Z"/><path class="cls-3" d="M156.2,339.05l1.29-32.59c.09-2.36-.09-2.36-.41,0l-4.31,31.65c-.28,2,.13,3.87.92,4.53a1,1,0,0,0,.42.23,1,1,0,0,0,.81-.18A4.91,4.91,0,0,0,156.2,339.05Z"/><path class="cls-3" d="M168.22,303s-1.77,29-1.86,30.37c.12-1.22,2.82-24.77,2.82-24.77.1-1,.16-2,.17-3a21,21,0,0,0-.28-4.12,2.86,2.86,0,0,0-.19-.65C168.59,300.31,168.33,301.11,168.22,303Z"/><path class="cls-3" d="M166.36,333.39a0,0,0,0,1,0,0Z"/><path class="cls-3" d="M167.41,340.6c-.38-1.76-1-1.76-1.31-.05a5.2,5.2,0,0,0,0,2.54c.14.4.37.65.66.66s.51-.21.65-.62A5.41,5.41,0,0,0,167.41,340.6Z"/><path class="cls-4" d="M161.35,109.89l2.17.09a2.13,2.13,0,0,1,2.06,2.23h0a2.15,2.15,0,0,1-2.23,2.06l-2.17-.09a2.13,2.13,0,0,1-2.06-2.23h0A2.15,2.15,0,0,1,161.35,109.89Z"/><path class="cls-4" d="M169.11,110.19l.88,0a2.14,2.14,0,0,1,2.06,2.23h0a2.14,2.14,0,0,1-2.22,2.06l-.89,0a2.15,2.15,0,0,1-2.06-2.23h0A2.16,2.16,0,0,1,169.11,110.19Z"/><path class="cls-4" d="M175.58,110.45h0a2.15,2.15,0,0,1,2.07,2.23h0a2.16,2.16,0,0,1-2.23,2.06h0a2.15,2.15,0,0,1-2.06-2.23h0A2.13,2.13,0,0,1,175.58,110.45Z"/><path class="cls-4" d="M160.33,124.89l2.17.08a2.14,2.14,0,0,1,2.06,2.23h0a2.14,2.14,0,0,1-2.23,2.06l-2.17-.08A2.15,2.15,0,0,1,158.1,127h0A2.13,2.13,0,0,1,160.33,124.89Z"/><path class="cls-4" d="M168.09,125.19l.88,0a2.15,2.15,0,0,1,2.06,2.23h0a2.13,2.13,0,0,1-2.23,2.06l-.88,0a2.15,2.15,0,0,1-2.06-2.23h0A2.15,2.15,0,0,1,168.09,125.19Z"/><path class="cls-4" d="M174.55,125.44h0a2.16,2.16,0,0,1,2.06,2.23h0a2.15,2.15,0,0,1-2.23,2.06h0a2.15,2.15,0,0,1-2.06-2.23h0A2.15,2.15,0,0,1,174.55,125.44Z"/><path class="cls-5" d="M133.67,222.82l-.3-.06Z"/><path class="cls-5" d="M149,253.93c-.35,2.63-.93,5.5-2.8,7.52s-4.64,2.3-7.16,2c-2.82-.34-4.06-3.18-5.08-5.52-1.18-2.68,0-5.31-.62-8.06s-4.83-1.72-4.2,1c.42,1.88-.33,3.82-.06,5.74a17.11,17.11,0,0,0,2.27,5.69c1.83,3.32,4.26,5.34,8.17,5.5,3.54.16,7.07-.59,9.61-3.17,2.77-2.85,3.67-6.69,4.18-10.5C153.65,251.37,149.34,251.21,149,253.93Z"/><path class="cls-5" d="M156.69,233.84c-3.5-2.53-7.76-3-11.95-3.32l-.65,0a2.26,2.26,0,0,0-1.71-.12,23.6,23.6,0,0,1-4.26-.66c-2.31-.64-4.35-1.8-6.8-1.92-2.77-.13-2.94,4.13-.17,4.29,2.12.1,4,1.3,6,1.82a27.49,27.49,0,0,0,3.5.59,40.46,40.46,0,0,0-.59,7.38q-4.71-.71-9.39-1.32c-2.75-.37-2.9,3.93-.17,4.29q11.79,1.54,23.46,3.58c2.72.47,2.87-3.83.17-4.29-3.25-.57-6.5-1.1-9.75-1.61a37.13,37.13,0,0,1,.54-7.66c3.32.23,6.59.59,9.38,2.62C156.61,239.09,158.92,235.47,156.69,233.84Z"/><path class="cls-5" d="M139.82,224.7c2.47.73,5.06.53,7.53,1.15a51.86,51.86,0,0,1,7.57,3.1c2.54,1.11,3.83-3,1.31-4.09a52.83,52.83,0,0,0-7.57-3.1c-2.47-.64-5.07-.43-7.53-1.15C138.46,219.84,137.15,223.92,139.82,224.7Z"/><path class="cls-5" d="M133.43,225.19a2.73,2.73,0,0,0,2.67-.65,3,3,0,0,0,.8-2.36,4.36,4.36,0,0,0-.67-2.28,2.45,2.45,0,0,0-.29-.35,2.24,2.24,0,0,0-.75-.89,2.34,2.34,0,0,0-3,.36,4.25,4.25,0,0,0-1,2.26A3.37,3.37,0,0,0,133.43,225.19Zm-.06-2.43.3.06-.3,0Z"/><path class="cls-5" d="M157.44,205.51c-7.89-1.46-14.87-4.66-22.06-8.08-2.48-1.18-4.82,2.42-2.32,3.61a143.21,143.21,0,0,0,14.29,6.18l-3.37.89a50.58,50.58,0,0,0-11.51,4c-2.06,1.1-1.05,3.71.92,4,4,.67,8.39,1,12.31,2.2,3.67,1.12,6.49,3.44,10.57,2.65,2.72-.53,1.77-4.72-1-4.18-2,.4-3.86-.67-5.65-1.5a20.37,20.37,0,0,0-4.81-1.57c-1.05-.21-2.1-.4-3.15-.59,1.09-.31,2.18-.59,3.29-.87,3.81-.95,7.81-2.35,11.75-2.58C158.91,209.58,160,206,157.44,205.51Z"/><path class="cls-5" d="M158,198.46c-2.84-1.05-5.67-2.13-8.52-3.15a14.14,14.14,0,0,0,.19-4.21,22.49,22.49,0,0,1-.22-4,2.41,2.41,0,0,0,.4-.8,27.81,27.81,0,0,1,7.47,1.18c2.66.8,4-3.29,1.31-4.08a31.2,31.2,0,0,0-21.44,1.19c-1.82.78-4.79,1.87-5.52,3.91s1.4,3.91,2.69,5.31c1.7,1.81,3.65,2.33,6,3,5.55,1.63,10.95,3.73,16.36,5.75C159.29,203.52,160.59,199.43,158,198.46Zm-21.57-8.61a2.17,2.17,0,0,0,.29-.24c.41-.22.82-.44,1.23-.64a24.45,24.45,0,0,1,2.7-1.13,27.77,27.77,0,0,1,4.59-1.15c-.11,2.36.59,4.92.15,7.23-3-.87-7.06-1.46-8.94-4.07Z"/><path class="cls-6" d="M111.89,341.67c17.86,2.64,37.09-.66,55.43,2.17-2.8,1.81-3.9,3.54-7.24,5.11s-7.67,1.82-11,4.84-6.49,3.72-11.08,3.08-29.11-8.26-26.49-13.48S113.52,342.34,111.89,341.67Z"/><g id="Layer_2" data-name="Layer 2"><path class="cls-7" d="M355.49,333.35l-1.28,0,.82.12a21.05,21.05,0,0,0,2.5.2l.05-.2Z"/><path class="cls-7" d="M406.41,333.61c.47,0,.94,0,1.28-.06l.52,0-1.86.08Z"/><path class="cls-8" d="M415.9,333l-.58.05-3.65.25c-1,.07-2.17.14-3.43.2l-.53,0c-.36,0-.83,0-1.28.06a3,3,0,0,1,.78.53l1.28,1.25a4.26,4.26,0,0,1,1.09,2.3l.64,7.68a3.52,3.52,0,0,1-.79,2.35l-2.7,2.95a5.9,5.9,0,0,1-2.22,1.4l-7.82,2.37a9.24,9.24,0,0,0-2.38,1.22L387,361.22a2,2,0,0,1-2.22.07l-1.81-1.2a7.14,7.14,0,0,0-2.47-.94l-.49-.07a6.58,6.58,0,0,1-2.44-1l-4.6-3.36a14,14,0,0,0-2.35-1.34L362.65,350c-.69-.3-1.78-.84-2.44-1.21,0,0-2-1.13-2.44-1.36s-1.53-5.21-1.53-5.21a7.38,7.38,0,0,1,0-2.65l1.32-5.89a20.9,20.9,0,0,1-2.5-.21l-.83-.12c-2.26-.09-4.8-.2-6.11-.27a6.39,6.39,0,0,1-1-.11,14.75,14.75,0,0,0-1.55.75l2.93,5.53a2,2,0,0,1-.31,2.17L341,348.89c-.52.53-.34,1.07.4,1.18l9.09,1.4c.75.1.84.53.21.93,0,0-11.55,7.38-12,7.38s10,2.4,10,2.4a.83.83,0,0,1,.75.89.79.79,0,0,1-.24.5l-5.17,6.85c-.44.6-.23.9.48.64l17.36-5.49A.85.85,0,0,1,363,366a.87.87,0,0,1,.06.55l-.21,2.26c-.07.75.38,1,1,.57l2.3-1.6a.79.79,0,0,1,1.12,0,.77.77,0,0,1,.22.54l1.82,10.88c.13.73.34.73.49,0l.83-4.11c.14-.73.38-.73.51,0l3.13,16.73a17.11,17.11,0,0,1,.24,2.68l-.43,46.44c0,.74.38.89.87.32l.95-1.1c.49-.57,1.05-.44,1.25.28l7.67,27.6c.2.71.33.69.3,0l-1-20.74c0-.75.2-.8.52-.13l7,14.72c.32.64.57.64.55-.13l-.86-41.93c0-.74,0-2,.11-2.7L393,400.82c.07-.74.64-1,1.21-.51l4.2,3.28c.59.47,1,.23,1-.51l-1.24-27.52a17.13,17.13,0,0,1,.13-2.68l2.33-16.26a.94.94,0,0,1,1-.88.82.82,0,0,1,.41.12l8.88,4.24c.68.32,1.12,0,1-.75L411,353.9a1,1,0,0,1,.77-1.22,1.14,1.14,0,0,1,.37,0l10,.71c.74.05.95-.36.44-.91L415.78,345c-.51-.55-.31-.88.42-.73l8.21,1.7c.73.16.95-.2.48-.78L423,342.81a24.42,24.42,0,0,1-1.53-2.23l-.64-1.05a5.85,5.85,0,0,1-.68-2.56v-2.92a1.31,1.31,0,0,0,0-.28,16.08,16.08,0,0,0-2.91-.64Z"/><path class="cls-9" d="M402.62,333.71h-.47c.32.75.64,1.51.85,2.17a21.57,21.57,0,0,1,1,5.51c0,1.38-1.59,2.74-3.53,3a35.73,35.73,0,0,1-6.54.25c-1.66-.14-3.13-1.28-3.27-2.51a18.31,18.31,0,0,1,1.36-6.46l.7-1.82-5.87.09c.28.64.54,1.34.74,1.92a21.57,21.57,0,0,1,1,5.51c0,1.38-1.58,2.73-3.52,3a36.32,36.32,0,0,1-6.59.27c-1.66-.14-3.14-1.28-3.27-2.5a18.35,18.35,0,0,1,1.36-6.47l.64-1.67c-1.16,0-2.27,0-3.16-.06l-1.28,0c.29.68.56,1.37.75,2a21,21,0,0,1,1,5.51c0,1.37-1.58,2.73-3.52,3a35,35,0,0,1-6.55.25c-1.66-.14-3.13-1.28-3.27-2.5a18.35,18.35,0,0,1,1.36-6.47l.79-2.05-4.7-.17-1.06,0-.05.2-1.3,5.91a7.86,7.86,0,0,0,0,2.65s1.08,5,1.53,5.21,2.45,1.36,2.45,1.36c.64.37,1.74.91,2.43,1.21l7.93,3.43a15.06,15.06,0,0,1,2.34,1.34l4.61,3.36a6.31,6.31,0,0,0,2.43,1l.49.07a7.32,7.32,0,0,1,2.48.94l1.81,1.21a2.06,2.06,0,0,0,2.21-.07l7.36-5.57a9.24,9.24,0,0,1,2.38-1.22l7.82-2.37a5.75,5.75,0,0,0,2.22-1.4l2.7-2.95a3.47,3.47,0,0,0,.79-2.35l-.64-7.68a4.32,4.32,0,0,0-1.08-2.3l-1.28-1.25a3.7,3.7,0,0,0-.78-.53h0Z"/><path d="M307,346.94c.77-2.36,2.08-6.2,2.91-8.54l2.42-6.83c.51-1.41,1.28-3.34,2.11-5.12l.77-2.17-.82,1.57a77.3,77.3,0,0,0-3.61,8.24l-2.52,7.13c-.84,2.34-2.15,6.18-2.92,8.54l-4.12,12.56c-.05.18-.12.35-.17.52l2.61-5.64Z"/><path d="M378.2,328.87h4.74l-1.62-.05c-2.5-.07-6.57-.07-9.06,0l-8,.24c2.49-.07,6.57-.14,9.06-.16Z"/><path d="M466.9,367.42l-23.75-66c-.84-2.33-2.11-6.19-2.81-8.57l-4.82-16.17a76.32,76.32,0,0,0-3.2-8.42l-5-10.64a37.36,37.36,0,0,1-2.56-8.54l-1.4-9a79.46,79.46,0,0,0-2-8.77l-.17-.56a44.75,44.75,0,0,1-1.53-8.82v-.19c-.13-2.48-.19-6.53-.15-9l.31-18.56c0-2.47.08-6.53.08-9v-7a43.94,43.94,0,0,0-.93-8.41,41.05,41.05,0,0,1-.87-8.49l.29-14.89c.05-2.48,0-6.53-.17-9l-.41-7.09a81.11,81.11,0,0,0-1.12-8.92l-1.87-9.56c-.47-2.43-1.28-6.4-1.82-8.83l-2.36-11a70.42,70.42,0,0,0-2.56-8.62l-2.78-7.18A81.73,81.73,0,0,0,401.56,68l-4-7.21c-1.2-2.18-3.23-5.69-4.53-7.82l-.37-.6c-1.28-2.12-3.4-4.27-4.67-4.77a11.91,11.91,0,0,0-5.27-.46,13.5,13.5,0,0,0-5.76,3,23.16,23.16,0,0,0-4.63,6.66l-4.23,9.66c-1,2.27-2.6,6-3.57,8.32l-3.88,9.15c-1,2.25-2.38,6.09-3.11,8.44l-6.09,19.4a65.94,65.94,0,0,0-2,8.78l-2,14.07c-.35,2.45-.72,6.49-.82,9l-1,24.09c-.11,2.48-.19,6.53-.19,9V223c0,2.48-.52,5.19-1.16,6s-.82,3.51-.41,5.95a13.29,13.29,0,0,1,.18,1.53c0,.46-2,11.2-2,11.2a28.47,28.47,0,0,1-2.2,7,44.62,44.62,0,0,0-2.68,6.85l-2.72,9,1.28-3.31s1.08-2.72,2-5.24l.48-1.57c.23-.79.53-1.67.85-2.56a9.22,9.22,0,0,1,1.1-2.79c.26-.58.5-1.09.71-1.47a29,29,0,0,0,2.17-6.92s1.92-10.44,1.92-10.88a13.52,13.52,0,0,0-.16-1.41c-.41-2.44-.24-5.12.38-5.92a2.3,2.3,0,0,0,.23-.4h0a6.12,6.12,0,0,1,.64-2.26,20.32,20.32,0,0,0,.28-3.3v-45.3c0-2.47.08-6.53.19-9l1-23.45c.05-1.22.16-2.81.31-4.41a.49.49,0,0,1-.12-.55,7.41,7.41,0,0,1,.25-.8c.12-1.17.25-2.3.37-3.2l1.92-13.61a67.77,67.77,0,0,1,2-8.77l5.89-18.91c.74-2.37,2.14-6.18,3.1-8.47L365,77.2c1-2.28,2.56-6,3.57-8.32l4.11-9.28A22.54,22.54,0,0,1,377.29,53,13.39,13.39,0,0,1,383,50.06a11.58,11.58,0,0,1,5.16.45c1.25.49,3.33,2.63,4.63,4.75l.27.45c1.28,2.12,3.33,5.64,4.52,7.81l3.84,6.93a78.59,78.59,0,0,1,3.79,8.17l2.63,6.9a71.63,71.63,0,0,1,2.55,8.62l2.3,10.58c.53,2.41,1.34,6.39,1.82,8.83l1.76,9.18a81.11,81.11,0,0,1,1.12,8.92l.39,6.78v.21a2.77,2.77,0,0,1,.48,1.13c.07.53-.09.76-.4.74.08,2.3.12,5.06.08,6.93l-.28,14.43a40.83,40.83,0,0,0,.82,8.32,43,43,0,0,1,.9,8.31v6.84c0,2.47,0,6.53-.07,9l-.3,18c0,2.49,0,6.54.15,9h0a43.78,43.78,0,0,0,1.59,8.81l.11.38a77.74,77.74,0,0,1,2,8.77l1.35,8.68a37.36,37.36,0,0,0,2.56,8.54l4.79,10.31a71.68,71.68,0,0,1,3.2,8.41l4.68,15.7c.71,2.38,2,6.23,2.82,8.57l23.22,64.54c.85,2.34,1.28,4.86,1,5.6s-2.18,1.33-4.22,1.35h0a10,10,0,0,1-7.36-2.87L451,364c-.77-.83-1.75-1.92-2.75-3L443,355.75c-1.76-1.75-4.53-4.73-6.16-6.6l-10.11-11.7c-.56-.55-1.1-1.07-1.56-1.5l-1.1-1a9.33,9.33,0,0,1-1.51-1.92,10.22,10.22,0,0,0-1.12-.95,3.76,3.76,0,0,0-.76-.42c.07.37,0,.67-.22.78a27.65,27.65,0,0,1-4.54.59l1.28.14a15.28,15.28,0,0,1,2.91.64,7.69,7.69,0,0,1,1.89.86,37.22,37.22,0,0,1,4.57,4.57l11.18,12.93c1.64,1.88,4.41,4.85,6.17,6.6l12.51,12.47a11.86,11.86,0,0,0,7.07,3.2c2.13,0,4.1-.64,4.4-1.38S467.74,369.76,466.9,367.42Z"/><path d="M345.27,331.87a8.08,8.08,0,0,0-1.1.93l-8.37,8.59-6.22,6.93-.46.58-4.39,5.53a39.71,39.71,0,0,1-6.4,6.23L312,365.25l-.32.23-.39.34a22.53,22.53,0,0,1-5.84,3.64h-.05c-1.62.87-3.84,1-4.93.24l-.1,0a2.38,2.38,0,0,1-.41-.23c-.6-.46-.69-1.78-.32-3.31a28.13,28.13,0,0,1-1.5,3,2.91,2.91,0,0,0,.46,3.9c1.1.75,3.37.64,5-.23a69,69,0,0,0,6.65-4.28l6.56-4.78a39.48,39.48,0,0,0,6.45-6.21l4.57-5.76c1.54-2,4.22-5,6-6.78l9.39-9.6a10.09,10.09,0,0,1,2.31-1.69,13.5,13.5,0,0,1,1.56-.8C346.07,332.72,345.3,332.31,345.27,331.87Z"/><path class="cls-10" d="M320.37,357.81l-8.68,7.68.32-.23,6.32-4.6a39.71,39.71,0,0,0,6.4-6.23l4.37-5.53.46-.58-2.81,3.14A83.11,83.11,0,0,1,320.37,357.81Z"/><path class="cls-10" d="M339.18,257.87c-.32.87-.64,1.74-.85,2.56l-.48,1.57a26.59,26.59,0,0,0,1.32-4.08Z"/><path class="cls-10" d="M300.41,369.68l0,0c1.1.74,3.32.64,4.94-.23h0l-.72.25A7.33,7.33,0,0,1,300.41,369.68Z"/><path class="cls-10" d="M344.38,253.8a20.24,20.24,0,0,1,1.59,7.63v64.09a13.69,13.69,0,0,1-3,7.88l-7.16,8,8.37-8.58a8.27,8.27,0,0,1,1.1-.94h0a2.15,2.15,0,0,1,1-1.66,19.13,19.13,0,0,1,5.56-.76l12.41-.38h0l8-.24c2.49-.08,6.56-.08,9.06,0l1.62.05h20.27c2.49,0,6.56.16,9,.36l.64.05a9,9,0,0,1-.56-4l.58-16.91c.09-2.48.3-2.48.46,0l1.15,16.92a8.43,8.43,0,0,1-.49,4.07l1.28.1c2.49.2,4.8.88,5.12,1.51a1.84,1.84,0,0,1,.24.64,4.28,4.28,0,0,1,.76.41,12.87,12.87,0,0,1,1.12,1,12,12,0,0,1-1.8-5.69V259.25c0-2.48.73-5.42,1.61-6.54l1.61-2,.86,1.35.23.64,1.76,4.9L465,363.65a27.32,27.32,0,0,1,1.53,5.6c0,.75-1.92,1.55-4.29,1.8,2,0,3.93-.64,4.21-1.35s-.16-3.26-1-5.6l-23.23-64.54c-.84-2.34-2.1-6.19-2.81-8.57l-4.68-15.7a73.5,73.5,0,0,0-3.2-8.41l-4.8-10.31a38.39,38.39,0,0,1-2.56-8.54l-1.34-8.68a77.74,77.74,0,0,0-2-8.77l-.12-.38a45.36,45.36,0,0,1-1.53-8.82h0c-.12-2.48-.19-6.53-.15-9l.31-18c0-2.48.07-6.54.07-9v-6.77a44.7,44.7,0,0,0-.9-8.32,39.4,39.4,0,0,1-.82-8.32l.27-14.43c0-1.86,0-4.62-.07-6.93a2.17,2.17,0,0,1-1.14-.73,13.11,13.11,0,0,0-4.54-2.7c-1.52-.5-4.4-1.28-6.4-1.81s-5.16-1.16-7-1.49-1.36-.58,1.14-.58h1.28a31,31,0,0,1,8.49,1.38c2.17.76,4.94,1.83,6.16,2.39a4.83,4.83,0,0,1,2,1.68v-.22l-.38-6.77a81.85,81.85,0,0,0-1.19-9l-1.79-9.18c-.48-2.43-1.28-6.4-1.81-8.83l-2.29-10.58a69.9,69.9,0,0,0-2.56-8.62l-2.65-6.9a80.71,80.71,0,0,0-3.79-8.17l-3.84-6.93c-1.19-2.17-3.2-5.69-4.52-7.81l-.28-.45c-1.28-2.12-3.38-4.26-4.63-4.75a11.57,11.57,0,0,0-5.16-.45A13.45,13.45,0,0,0,377.24,53a22.84,22.84,0,0,0-4.52,6.61l-4.08,9.31c-1,2.28-2.61,6-3.58,8.32l-3.73,8.82c-1,2.29-2.36,6.1-3.11,8.47l-5.91,18.88a67.14,67.14,0,0,0-2,8.75l-1.92,13.61c-.13.91-.25,2-.37,3.2.22-.59.48-1,.64-1a41,41,0,0,0,4.53-1.8,33.13,33.13,0,0,1,7.67-2.26c2-.24,5.66-.64,8.14-.92l4.12-.42c2.48-.25,2.49-.19,0,.15l-1,.13a66.67,66.67,0,0,0-8.82,1.92l-4.47,1.39a49.15,49.15,0,0,0-7.89,3.4c-1.48.83-2.65,1.1-3,.77-.15,1.6-.26,3.2-.31,4.41l-1,23.45c-.1,2.48-.18,6.54-.18,9v45.26a20.24,20.24,0,0,1-.29,3.3,9.36,9.36,0,0,1,.85-1.47,5,5,0,0,1,3.4-2,6.77,6.77,0,0,1,3.77,1.61c1,.86,1.68,3.6,1.53,6.08l-.34,5.42c-.16,2.48-.23,6.53-.18,9l.69,29.35c.06,2.48.11,6.54.11,9V311.1c0,2.47-.08,2.47-.18,0l-3.29-80.26c-.1-2.48-.69-4.7-1.32-5s-2.14.51-3.42,1.68-2.23,1.37-2.26.48a1.74,1.74,0,0,1-.23.4c-.64.81-.8,3.48-.39,5.93a11.06,11.06,0,0,1,.16,1.41c0,.45-1.92,10.88-1.92,10.88a28.11,28.11,0,0,1-2.17,6.92c-.21.37-.44.88-.7,1.47.15-.3.27-.49.27-.49C341.79,252.44,343.51,252.09,344.38,253.8Zm67.75,2.7V227.2a4.17,4.17,0,0,1,1.81-3.07c1-.64,3.45-.64,5.44,0v.45c0,1.59-.64,2.52-1.44,2.06a3.22,3.22,0,0,0-2.9,0c-.79.46-1.44,2.32-1.44,4.14s.08,5.32.16,7.81c0,0,.4,11.08-.16,12.06s.56,12.51,0,13.51-.21,30.79-.21,30.79c0,2.48,0,2.48-.15,0l-.91-20.33c-.11-2.48-.2-6.54-.2-9Zm-33-125.06a11.58,11.58,0,0,1,4.08-.68,12.51,12.51,0,0,1,4.16.68c.84.37-.52.67-3,.67h-6C378,132.11,378.34,131.81,379.12,131.44ZM365.34,169l1.59-.7a2.31,2.31,0,0,1,2.26.35l2.5,2.25a12.49,12.49,0,0,0,2.23,1.51l3,1.49a7.83,7.83,0,0,0,2.56.68l6.35.31a6.45,6.45,0,0,0,2.56-.53l3.91-2a2.42,2.42,0,0,0,1.22-2v-2.25a3.62,3.62,0,0,0-1-2.29l-2.08-2a6,6,0,0,0-2.3-1.28l-7.36-1.83a17.17,17.17,0,0,0-2.68-.41l-4.53-.28a7.6,7.6,0,0,1-2.56-.73l-2.6-1.42a2.5,2.5,0,0,1-1.2-2v-1.81a3.53,3.53,0,0,1,1-2.26l2.55-2.22a12.49,12.49,0,0,1,2.21-1.54l4.4-2.34a6.67,6.67,0,0,1,2.56-.64h5.54c.75,0,2,.07,2.72.16l4.91.58c.74.09,2,.16,2.7.16h2.27a2.12,2.12,0,0,1,1.84,1.28l.4,1.07a1.79,1.79,0,0,1-.64,2l-1.81,1.21a5.35,5.35,0,0,1-2.49.74h-3a6.41,6.41,0,0,1-2.56-.64l-3.62-1.92a6.71,6.71,0,0,0-2.56-.64h-5.24a3.21,3.21,0,0,0-2.2,1.06l-1.22,1.5a1.9,1.9,0,0,0-.06,2.15l.68,1a3.29,3.29,0,0,0,2.15,1.19l9.52.71a6.13,6.13,0,0,1,2.5.84l5.42,3.48a5.35,5.35,0,0,1,1.69,2L399,167.8a4.39,4.39,0,0,1,.17,2.56l-1.06,3.71a3.8,3.8,0,0,1-1.56,2l-4,2.26a7.23,7.23,0,0,1-2.56.77l-9.07.7a10,10,0,0,1-2.67-.22l-4.61-1.15a8,8,0,0,1-2.4-1.16L367,174a7.19,7.19,0,0,1-1.68-2l-.59-1.19a1.28,1.28,0,0,1,.56-1.72Zm11.9,31c-.25-1.36-2-3.59-3.84-5a50.08,50.08,0,0,1-6.44-5.82l-1.23-1.38c-1.66-1.85-2.71-3.94-2.34-4.64a3,3,0,0,1,2.28-1.35,4.63,4.63,0,0,1,2.72.82l3.39,2.71a43.46,43.46,0,0,1,4.31,4,13.13,13.13,0,0,0,5.43,3.16c1.88.49,4.53-.64,5.9-2.48s3.71-4.73,5.21-6.37,3.55-3.2,4.57-3.39a2.67,2.67,0,0,1,2.72,1.18,3,3,0,0,1-.49,3.16c-.75.87-2.49,2.91-3.84,4.51a19.91,19.91,0,0,0-3.2,5,5.83,5.83,0,0,0,0,3.6,20.18,20.18,0,0,0,1.81,3.16c.64.87,2.05,2.59,3.2,3.84a28.75,28.75,0,0,1,3.84,6.2c1,2.18,2.32,5.2,2.95,6.72a15.23,15.23,0,0,1,1.16,3.9,4,4,0,0,1-1.13,2.31c-.64.64-1.85.31-2.72-.68a28.46,28.46,0,0,1-3.4-5.94l-.91-2.1a47.44,47.44,0,0,0-4.3-7.52,15.86,15.86,0,0,0-4.53-4.28,5.37,5.37,0,0,0-4.31.45,19.81,19.81,0,0,0-4.75,5.12l-2.74,4.18c-1.37,2.08-3.64,5.44-5.07,7.48l-2.07,3c-1.42,2-3.2,3.7-3.95,3.72a4.59,4.59,0,0,1-2.49-.91,3.13,3.13,0,0,1-1.13-1.32,20,20,0,0,1,1.81-3.38c1-1.64,3-4.65,4.4-6.68l2.07-3c1.42-2,3.71-5,5.08-6.63S377.49,201.33,377.24,200ZM356.32,325.42c.22-2,.42-3.89.46-4.23s.54,1.28,1.12,3.61.37,4.23-.46,4.23S356.11,327.39,356.32,325.42Z"/><path class="cls-10" d="M431.47,342.4c-1.24-1.37-3.13-3.33-4.76-4.94l10.11,11.68c1.63,1.88,4.4,4.85,6.16,6.61l5.27,5.24c-1.21-1.32-2.43-2.67-3.34-3.68Z"/><path class="cls-10" d="M309.86,338.4c-.83,2.34-2.14,6.18-2.91,8.54l-3.34,10.26,1.05-2.3a63.91,63.91,0,0,0,3-8.38c.64-2.36,1.81-6.2,2.63-8.54l4.08-11.51c-.81,1.78-1.6,3.71-2.11,5.11Z"/><path class="cls-11" d="M300,369.45a2.13,2.13,0,0,0,.42.23,7.29,7.29,0,0,0,4.29,0l.73-.25a23.12,23.12,0,0,0,5.83-3.62l.39-.34,8.68-7.68a85.34,85.34,0,0,0,6.4-6.36l2.81-3.13,6.21-6.94,7.16-8a13.68,13.68,0,0,0,3-7.88V261.43a20.23,20.23,0,0,0-1.58-7.63c-.87-1.71-2.59-1.36-3.83.8,0,0-.12.19-.27.48a9.07,9.07,0,0,0-1.11,2.79h0a26.25,26.25,0,0,1-1.32,4.08c-.93,2.53-2,5.25-2,5.25l-1.28,3.3c-.69,1.81-1.42,3.74-1.92,5.12l-5.49,15c-.86,2.32-2.24,6.14-3.07,8.49l-8.92,25.18-.77,2.18L310.31,338c-.82,2.34-2,6.18-2.63,8.54a63.66,63.66,0,0,1-3,8.4l-1.05,2.3L301,362.84l-.64,1.35a10.86,10.86,0,0,0-.64,1.95C299.34,367.7,299.43,369,300,369.45Z"/><path class="cls-11" d="M466.52,369.25a27.32,27.32,0,0,0-1.53-5.6L426.82,257.58l-1.76-4.9-.24-.64-.86-1.35-1.61,2c-.88,1.12-1.6,4.06-1.6,6.54v68.06a11.84,11.84,0,0,0,1.79,5.69,9.07,9.07,0,0,0,1.51,1.92l1.1,1c.47.44,1,1,1.56,1.51,1.63,1.61,3.52,3.57,4.76,4.94l13.44,14.92,3.33,3.68c1,1.1,2,2.18,2.75,3l3.84,4.18a10,10,0,0,0,7.37,2.87h0C464.59,370.8,466.52,370,466.52,369.25Z"/><path class="cls-12" d="M365.3,171.9a7.23,7.23,0,0,0,1.68,2l4.2,3.29a8,8,0,0,0,2.4,1.16l4.61,1.15a10,10,0,0,0,2.67.22l9.07-.7a7.23,7.23,0,0,0,2.56-.77l4-2.27a3.74,3.74,0,0,0,1.55-2l1.07-3.71a4.39,4.39,0,0,0-.17-2.56l-2.09-4.73a5.08,5.08,0,0,0-1.68-2l-5.42-3.49a6.34,6.34,0,0,0-2.5-.84l-9.52-.7a3.3,3.3,0,0,1-2.15-1.2l-.71-.88a1.92,1.92,0,0,1,.07-2.15l1.21-1.5a3.2,3.2,0,0,1,2.21-1.05h5.26a6.47,6.47,0,0,1,2.55.63l3.63,1.92a6.32,6.32,0,0,0,2.56.64h3a5.31,5.31,0,0,0,2.48-.74l1.82-1.21a1.79,1.79,0,0,0,.64-2l-.4-1.07a2.12,2.12,0,0,0-1.84-1.28h-2.26c-.75,0-2-.07-2.71-.16l-4.91-.58c-.74-.09-2-.16-2.71-.16H380a6.67,6.67,0,0,0-2.56.64l-4.4,2.34a13,13,0,0,0-2.2,1.47l-2.52,2.24a3.52,3.52,0,0,0-1,2.26V156a2.52,2.52,0,0,0,1.2,2l2.6,1.42a7.6,7.6,0,0,0,2.56.73l4.53.28a17.35,17.35,0,0,1,2.68.41l7.36,1.83a6.08,6.08,0,0,1,2.3,1.28l2.08,2a3.56,3.56,0,0,1,1,2.29v2.25a2.38,2.38,0,0,1-1.21,2l-3.91,2a6.45,6.45,0,0,1-2.56.53l-6.35-.31a7.83,7.83,0,0,1-2.56-.68l-3-1.49a12.49,12.49,0,0,1-2.23-1.51l-2.51-2.25a2.26,2.26,0,0,0-2.25-.35l-1.59.7a1.28,1.28,0,0,0-.68,1.68s0,0,0,.08Z"/><path class="cls-12" d="M370.12,212l-2.07,3c-1.43,2-3.41,5-4.41,6.68a21.26,21.26,0,0,0-1.8,3.36c0,.22.51.81,1.13,1.32a4.57,4.57,0,0,0,2.49.9c.75,0,2.53-1.68,4-3.72l2.07-3c1.43-2,3.71-5.4,5.07-7.47l2.75-4.18a19.8,19.8,0,0,1,4.74-5.12,5.38,5.38,0,0,1,4.31-.45,15.86,15.86,0,0,1,4.53,4.28,47.44,47.44,0,0,1,4.3,7.52l.91,2.1a29.38,29.38,0,0,0,3.4,5.94c.87,1,2.09,1.28,2.72.68a4,4,0,0,0,1.13-2.31,15,15,0,0,0-1.14-3.93c-.64-1.52-1.95-4.54-2.94-6.72a29.89,29.89,0,0,0-3.84-6.21c-1.12-1.23-2.56-3-3.2-3.83a20.7,20.7,0,0,1-1.82-3.16,6,6,0,0,1,0-3.6,20,20,0,0,1,3.2-5l3.84-4.51a3.05,3.05,0,0,0,.49-3.17,2.68,2.68,0,0,0-2.72-1.17c-1,.22-3.08,1.74-4.57,3.39s-3.84,4.48-5.21,6.37-4,3-5.89,2.48a13.16,13.16,0,0,1-5.44-3.16,44.49,44.49,0,0,0-4.3-4.05l-3.4-2.71a4.72,4.72,0,0,0-2.72-.83,3,3,0,0,0-2.27,1.35c-.37.71.68,2.8,2.33,4.65l1.22,1.43a50,50,0,0,0,6.4,5.85c1.87,1.36,3.6,3.59,3.84,4.95s-.64,3.8-2,5.42S371.54,210,370.12,212Z"/><path d="M362.54,335.71a18.51,18.51,0,0,0-1.37,6.46c.14,1.23,1.62,2.37,3.28,2.51a36.75,36.75,0,0,0,6.55-.25c1.92-.28,3.52-1.63,3.52-3a21.09,21.09,0,0,0-1-5.51c-.2-.64-.47-1.28-.75-2h-.37c.29.68.56,1.38.77,2a19,19,0,0,1,.91,5c0,1.24-1.43,2.45-3.2,2.7a33.18,33.18,0,0,1-5.89.23c-1.5-.13-2.83-1.14-3-2.26a18.44,18.44,0,0,1,1.39-6.24l.4-1c.07-.2.16-.39.25-.59h-.77Z"/><path class="cls-12" d="M363.45,335.28a18.19,18.19,0,0,0-1.39,6.25c.13,1.12,1.45,2.12,2.94,2.25a33.1,33.1,0,0,0,5.89-.22c1.75-.25,3.2-1.47,3.2-2.71a18.63,18.63,0,0,0-.91-5c-.2-.64-.48-1.28-.77-2l-4.66-.14-3.63-.11c-.09.19-.17.38-.25.58Z"/><path d="M375.23,342.15c.13,1.24,1.61,2.37,3.27,2.51a36.67,36.67,0,0,0,6.54-.25c1.92-.28,3.53-1.63,3.53-3a21.17,21.17,0,0,0-1-5.51c-.2-.59-.46-1.28-.74-1.92h-.36c.28.64.55,1.34.75,1.92a19,19,0,0,1,.9,5c0,1.24-1.42,2.46-3.16,2.71a33.25,33.25,0,0,1-5.9.22c-1.49-.13-2.82-1.14-2.94-2.25a18.66,18.66,0,0,1,1.38-6.25l.4-1A.68.68,0,0,1,378,334h-.75l-.64,1.67A18.22,18.22,0,0,0,375.23,342.15Z"/><path class="cls-12" d="M377.49,335.28a18.37,18.37,0,0,0-1.38,6.25c.13,1.12,1.45,2.12,2.94,2.25a33.25,33.25,0,0,0,5.9-.22c1.74-.25,3.16-1.47,3.16-2.71a19,19,0,0,0-.9-5c-.2-.59-.47-1.28-.75-1.92l-3.33,0H378a.68.68,0,0,1-.09.22Z"/><path d="M390.63,342.15c.14,1.24,1.62,2.37,3.27,2.51a36.75,36.75,0,0,0,6.55-.25c1.92-.28,3.53-1.63,3.53-3a21.59,21.59,0,0,0-1-5.51c-.22-.64-.52-1.43-.84-2.17h-.37c.33.73.64,1.5.86,2.16a19.1,19.1,0,0,1,.9,5c0,1.24-1.43,2.46-3.17,2.71a32.19,32.19,0,0,1-5.89.22c-1.5-.12-2.82-1.13-2.94-2.25a18.62,18.62,0,0,1,1.38-6.24l.4-1c.05-.12.1-.26.16-.39h-.77l-.69,1.87A18.1,18.1,0,0,0,390.63,342.15Z"/><path class="cls-12" d="M392.9,335.28a18.37,18.37,0,0,0-1.38,6.25c.12,1.12,1.44,2.12,2.94,2.25a33.1,33.1,0,0,0,5.89-.22c1.74-.25,3.17-1.47,3.17-2.71a19,19,0,0,0-.9-5c-.23-.64-.53-1.43-.86-2.17l-8.32.13-.16.39Z"/><path class="cls-13" d="M347.76,227.57c1.28-1.18,2.78-1.92,3.4-1.7s1.22,2.48,1.32,5l3.26,80.25c.1,2.48.18,2.48.18,0V282.74c0-2.48-.05-6.54-.11-9l-.69-29.35c-.06-2.48,0-6.53.17-9l.35-5.42c.15-2.48-.54-5.22-1.53-6.08a6.75,6.75,0,0,0-3.74-1.58,5,5,0,0,0-3.4,2,8.22,8.22,0,0,0-.84,1.47,5.93,5.93,0,0,0-.64,2.26h0C345.55,229,346.55,228.75,347.76,227.57Z"/><path class="cls-13" d="M357.44,329c.83,0,1-1.92.46-4.23s-1.08-4-1.12-3.61-.24,2.24-.46,4.23S356.62,329,357.44,329Z"/><path class="cls-13" d="M413.24,294.91c.11,2.47.18,2.47.15,0,0,0-.35-29.79.21-30.79s-.56-12.53,0-13.51.16-12.07.16-12.07c-.08-2.48-.16-6-.16-7.8s.64-3.68,1.44-4.14a3.22,3.22,0,0,1,2.9,0c.8.46,1.44-.47,1.44-2.06v-.45c-2-.61-4.44-.58-5.44,0a4.15,4.15,0,0,0-1.81,3.06v38.36c0,2.49.09,6.54.2,9Z"/><path class="cls-13" d="M414.49,325.3l-1.15-16.92c-.16-2.47-.37-2.47-.46,0l-.59,16.91a9,9,0,0,0,.57,4l1.14.1A8.43,8.43,0,0,0,414.49,325.3Z"/><path class="cls-13" d="M351,139.55a49.75,49.75,0,0,1,8-3.37l4.47-1.38a66.67,66.67,0,0,1,8.82-1.92l1-.13c2.47-.34,2.46-.41,0-.15l-4.12.42c-2.48.26-6.14.67-8.14.92a33.13,33.13,0,0,0-7.67,2.26,39.85,39.85,0,0,1-4.58,1.79c-.18,0-.43.41-.64,1a7.41,7.41,0,0,0-.25.8.49.49,0,0,0,.12.55C348.3,140.65,349.47,140.38,351,139.55Z"/><path class="cls-13" d="M415.81,137c-1.21-.55-4-1.63-6.16-2.38a30.58,30.58,0,0,0-8.49-1.38h-1.28c-2.5,0-3,.26-1.13.58s5,1,7,1.49,4.87,1.28,6.39,1.8a13.33,13.33,0,0,1,4.54,2.7,2.19,2.19,0,0,0,1.14.74c.31,0,.47-.21.4-.74a2.77,2.77,0,0,0-.48-1.13A5.08,5.08,0,0,0,415.81,137Z"/><path class="cls-13" d="M378.35,132.11h6c2.5,0,3.84-.3,3-.67a12.51,12.51,0,0,0-4.16-.68,11.58,11.58,0,0,0-4.08.68C378.34,131.81,378,132.11,378.35,132.11Z"/><path class="cls-14" d="M415.29,329.47l-1.28-.11-1.13-.09-.64,0c-2.49-.2-6.56-.37-9.05-.37H373.35c-2.49,0-6.57.09-9.06.16h0l-12.41.39a18.88,18.88,0,0,0-5.56.75,2.19,2.19,0,0,0-1.05,1.72h0c0,.43.8.84,1.87,1a6.26,6.26,0,0,0,1,.11c1.28.07,3.84.18,6.12.27l1.28,0,2.11.07,1.06,0,4.66.17h.77l3.63.11,4.66.14h.38l1.28,0c.89,0,2,0,3.16.06h5.87l3.33-.05h.37l5.88-.1h.77l8.31-.12h.86c1.05,0,2.38-.06,3.76-.12l1.86-.08c1.28-.06,2.47-.13,3.44-.2l3.64-.26.59,0a27.94,27.94,0,0,0,4.54-.59c.21-.11.28-.41.22-.78a1.84,1.84,0,0,0-.24-.64C420.07,330.35,417.78,329.67,415.29,329.47Z"/><path class="cls-12" d="M380.93,273.33Z"/><path class="cls-12" d="M380.94,265.05c1.63,1.68,4.05,2.35,6,.76,1.7-1.39,2.2-3.84,2.25-5.91a58.12,58.12,0,0,0-.7-7.76,1.4,1.4,0,0,0-1.36-1.35,1.36,1.36,0,0,0-1.36,1.35c.23,2,.51,4,.64,6,.12,1.69.13,3.63-.77,5a2.21,2.21,0,0,1-.49.57,1.15,1.15,0,0,1-.64.27,2.51,2.51,0,0,1-1.71-1,9.53,9.53,0,0,1-2-4.28,45.86,45.86,0,0,0-1.68-6.34,1.41,1.41,0,0,0-1.67-1,1.37,1.37,0,0,0-.95,1.67C378.09,257.1,377.79,261.83,380.94,265.05Z"/><path class="cls-12" d="M382.21,286.72a11.85,11.85,0,0,0,5.19-.91,7.31,7.31,0,0,0,3.84-2.66c.93-1.59.45-3.46-.36-5a6.2,6.2,0,0,0-3.59-3,31.41,31.41,0,0,0-4-.64,5.48,5.48,0,0,1-1.67-.51,1.53,1.53,0,0,1-.55-.39l-.07-.11.09-.05a5.77,5.77,0,0,1,.56-.27,10.13,10.13,0,0,1,1.2-.44,10.64,10.64,0,0,1,2.44-.47,12,12,0,0,1,5.17.74,1.36,1.36,0,1,0,.87-2.57l-.15,0a14.24,14.24,0,0,0-9.51-.12c-1.49.51-3.48,1.28-3.46,3.15,0,1.68,1.56,2.8,3,3.33a18.86,18.86,0,0,0,3.79.69,4.27,4.27,0,0,1,3.1,1.42c.64.82,1.33,2.28.64,3.15a4.1,4.1,0,0,1-1.32.89,14.27,14.27,0,0,1-2,.77,6.47,6.47,0,0,1-4.61-.06,3.78,3.78,0,0,1-1.4-1.2,2.56,2.56,0,0,1-.38-.8l-.06-.29a2.81,2.81,0,0,1,0-.58,1.36,1.36,0,1,0-2.72,0C376,284.07,379.12,286.44,382.21,286.72Zm-1.28-13.37h0s0,0,0,0Z"/><path class="cls-12" d="M394.12,302.37a30,30,0,0,0-2.14-7.55,28.51,28.51,0,0,0-1.72-3.4,10.36,10.36,0,0,0-2.2-2.85c-2.22-1.83-5.12-1.33-7.16.5a12.67,12.67,0,0,0-2.26,2.89,14.5,14.5,0,0,0-1.74,3.53,9.07,9.07,0,0,0-.14,4.48c.26,1.41.78,2.78,1,4.22a1.4,1.4,0,0,0,1.36,1.35,1.37,1.37,0,0,0,1.36-1.35,27.14,27.14,0,0,0-.75-3.56,11.29,11.29,0,0,1-.45-2.82h.16c3.25-.53,6.69-1.32,10-.64a1.72,1.72,0,0,0,.64,0,28.76,28.76,0,0,1,1.48,5.93,1.37,1.37,0,0,0,2.63-.72ZM380,295l.22-.42a18.72,18.72,0,0,1,1.68-2.61c1-1.28,2.78-2.56,4.27-1.38a7.73,7.73,0,0,1,1.7,2.24c.31.51.59,1,.86,1.55A31,31,0,0,0,380,295Z"/></g></svg>