<svg id="Layer_5" data-name="Layer 5" xmlns="http://www.w3.org/2000/svg" width="500" height="500" viewBox="0 0 500 500"><defs><style>.cls-1{fill:#fbb03b;}.cls-1,.cls-2,.cls-3,.cls-4,.cls-5{stroke:#000;stroke-miterlimit:10;}.cls-2{fill:none;}.cls-3{fill:#997c52;}.cls-4{fill:#765f3d;}.cls-5{fill:#42210b;}</style></defs><circle class="cls-1" cx="245.25" cy="231.64" r="144.25"/><path class="cls-2" d="M361.44,149.36l-.72.68a6.53,6.53,0,0,1,.77-.46A.54.54,0,0,1,361.44,149.36Z"/><path class="cls-2" d="M359.24,151.47l-.9.86.41-.11A7.43,7.43,0,0,1,359.24,151.47Z"/><path class="cls-2" d="M352.77,157.81l.47-.67.09-.11a17.28,17.28,0,0,1-1.87,1.55h.24Z"/><path class="cls-2" d="M388.53,238.16l0-.07h0Z"/><path class="cls-2" d="M348.77,159.77l-.68.25c-1,.46-1.94,1.16-3,1.56a7,7,0,0,1-1.43.35,2.59,2.59,0,0,1,.39.25C345.64,161.43,347.21,160.62,348.77,159.77Z"/><path class="cls-2" d="M349.29,231.45l-.18-.12.62.51-.17-.25A.87.87,0,0,1,349.29,231.45Z"/><path class="cls-2" d="M389.32,241.18a.82.82,0,0,1-.21.25l.32-.2h0Z"/><path class="cls-2" d="M361.42,148l.07-.07h-.05Z"/><path class="cls-2" d="M342.6,225.27l-1-1a44.78,44.78,0,0,0,3.8,4.11,27.26,27.26,0,0,0,2.73,2.19A60.6,60.6,0,0,1,342.6,225.27Z"/><path class="cls-2" d="M361.2,145a2.12,2.12,0,0,1-.12-.2.56.56,0,0,0,.08.2Z"/><path class="cls-2" d="M352.34,135.58h-.08l.05.08Z"/><path class="cls-2" d="M339.69,122.85l-.25-.15-.11.16Z"/><path class="cls-2" d="M342,160.74l-.8.23a10.46,10.46,0,0,0,1.77,0,6.67,6.67,0,0,0,3-1,15.54,15.54,0,0,1-2.32.52A11.68,11.68,0,0,1,342,160.74Z"/><path class="cls-2" d="M372.91,173.92h0v0Z"/><path class="cls-2" d="M307.56,102.26a1,1,0,0,1,.21-.2l-.14-.06a1.07,1.07,0,0,1-.11.33h0Z"/><path class="cls-2" d="M294.49,116.7h0a.09.09,0,0,1,0-.07l-.07.28.09.15A1.19,1.19,0,0,1,294.49,116.7Z"/><path class="cls-2" d="M300.61,132.07l-.18-.43-.08-.16a1.66,1.66,0,0,0-.22-.3c.15.32.28.64.41,1Z"/><path class="cls-2" d="M296.94,125l-.32-.44.31.56a.17.17,0,0,0,0-.1Z"/><polygon class="cls-2" points="298.88 99.97 298.87 99.97 298.87 99.97 298.88 99.97"/><path class="cls-2" d="M297.58,101a3,3,0,0,0-.37.35l-.28.33a4.15,4.15,0,0,1,.64-.46A1.55,1.55,0,0,1,297.58,101Z"/><path class="cls-2" d="M351.49,233.76l-.07-.07Z"/><path class="cls-2" d="M310,168.86l.24.44a3.06,3.06,0,0,0-.12-.48Z"/><path class="cls-2" d="M335.94,216.87a3.43,3.43,0,0,1-.24-.33h0c-.53-.66-1.15-1.3-1.68-1.93.36.47.71,1,1.08,1.44.56.75,1.16,1.5,1.72,2.24l-.39-.66C336.31,217.42,336.1,217.11,335.94,216.87Z"/><path class="cls-2" d="M322.82,195.33a1.57,1.57,0,0,1-.25-.2,12.81,12.81,0,0,1-2.92-4.37,43.78,43.78,0,0,1-1.63-4.63l-.08-.25a42,42,0,0,0,1.54,4.64,13.75,13.75,0,0,0,1.47,2.82c.63.9,1.38,1.71,2,2.63.17.24.32.5.47.74h0Z"/><path class="cls-2" d="M312,173.59v.18h0Z"/><path class="cls-2" d="M315.42,180.82a14.26,14.26,0,0,1-1-1.1,5.56,5.56,0,0,0,1.29,1.53,1.89,1.89,0,0,1-.11-.25A1.24,1.24,0,0,1,315.42,180.82Z"/><path class="cls-2" d="M303.09,147.51a6,6,0,0,1,0,1c.07-.14.13-.29.2-.43S303.15,147.72,303.09,147.51Z"/><path class="cls-2" d="M329.31,207.52c-.31-.61-.62-1.23-.93-1.83l-.53-.43,1.6,3.1a.63.63,0,0,1,.22.18c.38.56.78,1.16,1.15,1.66l-.17-.41A17.8,17.8,0,0,1,329.31,207.52Z"/><path class="cls-2" d="M318.74,163.29c-.41.08-.82.14-1.23.2a3.56,3.56,0,0,1,.58.37l.22-.24A2.88,2.88,0,0,1,318.74,163.29Z"/><path class="cls-2" d="M312.28,164.92a1.62,1.62,0,0,1,.58-.11c-.44-.15-.93-.27-1.16.12A1.88,1.88,0,0,1,312.28,164.92Z"/><path class="cls-2" d="M325,161l.08.08h.09Z"/><path class="cls-2" d="M330.31,161.9l.28.11c.12,0,.45.18.58.14h.21a9.37,9.37,0,0,0,1.06,0h.31c-.23,0-.45-.06-.67-.11l-.34-.08a2.55,2.55,0,0,1-.61.08,6.25,6.25,0,0,1-.87-.07.66.66,0,0,0,.27.12Z"/><path class="cls-2" d="M359,239.08h0a10.74,10.74,0,0,0,1.57.92l-.46-.32A6.71,6.71,0,0,1,359,239.08Z"/><path class="cls-2" d="M292.85,118.26l-.08-.08.25.41C293,118.48,292.91,118.37,292.85,118.26Z"/><path class="cls-2" d="M318.94,135l-.31.4.07.58.23-.94A.1.1,0,0,0,318.94,135Z"/><path class="cls-2" d="M332.48,119Z"/><path class="cls-2" d="M297.86,122.88v-.13l-.12-.07Z"/><path class="cls-2" d="M310.83,106.27l-.16-.1v.09h.16Z"/><path class="cls-2" d="M320.31,111.12l.11-.08h0l-.22-.14Z"/><path class="cls-2" d="M307.63,156.65l.06-.16-.09-.11A1.24,1.24,0,0,1,307.63,156.65Z"/><path class="cls-2" d="M304,143.66h0v0Z"/><path class="cls-2" d="M295.9,108v.34H296A2.3,2.3,0,0,0,295.9,108Z"/><path class="cls-2" d="M389.14,242.77A13.18,13.18,0,0,1,388,244.2l-.29.25a.88.88,0,0,1,0,.23,18.4,18.4,0,0,1-2.05,3,10.52,10.52,0,0,0-1.48,3.48q-1.1,4.23-2.16,8.48a.51.51,0,0,1-.67.27.52.52,0,0,1-.31-.55c.73-2.87,1.46-5.75,2.21-8.62a10.8,10.8,0,0,1,1.5-3.55c.57-.81,1.22-1.55,1.73-2.41a2.63,2.63,0,0,1-1.25-.5,3.28,3.28,0,0,0-3.21-.38,11.16,11.16,0,0,0-1.57,1.16.51.51,0,0,1,0,.3,71.18,71.18,0,0,0-6.14,18.8c-.1.65-1.08.37-1-.27.26-1.47.56-2.94.92-4.39a71.81,71.81,0,0,1,5-13.91h-.15a2,2,0,0,1-.88-.21l-.11,0h-.56a.59.59,0,0,1-.25.22,1.2,1.2,0,0,0-.18.31.48.48,0,0,1-.17.67h0a10.46,10.46,0,0,1-4.93,1.6h-.06a.31.31,0,0,1,0,.19,70.71,70.71,0,0,1-2.21,9.39.51.51,0,0,1-.67.26.5.5,0,0,1-.3-.53,70.34,70.34,0,0,0,2.21-9.39h0a9.18,9.18,0,0,1-2.87-1.85l-4-3.15a10.86,10.86,0,0,0-1.89-1.25c-.7-.34-1.48-.56-2.2-.9a14.7,14.7,0,0,1-2.2-1.37,1.83,1.83,0,0,1-.66,0l-.49-.21a1.47,1.47,0,0,1-.56-.52,1.51,1.51,0,0,1-.32-.53,8.36,8.36,0,0,1-3-2c-.23-.24-.44-.51-.7-.74a8.44,8.44,0,0,0-.91-.66,9.54,9.54,0,0,1-1.31-1.53,13.39,13.39,0,0,0-2.78-2.32,25.17,25.17,0,0,1-3-2.49,69.37,69.37,0,0,1-5.27-6.08q-5.21-6.44-9.95-13.28a.44.44,0,0,1-.26-.24l-3.41-6.59a22.85,22.85,0,0,1-.74,3.77c-.46,1.54-1.16,3-1.68,4.5a42.78,42.78,0,0,0-1.65,9.4c-.07.64-1.08.65-1,0a46.5,46.5,0,0,1,1.6-9.37c.49-1.53,1.16-3,1.68-4.49a23.22,23.22,0,0,0,.9-4.8.48.48,0,0,1,.2-.37,31.55,31.55,0,0,0-3.06-5.28,23.9,23.9,0,0,1-1.9-2.59,20.68,20.68,0,0,1-1.37-3c-.4-1.07-.76-2.15-1.09-3.24s-.51-2.08-.88-3.09a6,6,0,0,0-1.62-2.19,4.51,4.51,0,0,1-1.25-1.88.67.67,0,0,1-.14-.09c-1.43-1.49-1.55-3.63-2.09-5.52a22,22,0,0,0-2.41-5.6l-.1-.08a.5.5,0,0,1-.51-.21,15.73,15.73,0,0,1-2.26-4.36c-1-2.8-1.5-5.79-2.58-8.53-.54-1.39-1.58-2.75-1.62-4.29a4.58,4.58,0,0,1,.08-.83A4.61,4.61,0,0,1,300,150a16.15,16.15,0,0,1-3.81-1.61c-2.69-1.46-5.32-3-8-4.54a.51.51,0,0,1,.51-.88l7.06,4a23.46,23.46,0,0,0,3.29,1.64c.36.14,2.59,1,2.76.37a.43.43,0,0,1,.2-.3.38.38,0,0,0,0-.15,7,7,0,0,0-.12-2.32.44.44,0,0,1-.15-.23l-.56-1.8a6.1,6.1,0,0,1-.34-1.74,6.32,6.32,0,0,1,.34-1.49,4.24,4.24,0,0,0,.17-.61.44.44,0,0,1-.38-.47c.26-5-2.17-9.63-4.63-13.83s-5.08-8.44-7.63-12.65c-.33-.53-.65-1.06-1-1.58l-.11-.11a1.92,1.92,0,0,1-.29-.5c-.11-.15-.21-.31-.33-.46a16.08,16.08,0,0,0-2.12-2.32c-.65-.58-1.3-1.54-.74-2.32-1.05.51-2.12,1-3.21,1.45a6.64,6.64,0,0,1-4.56.37c-.61-.2-.34-1.16.27-1a6,6,0,0,0,4.16-.43c1.4-.55,2.76-1.26,4.13-1.91.53-.26,1,.44.64.78a6.14,6.14,0,0,1,1.05,0,9.16,9.16,0,0,1,5.3,2.39,9.86,9.86,0,0,1,1,1.07c.26.31.58.74,1,.64,1.08-.27,1-1.68.91-2.51a8.73,8.73,0,0,1-.05-3.1,7.18,7.18,0,0,1,1.07-2.55,7.85,7.85,0,0,1,2-2,2.59,2.59,0,0,0,1.06-1,.68.68,0,0,0-.17-.84.44.44,0,0,1-.19-.6,2.07,2.07,0,0,1-.09-2,2.66,2.66,0,0,1,.57-.79,8.64,8.64,0,0,0-2.26,1.16,6.48,6.48,0,0,1-2.52.61.52.52,0,0,1-.71.21.53.53,0,0,1-.21-.21,1.71,1.71,0,0,1-.32,0,.49.49,0,0,1-.35-.61h0a.4.4,0,0,1,.14-.22.8.8,0,0,0-.3-.06,12.36,12.36,0,0,1-1.35-.14,7.94,7.94,0,0,1-2.32-1,7.11,7.11,0,0,0-2.15-.94,23.46,23.46,0,0,0-2.52-.33,17.43,17.43,0,0,1-5-1.15,19.49,19.49,0,0,0-2.32-1.07,8.66,8.66,0,0,0-2.48-.43,15,15,0,0,1-4.91-.42.5.5,0,0,1-.26-.17c-1.76-.33-3.47-.62-5.29-.86q-5.24-.7-10.53-.9c-1.75-.07-3.47-.1-5.26-.08a14.13,14.13,0,0,0-4.25.38.48.48,0,0,1-.51.44l-.11,0a16.09,16.09,0,0,0-5.7-.4l-6.13.27a63.4,63.4,0,0,0-10.56,1c-1.67.36-3.28.91-4.94,1.31a17.86,17.86,0,0,1-2.53.45,14.28,14.28,0,0,0-2.51.41c-1.54.44-2.94,1.27-4.44,1.83a39.9,39.9,0,0,1-4.15,1.16c-2.62.65-5.38,1.31-7.54,3a.49.49,0,0,1-.45.7,17.08,17.08,0,0,0-9.86,2.6c-1.26.79-2.39,1.77-3.62,2.6a11.08,11.08,0,0,1-2,1.16,17.84,17.84,0,0,1-2.24.75,25.14,25.14,0,0,0-4.37,2.19c-1.41.76-2.87,1.41-4.29,2.12a24.29,24.29,0,0,0-3.94,2.46,36.44,36.44,0,0,0-3.17,2.91,49.29,49.29,0,0,1-6.28,5.8.47.47,0,0,1-.31.24c-3,.7-5,3.29-7,5.45a54.84,54.84,0,0,1-7.32,6.29,15.52,15.52,0,0,0-1.82,1.61,11.2,11.2,0,0,0-1.4,2c-.77,1.32-1.48,2.65-2.32,3.9-3.28,4.71-7.75,8.66-10,14a.45.45,0,0,1-.14.19.41.41,0,0,1-.07.3c-1.33,2.32-3.84,3.73-5.2,6.05a15,15,0,0,0-1.29,4,22.76,22.76,0,0,1-1.63,3.88,16.27,16.27,0,0,0-1.24,4.15,25.19,25.19,0,0,1-1.38,4.34c-1.16,2.86-2.32,5.69-3.48,8.56a38.15,38.15,0,0,0-2.35,8.66,2,2,0,0,1-.08.22l-.07.14a14.17,14.17,0,0,0-2.43,5,37.61,37.61,0,0,0-.34,5.41c-.16,1.83-.49,3.65-.79,5.47L102,221.81a.42.42,0,0,1-.44.38h0c0,1.65.11,3.31.16,5q.27,9.47.2,18.94a.52.52,0,0,1,.3.41c.21,1.86.41,3.71.63,5.58a72.51,72.51,0,0,0,1.57,9.49c.71,2.82,1.6,5.59,2.51,8.35a.43.43,0,0,1,.25.32c.51,2.32,1.1,4.64,1.78,6.9,2.39,7.93,6.09,15.36,9,23.08a.51.51,0,0,1,.42.6.57.57,0,0,1-.14.28h0a2.5,2.5,0,0,0,.34.39l.71.85c.51.6,1,1.21,1.5,1.84.94,1.19,1.85,2.41,2.71,3.65,1.61,2.32,3.1,4.73,4.64,7.08s3.05,4.46,4.63,6.62a129.39,129.39,0,0,0,10.58,12.32.78.78,0,0,1,.11.18c2.18,1.53,4.36,3.06,6.5,4.63s4.08,3.1,6,4.77,3.79,3.47,5.61,5.27a17.11,17.11,0,0,0,2.77,2.4c1.07.71,2.32,1.16,3.37,1.82a48.49,48.49,0,0,1,6.34,4.5.7.7,0,0,1,.15.2,8.08,8.08,0,0,0,3.08,1.62c1.49.32,3-.25,4.48.34a9.51,9.51,0,0,1,3.07,2.53,5,5,0,0,0,3.32,2,.49.49,0,0,1,.46.36,45,45,0,0,1,7.51,1.77c1.16.37,2.25.78,3.35,1.25a20.08,20.08,0,0,1,3,1.39,4,4,0,0,1,1.16,1.09,1.48,1.48,0,0,0,1,.77,5.39,5.39,0,0,0,1.55-.12,5.66,5.66,0,0,1,1.59-.07,16.13,16.13,0,0,1,3.48.87,36,36,0,0,0,3.54.9,32.66,32.66,0,0,0,7.32.59.48.48,0,0,1,.41.22,17.63,17.63,0,0,1,4.08.78,39.26,39.26,0,0,0,3.81.95,25.53,25.53,0,0,0,4.1.39,65.33,65.33,0,0,0,7.13-.34.4.4,0,0,1,.22-.06h.84q9.28-.39,18.55-.48a15.21,15.21,0,0,1,6-.32,10.75,10.75,0,0,0,3.1-.18,14.49,14.49,0,0,0,3-1.26,9.63,9.63,0,0,1,2.87-.87c1-.13,2-.15,3-.25a40.64,40.64,0,0,0,6.26-1.37c4.08-1.16,8.11-2.32,12.13-3.78A96,96,0,0,0,308.86,361c3.48-1.87,6.85-3.82,10.26-5.8a.5.5,0,0,1,.22-.31c1.52-1.07,3.05-2.15,4.63-3.12a42,42,0,0,1,4.84-2.53,24,24,0,0,0,4.26-2.31,34.21,34.21,0,0,0,3.6-3.1q3.68-3.48,7.25-7,7.15-7.16,13.82-14.79a.43.43,0,0,1,.38-.15q3.3-4,6.27-8.32a121.6,121.6,0,0,0,9.49-16.35c1.37-2.85,2.64-5.8,3.77-8.71,1.06-2.72,1.88-5.57,3.19-8.18a.41.41,0,0,1-.14-.5,30.86,30.86,0,0,0,2.32-8.65.51.51,0,0,1,.37-.46,40.36,40.36,0,0,0,2.39-7.82c.24-1.51.36-3,.62-4.53a35.48,35.48,0,0,1,1.05-4.33h0a34.63,34.63,0,0,1,2.73-11.94A2.29,2.29,0,0,0,389.14,242.77ZM289.23,133.25c2.52,2,5.72,3,8.73,4.1.62.22.35,1.16-.26,1-3.19-1.16-6.52-2.21-9.19-4.37-.51-.41.21-1.12.72-.71Zm-.65-31.82a9.78,9.78,0,0,1-3.83-1,.5.5,0,0,1-.19-.68h0a.52.52,0,0,1,.69-.19,8.68,8.68,0,0,0,3.32.82.5.5,0,0,1,.58.42.51.51,0,0,1-.43.58ZM279.43,96a32.73,32.73,0,0,0,15.5,1.24c.64-.11.9.87.26,1a33.66,33.66,0,0,1-16-1.23c-.57-.2-.34-1.15.27-1ZM297,169.88a.54.54,0,0,1-.63-.36.51.51,0,0,1,.35-.62h0a41.6,41.6,0,0,0,6.76-1.63c.61-.2.88.78.26,1A42.16,42.16,0,0,1,297,169.88Zm2.78,7.82a.49.49,0,0,1,.17-.68h0a13.85,13.85,0,0,0,3.29-2.21.52.52,0,0,1,.72,0,.5.5,0,0,1,0,.71,14.28,14.28,0,0,1-3.48,2.32A.5.5,0,0,1,299.74,177.7Zm7.89,7.28q-2.2,3-4.43,5.9a.5.5,0,1,1-.87-.51h0l4.43-5.9a.54.54,0,0,1,.7-.17A.5.5,0,0,1,307.63,185Zm9.8,7.81c-.92,1.83-.93,3.94-1.26,5.94a55.54,55.54,0,0,1-1.55,5.79,20.62,20.62,0,0,0-.69,5.8c0,4,.85,8,.75,12a.51.51,0,0,1-1,0,50.87,50.87,0,0,0-.4-6.87,53.21,53.21,0,0,1-.34-6,22.3,22.3,0,0,1,1-6,37.68,37.68,0,0,0,1.43-5.72,16,16,0,0,1,1.24-5.36C316.83,191.69,317.72,192.21,317.43,192.79Zm14.66,30a29.75,29.75,0,0,1-5.44,8.26c-.45.47-1.16-.25-.72-.71a29,29,0,0,0,5.29-8.11c.27-.54,1.13,0,.87.56Zm8.11,13.35a106,106,0,0,1-3.48,13.35.5.5,0,0,1-1-.27,109.55,109.55,0,0,0,3.48-13.35c.09-.64,1.06-.36.94.24Zm-.62-4.7c-.72.93-1.45,1.84-2.18,2.76a.5.5,0,0,1-.71,0h0a.53.53,0,0,1,0-.72l2-2.51a10.38,10.38,0,0,0,.88-1.16,2.16,2.16,0,0,0,.47-1.16c0-.65,1-.65,1,0a4.86,4.86,0,0,1-1.48,2.83Zm6.47,12c-1.15,3.25-2.56,6.46-4,9.6-.28.59-1.16.07-.87-.51,1.44-3.06,2.75-6.19,3.93-9.36.19-.61,1.17-.34.94.27Zm9.07,3.21a21.32,21.32,0,0,0-1.26,5c-.31,1.84-.6,3.69-.89,5.52-.1.64-1.07.37-1-.27.3-1.89.59-3.78.9-5.67a22.21,22.21,0,0,1,1.34-5.12c.22-.6,1.09-.08.84.51Zm11,1.38a9.52,9.52,0,0,1-1.33,3.13c-2.18,3.48-6,5.87-7.31,9.88-.2.61-1.16.34-1-.27a11.17,11.17,0,0,1,1.56-3.08c2.31-3.28,6.17-5.8,7.09-9.93.12-.63,1.09-.37.94.27Z"/><path class="cls-3" d="M378,245.42a.53.53,0,0,0-.44-.08h-.09Z"/><path class="cls-3" d="M356.63,239.3l.48.21a1.83,1.83,0,0,0,.66,0l-1.53-1.11h0l-.43-.16a3.56,3.56,0,0,0,.82,1.06Z"/><path class="cls-3" d="M318.31,163.62l-.22.24a6.17,6.17,0,0,1,.92,1c.18.24.39.63.59.24a7.39,7.39,0,0,0,.47-1.37l.28-.83a13.05,13.05,0,0,1-1.61.4A2.88,2.88,0,0,0,318.31,163.62Z"/><path class="cls-3" d="M332.66,162h-.22a9.37,9.37,0,0,1-1.06,0h-.21a3.77,3.77,0,0,1-.58-.14l-.28-.11.22.1a.66.66,0,0,1-.27-.12l-1.29-.2-3.89-.58H325l.35.36a.51.51,0,0,1-.71.72,7.07,7.07,0,0,0-.94-.87l-.15.11a9.54,9.54,0,0,1-2,1v.15l-.55,1.7c-.24.72-.43,1.79-1.3,2s-1.39-.86-1.94-1.41a1.7,1.7,0,0,0-2.32-.31,2,2,0,0,1-1.16.57,2.75,2.75,0,0,1-.9-.12l-.52-.19a1.62,1.62,0,0,0-.58.11,1.69,1.69,0,0,0-.55,0v.07a3.48,3.48,0,0,0-.08,1.16,4.5,4.5,0,0,1-.17,1.26,2,2,0,0,1-1.3,1.36,1.57,1.57,0,0,0,.13.47A23.55,23.55,0,0,1,312,173.3v.16l.07.17h0c.24.88.41,1.78.63,2.67a5.72,5.72,0,0,0,1.1,2.32.38.38,0,0,1,.44.34v0a2.31,2.31,0,0,0,.19.56,12.73,12.73,0,0,0,1,1.11,1.24,1.24,0,0,0,.22.18,1.75,1.75,0,0,0,.11.24l.17.18a6.45,6.45,0,0,1,1.53,2.78l.49,1.7.08.25c.51,1.55,1,3.1,1.63,4.63a12.75,12.75,0,0,0,3,4.51,1.5,1.5,0,0,0,.24.2l.58,1.4h0c.4.69.76,1.4,1.16,2.1l1.68,3.25,1.65,3.17.53.43c.31.6.63,1.16.93,1.83a19.27,19.27,0,0,0,1.36,2.32l.17.41c1,1.46,2.1,2.92,3.16,4.38.57.63,1.16,1.27,1.68,1.93h0a2.52,2.52,0,0,0,.24.33c.16.24.32.48.47.74s.26.44.38.66c1.16,1.44,2.25,2.87,3.41,4.3l1.36,1.66c.34.36.7.69,1,1a59.26,59.26,0,0,0,5.49,5.26l.21.14.86.63.17.11a.7.7,0,0,0,.27.14,2.33,2.33,0,0,0,.17.26A7.49,7.49,0,0,1,351,233c.18.23.35.45.54.66l.07.07a3.76,3.76,0,0,0,.65.53,7.91,7.91,0,0,1,1.36,1.29,7.61,7.61,0,0,0,2.62,1.83.46.46,0,0,1,.34.08c.76.56,1.54,1.16,2.32,1.7h0c.36.21.72.42,1.05.65l.47.33.37.17a21,21,0,0,1,2,.85,11.57,11.57,0,0,1,1.78,1.16l3.71,2.93.75.62h0a5.91,5.91,0,0,0,2,1.24h.06a2.76,2.76,0,0,0,1,.1,10.15,10.15,0,0,0,3.68-1.16,6,6,0,0,1,.26-.58,32.91,32.91,0,0,1-10.22-5.28c-.51-.39,0-1.27.51-.88a32.1,32.1,0,0,0,10.43,5.32,1.58,1.58,0,0,1,1.7,0c.64.29,1.24-.16,1.71-.56a4.88,4.88,0,0,1,1.61-1.09,4.33,4.33,0,0,1,3.58.41c.51.29,1,.74,1.57.36a4.85,4.85,0,0,0,1.16-1.27,4.6,4.6,0,0,1,1-1,1.21,1.21,0,0,0,.21-.24h.08a1.87,1.87,0,0,1,1.31-.18,2.13,2.13,0,0,0-.27-.46c-.19-.28-.42-.55-.63-.82l-1.3-1.61h-.07l-.14-.18a.55.55,0,0,1-.14-.47.45.45,0,0,1-.23,0c-1.48-.51-3-1.06-4.38-1.65a81.73,81.73,0,0,1-14.41-7.63c-.53-.36,0-1.22.51-.87,1.29.85,2.58,1.67,3.91,2.45a81.28,81.28,0,0,0,14.59,6.71c.31-2.13.54-4.26.67-6.41a4.25,4.25,0,0,1-1.95.47,12.88,12.88,0,0,1-5.18-1.45,37.91,37.91,0,0,0-5.41-1.85,51.39,51.39,0,0,0-5.38-1,8.61,8.61,0,0,1-4.41-1.66c-.51-.42.2-1.16.7-.72a9,9,0,0,0,4.64,1.49,39.58,39.58,0,0,1,9.68,2.53,17.6,17.6,0,0,0,4.63,1.58,3.92,3.92,0,0,0,2.17-.23,1.56,1.56,0,0,0,.67-.6v-1.23a.4.4,0,0,1-.52.16,24.56,24.56,0,0,0-2.83-.61,10.2,10.2,0,0,1-2.48-1c-1.45-.81-2.67-2.06-4.32-2.48a.5.5,0,0,1,.27-1c1.65.41,2.89,1.58,4.32,2.44a9,9,0,0,0,2.55,1.05,20.25,20.25,0,0,1,2.76.59.55.55,0,0,1,.25.2c0-1.7,0-3.41-.09-5.13a.17.17,0,0,1,0-.1,6.32,6.32,0,0,0-.09-1.3,6.13,6.13,0,0,1-2.6.77,7.8,7.8,0,0,1-3.58-.46c-.6-.23-.34-1.16.27-1a6.58,6.58,0,0,0,5.27-.14,2,2,0,0,0,.55-.5c-.09-1.07-.17-2.13-.26-3.19a11.82,11.82,0,0,1-8.65-.16,36.66,36.66,0,0,0-4.34-1.84c-2.84-.79-5.88-.56-8.6-1.81-.59-.28-.08-1.16.51-.88a15.39,15.39,0,0,0,4.63,1.08,22,22,0,0,1,4.18.76c1.41.44,2.7,1.22,4.06,1.77a11,11,0,0,0,7.82.18.37.37,0,0,1,.31-.25c-.13-1-.33-2-.55-3a13.07,13.07,0,0,1-.37-2.56,12.6,12.6,0,0,1-3.47,0c-1.16-.14-2.4-.28-3.59-.44a35.83,35.83,0,0,1-6.3-1.4c-2-.68-3.89-1.61-5.88-2.31s-4.2-.95-6.24-1.66a7.14,7.14,0,0,1-4.08-3.08c-.33-.57.55-1.08.86-.51a7.12,7.12,0,0,0,4.83,3c1,.25,2.05.44,3.06.69a25.68,25.68,0,0,1,2.85.94c1.88.73,3.7,1.59,5.62,2.17a38.59,38.59,0,0,0,6.12,1.24l3,.35a10.23,10.23,0,0,0,3.22,0,.33.33,0,0,1,.14,0,4.19,4.19,0,0,0-.46-3.19A13.23,13.23,0,0,1,386,203.8a2.92,2.92,0,0,1-.42-1.61c0-1.16.08-2.4,0-3.6a6.81,6.81,0,0,0-.3-1.68,5.68,5.68,0,0,0-.84-1.55,4.58,4.58,0,0,1-.88-2.5.51.51,0,0,1-.27-.65l0-.06c1-1.85-.49-3.86-1.34-5.43-1.67-3.09-1.86-6.71-3.48-9.8-.78-1.46-1.94-2.71-2.32-4.35-.32-1.3-.2-3-1.31-4a.39.39,0,0,1-.16-.41,1.12,1.12,0,0,0-.12-.35c-.88,1-1.16,2.47-1.84,3.63a5.61,5.61,0,0,1-3.71,2.31,44.09,44.09,0,0,1-5.55,1.26,31.54,31.54,0,0,0-5.47.73c-1.62.54-3.1,1.48-4.64,2.09-.61.24-.87-.74-.28-1,1.77-.67,3.36-1.74,5.2-2.24a50.09,50.09,0,0,1,5.47-.66,46.54,46.54,0,0,0,5.21-1.27,5.67,5.67,0,0,0,2.12-1,4.63,4.63,0,0,0,1.1-1.6,9.4,9.4,0,0,1,2-3.48.56.56,0,0,1,.17-.09v-.49a3.51,3.51,0,0,0-.52-2,5.2,5.2,0,0,0-1.39-1.08A10.86,10.86,0,0,1,371,161.9a7.71,7.71,0,0,1-2-3.13,25.92,25.92,0,0,0-1.27-3.82,11.78,11.78,0,0,0-2.32-3.06.45.45,0,0,1-.15-.33,18.34,18.34,0,0,1-2.32-3.16c0-.11-.12-.21-.16-.31l-1.36,1.28a.79.79,0,0,0,.06.22,6.21,6.21,0,0,0-.78.47l-1.45,1.41a7.43,7.43,0,0,0-.49.75l-.41.11L356.61,154l-2.78,2.63c-.17.15-.33.32-.5.48l-.09.1-.47.68-1.07.71h-.24l-.18.13a12.08,12.08,0,0,1-2.51,1.07c-1.56.84-3.13,1.66-4.74,2.41a2.65,2.65,0,0,0-.39-.26,45.45,45.45,0,0,1-5.22,0,20,20,0,0,0-3.08.51,2.78,2.78,0,0,1-2.31-.37h-.28Zm43.73,17.91a7.48,7.48,0,0,1-3.86,1.68c-1.65.26-3.33.41-5,.59-3.54.36-7.07.63-10.61.81a.51.51,0,0,1,0-1c3.37-.17,6.75-.43,10.12-.76,1.59-.17,3.21-.32,4.81-.55a7.11,7.11,0,0,0,3.82-1.43c.49-.48,1.19.24.71.67Zm-21.06,54.53a38.31,38.31,0,0,1-4.64-3.88.51.51,0,0,1,.72-.72,36,36,0,0,0,4.45,3.73.52.52,0,0,1,.17.7.49.49,0,0,1-.69.17ZM370,220.54a.5.5,0,0,1,.13.22v.14a.43.43,0,0,1-.07.25l-.08.1a.27.27,0,0,1-.16.1.34.34,0,0,1-.2,0,.34.34,0,0,1-.2,0,.27.27,0,0,1-.16-.1l-.11-.12a.42.42,0,0,1-.13-.22v-.14a.43.43,0,0,1,.07-.25l.08-.1a.27.27,0,0,1,.16-.1.45.45,0,0,1,.39,0,.27.27,0,0,1,.17.1Zm-9.64-33.14c3.09.34,6-1.39,9-1.28a.51.51,0,0,1,.51.51.52.52,0,0,1-.51.51c-3.08-.12-5.93,1.61-9,1.27-.65-.07-.65-1.08,0-1Zm12.13.81a.52.52,0,0,1,.43.58.5.5,0,0,1-.43.43,9.8,9.8,0,0,0-2.94.5,13.12,13.12,0,0,1-2.67.83,5.57,5.57,0,0,0-1.4.12,11.88,11.88,0,0,0-1.3.35,4.1,4.1,0,0,1-2.52.15c-.62-.21-.35-1.16.26-1a4.19,4.19,0,0,0,2.54-.32,6.39,6.39,0,0,1,1.23-.25,5.76,5.76,0,0,0,1.37-.11c.91-.18,1.76-.66,2.65-.91a11.14,11.14,0,0,1,2.75-.4Zm-8.61,27.59a.5.5,0,0,1-.68.18,5.28,5.28,0,0,1-1.42-1.15.65.65,0,0,1-.15-.35.51.51,0,0,1,.51-.51h0a.48.48,0,0,1,.36.15,5,5,0,0,0,.66.64,6.26,6.26,0,0,0,.55.34.52.52,0,0,1,.18.7Zm-5.33,16.48a.51.51,0,0,1-.29.66.51.51,0,0,1-.58-.15,10,10,0,0,0-2.44-2.32c-.94-.76-1.86-1.54-2.76-2.32-1.83-1.63-3.61-3.35-5.29-5.13-.45-.48.27-1.16.71-.72,1.72,1.83,3.53,3.58,5.41,5.24.94.83,1.9,1.63,2.89,2.42A9.59,9.59,0,0,1,358.56,232.28Zm4.89-9.2a6.45,6.45,0,0,0-2.37-2.24c-1.09-.67-2.25-1.24-3.39-1.83-.57-.3-.06-1.16.51-.87,1.16.63,2.41,1.16,3.55,1.92a7.53,7.53,0,0,1,2.57,2.51.5.5,0,0,1-.34.63.49.49,0,0,1-.5-.12Zm18.78,19Zm-15.09-24.58c-.65-.11-.37-1.08.26-1q5.81.9,11.65,1.72a.5.5,0,0,1,.35.61h0a.52.52,0,0,1-.61.36Zm6.79,4.78v-.11a.5.5,0,0,1,.14-.15.45.45,0,0,1,.37-.09.31.31,0,0,1,.19,0l.36.24a.46.46,0,0,1,.17.17v.13a.61.61,0,0,1,0,.27v.11a.29.29,0,0,1-.13.14.32.32,0,0,1-.17.09.34.34,0,0,1-.2,0,.28.28,0,0,1-.18,0l-.36-.24a.52.52,0,0,1-.19-.17v-.13a.66.66,0,0,1,0-.28Zm-1-48.18Zm0-.2v.13A.28.28,0,0,0,372.93,173.94Zm-23.78-.35c1-1.24,2.05-2.5,3.09-3.73a9,9,0,0,1,2.69-2.31l.17-.08a38.45,38.45,0,0,0,2.71-4c.69-1.16,1.23-2.4,2-3.47a3.21,3.21,0,0,1,2.77-1.75c.64,0,.65,1.05,0,1-1.31-.08-2.05,1.41-2.55,2.39a41.59,41.59,0,0,1-3.2,5.21l1.3-.37a5.11,5.11,0,0,0,2.78-2c.78-1.06,1.45-2.22,2.14-3.32.36-.56,1.23,0,.88.51a37.41,37.41,0,0,1-2.48,3.75,5.81,5.81,0,0,1-2.86,1.87c-.94.3-1.92.49-2.83.87a40.47,40.47,0,0,1-5.86,6.06.52.52,0,1,1-.74-.72Zm18.9,56.93,7.27,5c.53.38,0,1.24-.51.89l-4.15-2.87-3.6-2.47a36.82,36.82,0,0,0-3.61-2.31c-1.16-.63-2.44-1.16-3.65-1.8s-2.44-1.37-3.63-2.15c-.54-.34,0-1.22.51-.86a43.43,43.43,0,0,0,4.13,2.39c1.16.62,2.46,1.16,3.63,1.81S366.87,229.71,368.05,230.52Z"/><path class="cls-4" d="M323.53,161.42l.15-.11a1.21,1.21,0,0,0-1.55-.13,3,3,0,0,0-.58,1.27A10,10,0,0,0,323.53,161.42Z"/><path class="cls-4" d="M287.73,111.87l-.41-.61a2.25,2.25,0,0,0,.29.5Z"/><path class="cls-4" d="M293,118.59l.15.23a12.89,12.89,0,0,1,1.47-5.8,11.92,11.92,0,0,0,1.42-3,3.6,3.6,0,0,0-.07-1.6h-.11a2.63,2.63,0,0,1-1.16,1.92,1.83,1.83,0,0,1-2.49-.55,9.81,9.81,0,0,0-2.09-2,8.45,8.45,0,0,0-2.77-1.16,6.67,6.67,0,0,0-1.54-.17c-.28,0-.82,0-.9.37s.56.94.84,1.16a13.25,13.25,0,0,1,1.07,1.05,35.85,35.85,0,0,1,3.75,5.61l1.48,2.42h0l.68,1.16.08.08A2.75,2.75,0,0,1,293,118.59Z"/><path class="cls-4" d="M357.55,140.11l.64.59A5.15,5.15,0,0,0,357.55,140.11Z"/><path class="cls-4" d="M315.44,105.11h0l.36.13A1.11,1.11,0,0,0,315.44,105.11Z"/><path class="cls-4" d="M304.08,99.07a6.37,6.37,0,0,0-1.39-1.4l-.22-.15A7.89,7.89,0,0,0,304.08,99.07Z"/><path class="cls-4" d="M301.34,97.7a20.67,20.67,0,0,1-1.3-3c-.58.46-1.08,1.16-.6,1.82a.45.45,0,0,1,.07.39,1.75,1.75,0,0,1,.1,2.32,3.71,3.71,0,0,1-.73.75h0c-.42.34-.88.63-1.29,1v.22a4.07,4.07,0,0,0-.63.46,6.2,6.2,0,0,0-1.16,2.59,5.16,5.16,0,0,0-.06,1.57.4.4,0,0,1,.5.25,7.75,7.75,0,0,1,.91,3.53,7.57,7.57,0,0,1-1.16,3.14,13.31,13.31,0,0,0-1.48,3.86v.07h0V117l-.09-.15a11.92,11.92,0,0,0-.19,2.73.43.43,0,0,1-.28.45c.31.48.6,1,.9,1.45h0c.6,1,1.16,2,1.79,3l.33.44h0V125c.44.74.87,1.49,1.3,2.25a41.48,41.48,0,0,1,1.92,3.83,3.46,3.46,0,0,1,.22.31l.08.16.18.43-.07.09a19,19,0,0,1,1.47,6.86.47.47,0,0,1,.31.33c.31,1-.3,1.94-.44,3a3.93,3.93,0,0,0,.28,1.66c.15.48.3,1,.44,1.43a.45.45,0,0,1,.2.27,8.78,8.78,0,0,1,.26,1.84c.06.2.12.4.17.61s-.13.29-.2.43h0a12.17,12.17,0,0,0-.4,2.75,8.16,8.16,0,0,0,.9,2.21,21,21,0,0,1,.85,2c.5,1.36.87,2.78,1.26,4.18a23.78,23.78,0,0,0,2.94,7.48.51.51,0,0,1,.43.07.55.55,0,0,1,.21.19c.07.1.12.2.19.3a.79.79,0,0,0,.48,0,1.13,1.13,0,0,0,.61-.89c.19-.84-.11-1.81.39-2.58a1.6,1.6,0,0,1,1.85-.57c.58.15,1.29.6,1.83.17a2.61,2.61,0,0,1,1.16-.67,2.64,2.64,0,0,1,1.25,0,2.28,2.28,0,0,1,.51.21c.42-.06.83-.12,1.23-.2a12.22,12.22,0,0,0,1.61-.4l.23-.71a6.82,6.82,0,0,1,.48-1.23,2,2,0,0,1,2.09-.94,3.6,3.6,0,0,1,1.76,1h.17l3.9.58,1.28.2a8.5,8.5,0,0,0,.87.07,4.2,4.2,0,0,0,.62-.08l.33.08c.22,0,.45.08.67.1a1.31,1.31,0,0,0,.28,0l-.18-.16c-.47-.46.25-1.16.7-.72.7.71,1.93.19,2.74,0a11.61,11.61,0,0,1,3.48-.23l1.46.07.8-.23a11.55,11.55,0,0,0,1.63-.21,18.11,18.11,0,0,0,2.32-.52h0a13.37,13.37,0,0,1,1.43-.8,14.72,14.72,0,0,1,1.57-.57,8.05,8.05,0,0,0,2.74-1.57c1.77-1.49,3.47-3.18,5.1-4.77l4.56-4.12v-.05h.06l.69-.64a.42.42,0,0,1,.15-.11,21.29,21.29,0,0,0-1.08-2.06v-.08h0c0-.07-.06-.13-.08-.2a12.11,12.11,0,0,0-2.32-2.37c-1.7-1.42-3.63-3-4-5.3a.58.58,0,0,1,.08-.39,1.46,1.46,0,0,0-.55-.63,4.71,4.71,0,0,0-1.51-.41,1.76,1.76,0,0,1-.44-.15h0l-.06-.08a3.36,3.36,0,0,1-1.53-1.71c-.23-.53-.4-1.07-.65-1.58a4.72,4.72,0,0,0-1-1.33,13.62,13.62,0,0,0-1.15-1c-.25-.17-.87-.67-1.16-.4a.57.57,0,0,1-.13.08,13.6,13.6,0,0,1-.94,4.63c-1.16,2.9-3.4,5.1-4.85,7.84-1.55,2.95-2.85,6.05-4.24,9.07-.28.6-1.16.09-.88-.51l2.32-5.1c.66-1.42,1.3-2.86,2-4.25a35.32,35.32,0,0,1,2.57-3.85,15.25,15.25,0,0,0,2.17-3.88,13.09,13.09,0,0,0,.77-4.34.31.31,0,0,1,0-.19,11.3,11.3,0,0,0-2.58-3.85,17.28,17.28,0,0,0-3.31-2.32h-.36q-1.74,2.67-3.35,5.39t-3,5.19a23.92,23.92,0,0,0-1.31,2.51,12.37,12.37,0,0,0-.69,2.74,7.13,7.13,0,0,1-2,4.26c-.85,1-1.95,2-1.94,3.38a.51.51,0,0,1-.58.43.52.52,0,0,1-.43-.43c0-1.69,1.16-2.91,2.24-4.1a7.33,7.33,0,0,0,1.24-1.82,12,12,0,0,0,.64-2.64,16.36,16.36,0,0,1,2.22-5.25c2-3.48,4-7,6.21-10.33h0a8.21,8.21,0,0,1-2.32-2.11A9.25,9.25,0,0,0,335,118.3a5.82,5.82,0,0,0-1.64-.94,12.45,12.45,0,0,1-2.89-1.4v.37a6.8,6.8,0,0,1-.15,1.09,16,16,0,0,1-.45,2,17.52,17.52,0,0,1-1.71,3.92.5.5,0,0,1-.7.15.52.52,0,0,1-.18-.66,15.31,15.31,0,0,0,1.68-4,14.23,14.23,0,0,0,.43-2,4.78,4.78,0,0,1,.12-1.28,8.86,8.86,0,0,0-2.69-2.86,26.27,26.27,0,0,0-2.61-1.54,2.77,2.77,0,0,1-.31.45,13.77,13.77,0,0,1-2.79,2,4.49,4.49,0,0,0-1.22,1.16,5.23,5.23,0,0,0-.71,1.73L318,120.94a9,9,0,0,1-1.41,3.61c-.42.49-1.16-.22-.72-.72a4.66,4.66,0,0,0,.81-1.85c.22-.78.42-1.56.62-2.31s.39-1.5.57-2.24a20.12,20.12,0,0,1,.62-2.18,5.48,5.48,0,0,1,2.39-2.64c.52-.34,1.06-.64,1.56-1a4.44,4.44,0,0,0,.66-.56,1.18,1.18,0,0,0,.19-.25,26.74,26.74,0,0,1-3.18-1.87,23.14,23.14,0,0,0-3.15-2.12,21.12,21.12,0,0,0-2.18-.81,6.32,6.32,0,0,1-1.4,2.5,22.53,22.53,0,0,0-2.22,3.17,18.1,18.1,0,0,0-1.43,3.54,30.35,30.35,0,0,0-1.09,7.81c0,.64-1,.64-1,0a36.4,36.4,0,0,1,.35-4.43,22.38,22.38,0,0,1,2.24-7.32,20.74,20.74,0,0,1,2.15-3.11,5.5,5.5,0,0,0,1.37-2.5l-.12-.11-.36-.14a.51.51,0,0,1-.33-.52,12.67,12.67,0,0,0-2.61-1.69c-.86-.42-1.75-.78-2.63-1.16a1,1,0,0,0-.21.19v.07h0a.24.24,0,0,1-.09.22A9.1,9.1,0,0,1,306,105c-.6.72-1.28,1.33-1.82,2.08a14.62,14.62,0,0,0-2.1,4.64,36.25,36.25,0,0,0-1,12,.51.51,0,0,1-1,0,41.31,41.31,0,0,1,.08-6.58,22.57,22.57,0,0,1,2.79-9.92,11.74,11.74,0,0,1,1.54-2A8.66,8.66,0,0,0,306,103a11.21,11.21,0,0,0,.55-1.28l.07-.16c-.48-.21-1-.43-1.4-.66a2,2,0,0,1-.55-.07.43.43,0,0,1-.36-.44l-.62-.38A8.8,8.8,0,0,1,301.34,97.7Zm7,30.68c-.46,2.12.08,4.31-.24,6.45a.51.51,0,0,1-.67.26.53.53,0,0,1-.31-.53c.34-2.14-.22-4.31.25-6.44A.5.5,0,0,1,308.36,128.38Zm11.44-.17a11.25,11.25,0,0,1,.42-2.82,10.57,10.57,0,0,1,2.94-4.75c.48-.44,1.16.28.71.72a9.54,9.54,0,0,0-2.75,4.61c-.52,1.94-.1,4-.58,5.9a.5.5,0,0,1-.67.26.51.51,0,0,1-.3-.53A16,16,0,0,0,319.8,128.21Zm-12.17,28.44a1.22,1.22,0,0,0,0-.27l.09.11A.51.51,0,0,1,307.63,156.65Zm-3.66-13v0Zm39.58-.11a34.26,34.26,0,0,1,3.32-1.66l1.67-.7a2.53,2.53,0,0,1,1.77-.26.54.54,0,0,1,.35.63.52.52,0,0,1-.63.35c-.44-.18-1,.18-1.45.35s-1,.41-1.53.64c-1,.47-2,1-3,1.52a.5.5,0,0,1-.66-.28.52.52,0,0,1,.15-.59ZM317.7,147c-.26.59-1.16.07-.87-.51a18.78,18.78,0,0,1,1.87-3.1c2.42-3.27,5.8-6.17,6.78-10.3.14-.63,1.16-.35,1,.27a12.32,12.32,0,0,1-1.29,3.27c-2.11,3.76-5.65,6.47-7.46,10.37Zm6.76-15.89c-1.16,2.32-2.32,4.64-3.64,7a.52.52,0,0,1-.71.14.52.52,0,0,1-.17-.65c1.31-2.25,2.52-4.57,3.65-7,.28-.59,1.15-.08.87.51Zm-5.79,4.29.31-.4h0l-.23.93ZM308,140a.52.52,0,0,1-.5.51h-.19a.39.39,0,0,1-.17-.11.44.44,0,0,1-.1-.16.34.34,0,0,1,0-.2v-.59a.51.51,0,0,1,.51-.51h.18a.39.39,0,0,1,.17.11.25.25,0,0,1,.1.16.34.34,0,0,1,0,.2Zm37.09-.86v-.06h0l.06-.08a10,10,0,0,0,.85-1.36.51.51,0,0,1,.68-.18.51.51,0,0,1,.18.69,10.23,10.23,0,0,1-2,2.71.51.51,0,0,1-.72-.07.5.5,0,0,1,0-.65c.2-.19.38-.39.57-.59l.25-.31ZM332.48,119Zm-21.81-12.83.16.09h-.13Zm-12.81,16.69-.16-.2.11.07ZM358,142Zm-27-11.06c-.65,2.15-1.16,4.37-1.73,6.54a.51.51,0,0,1-.67.27.5.5,0,0,1-.3-.53c1.16-4.36,2-8.89,4.63-12.64.37-.52,1.26,0,.87.51a20.22,20.22,0,0,0-2.8,5.85Zm-14.4-1.7c-.79,2.89-.17,5.94-.88,8.85a.51.51,0,0,1-1-.27c.69-2.91.09-6,.88-8.84a.51.51,0,0,1,.67-.27.5.5,0,0,1,.3.53ZM320.44,111l-.11.08-.13-.22.19.11Zm-19.29,15.53a.54.54,0,0,1,.36-.14.5.5,0,0,1,.35.14.55.55,0,0,1,.15.36v.84a.52.52,0,0,1-.5.51.61.61,0,0,1-.36-.15.55.55,0,0,1-.15-.36v-.84a.55.55,0,0,1,.15-.36Z"/><path class="cls-5" d="M390.74,239.3l-1.66-2.06h0a74.68,74.68,0,0,0,.85-8.32,2.11,2.11,0,0,0,.07-1.6h0c0-1.69,0-3.4-.07-5.09a.49.49,0,0,0,0-.17c-.07-.94-.14-1.89-.2-2.83a6.65,6.65,0,0,0,.35-.83,3.93,3.93,0,0,0,.27-1.73,2.32,2.32,0,0,0-1-1.71,26.18,26.18,0,0,0-.52-3.17,12.12,12.12,0,0,1-.42-3v-.09a7.84,7.84,0,0,0,0-3.2,3.35,3.35,0,0,0-.74-1.36c-.36-.38-.86-.66-1-1.16a6,6,0,0,1-.11-1.74v-1.84A8.41,8.41,0,0,0,386,196c-.28-.6-.71-1.1-1-1.68a3.16,3.16,0,0,1-.4-2,.6.6,0,0,0-.09-.43,5.86,5.86,0,0,0-.87-4.35c-.44-.82-.94-1.62-1.31-2.48a23,23,0,0,1-.88-2.58,38.73,38.73,0,0,0-1.67-5.26,15.65,15.65,0,0,0-1.33-2.32,9.25,9.25,0,0,1-1.24-2.32c-.45-1.53-.28-3.38-1.51-4.55-.49-1.16-.16-2.58-.67-3.77s-1.65-1.74-2.62-2.47a6.89,6.89,0,0,1-2.32-3c-.24-.7-.38-1.42-.59-2.11a11.68,11.68,0,0,0-.7-1.81,12.16,12.16,0,0,0-2.42-3.48.41.41,0,0,0-.13-.29,16.9,16.9,0,0,1-2.74-3.86,17.79,17.79,0,0,0-2.32-3.89,32.51,32.51,0,0,0-3-2.63l-.64-.59a6.21,6.21,0,0,1-1.6-2.6.4.4,0,0,0,.09-.3,2.55,2.55,0,0,0-2.08-2.32c-.66-.14-1.26-.14-1.74-.68a4.91,4.91,0,0,1-.82-1.61,6.48,6.48,0,0,0-.91-1.7,7.68,7.68,0,0,0-1.39-1.34c-.71-.57-1.66-1.32-2.56-1a12.76,12.76,0,0,0-5.46-6.1,13.57,13.57,0,0,1-3.55-2.5c-.47-.56-.8-1.16-1.25-1.78a4.94,4.94,0,0,0-1.62-1.32c-1.3-.68-2.87-1-3.94-2a.46.46,0,0,0-.51-.12h0a13.61,13.61,0,0,0-5.39-4.35l-.43-.22a.75.75,0,0,0-.13-.25,1,1,0,0,0-1.16-.43,16.38,16.38,0,0,1-1.9-1.16c-1.1-.73-2.08-1.63-3.25-2.32a13.62,13.62,0,0,0-2-.83l-.41-.07-.7-.23v-.19a.5.5,0,0,0-.6-.35.46.46,0,0,0-.18.1,18.45,18.45,0,0,0-5.74-3.25l-.47-.2a1.13,1.13,0,0,0-.54-.84,2.84,2.84,0,0,0-1.68-.18,12.94,12.94,0,0,1-1.46-.89,7.63,7.63,0,0,1-1.61-1.55h0a26.92,26.92,0,0,1-1.71-3.7l-.07-.09a.47.47,0,0,0-.18-.19c-1.16-.68-2.42-.08-3.47.55a6,6,0,0,1-2.82.9,1.64,1.64,0,0,0-.87-.81,3.62,3.62,0,0,0-1.26-.21,3.93,3.93,0,0,1-1.27-.25,23.64,23.64,0,0,1-2.09-1.16,7.1,7.1,0,0,0-2.45-.78,38.3,38.3,0,0,1-5.53-.86,19.67,19.67,0,0,1-2.54-1.1,7.65,7.65,0,0,0-2.52-.71c-1.78-.19-3.6.14-5.35-.26a.41.41,0,0,0-.32-.26,112.21,112.21,0,0,0-21.64-2,14,14,0,0,0-5.45.67A16.33,16.33,0,0,0,238.4,87c-1.85.07-3.71.16-5.56.25a87.17,87.17,0,0,0-10.83.86,49.52,49.52,0,0,0-5.08,1.25,25.48,25.48,0,0,1-2.58.62c-.89.16-1.8.2-2.7.33A20.23,20.23,0,0,0,207,92a28.92,28.92,0,0,1-4.26,1.36c-3.18.81-6.48,1.51-9.05,3.67a.33.33,0,0,0-.14.19,18.07,18.07,0,0,0-8.29,1.94,26,26,0,0,0-3.79,2.52,13.71,13.71,0,0,1-3.9,2.26c-.8.27-1.61.45-2.38.78a17.29,17.29,0,0,0-2.17,1.15c-1.4.83-2.86,1.53-4.32,2.24a31.55,31.55,0,0,0-4.18,2.32,26.52,26.52,0,0,0-3.39,2.78c-2.39,2.32-4.54,4.86-7.28,6.75a.18.18,0,0,0-.08.07c-2.61.67-4.52,2.67-6.26,4.63a41,41,0,0,1-3.18,3.28c-1.26,1.16-2.61,2.18-4,3.21a17.77,17.77,0,0,0-3.61,3.26c-1,1.28-1.6,2.75-2.44,4.09a70.94,70.94,0,0,1-5.38,7,35,35,0,0,0-5.44,8.21.58.58,0,0,0,0,.32.46.46,0,0,0-.17.17c-1.16,2.11-3.34,3.48-4.76,5.39a9.61,9.61,0,0,0-1.53,3.66c-.18.72-.34,1.45-.58,2.15a19.22,19.22,0,0,1-.86,1.91,16.62,16.62,0,0,0-1.61,4.15,28.83,28.83,0,0,1-1.16,4.38c-1.16,2.92-2.32,5.8-3.48,8.71a41.27,41.27,0,0,0-2.78,9.7h0a16.38,16.38,0,0,0-2.32,4.37,19.45,19.45,0,0,0-.53,5.37,42.54,42.54,0,0,1-.69,5.51c-.31,1.88-.62,3.76-1,5.63s-.65,3.94-1,5.93a.46.46,0,0,0-.59.31.4.4,0,0,0,0,.15q.41,10,.41,20v5.68a.46.46,0,0,0,.42.49h0c.32,2.87.61,5.79,1,8.6a63.12,63.12,0,0,0,2.17,9.38c.53,1.76,1.16,3.47,1.67,5.23a.48.48,0,0,0,.15.22,92.83,92.83,0,0,0,3.39,11.53c1.46,3.94,3.16,7.8,4.79,11.67.93,2.19,1.83,4.38,2.67,6.6h0a.86.86,0,0,0,0,.32,4.84,4.84,0,0,0,1.16,1.5c.93,1.16,1.84,2.25,2.72,3.42,1.77,2.38,3.37,4.87,5,7.36a135.6,135.6,0,0,0,10.12,13.82c1.89,2.26,3.87,4.45,5.91,6.57a.49.49,0,0,0,.22.46c4.22,2.95,8.45,5.9,12.41,9.21,1.95,1.64,3.83,3.37,5.62,5.2a30.14,30.14,0,0,0,2.67,2.51,19,19,0,0,0,3.23,1.9,39.18,39.18,0,0,1,6.52,4.39.48.48,0,0,0,.15.22,11.7,11.7,0,0,0,3.82,2.32,7.48,7.48,0,0,0,2.31.18,5.68,5.68,0,0,1,2.32.2,10.24,10.24,0,0,1,3.12,2.7,5.81,5.81,0,0,0,3.13,1.84.44.44,0,0,0,.34.33,44.22,44.22,0,0,1,7.18,1.57,35,35,0,0,1,6.64,2.66,3.21,3.21,0,0,1,1.16,1,2.63,2.63,0,0,0,1.09,1,6.17,6.17,0,0,0,3,0,9.23,9.23,0,0,1,3.48.65c1.15.38,2.31.71,3.47,1a35.35,35.35,0,0,0,7.94.77.47.47,0,0,0,.38.19c2.65.07,5.12,1.16,7.69,1.67a33.9,33.9,0,0,0,8.11.4c1.54-.08,3.1-.22,4.64-.36q9.15-.4,18.29-.49a.39.39,0,0,0,.39,0h.43a.48.48,0,0,0,.41-.22,16.16,16.16,0,0,1,4.76-.1,17.38,17.38,0,0,0,2.7,0,8.72,8.72,0,0,0,2.73-.83,19.85,19.85,0,0,1,2.72-1.16,13.79,13.79,0,0,1,3-.4,33.65,33.65,0,0,0,6.21-1.16c4.12-1.1,8.23-2.25,12.24-3.69A87.9,87.9,0,0,0,308,362.68c4.24-2.25,8.4-4.64,12.58-7a.42.42,0,0,0,.24-.45,51.32,51.32,0,0,1,7.46-4.5,40.19,40.19,0,0,0,4.41-2.19,27.35,27.35,0,0,0,3.75-2.95c5-4.56,9.72-9.37,14.33-14.27q3.86-4.1,7.56-8.31a.4.4,0,0,0,.39-.16,122.44,122.44,0,0,0,19.38-32.56c.67-1.66,1.29-3.33,1.89-5a33.45,33.45,0,0,1,2.17-5.17.49.49,0,0,0-.17-.67h0a31.68,31.68,0,0,0,2-7.48.42.42,0,0,0,.11-.18,44.15,44.15,0,0,0,2.67-8.55c.24-1.48.36-3,.61-4.46a33.48,33.48,0,0,1,.93-4,.48.48,0,0,0,.16-.36,33.8,33.8,0,0,1,2.85-12.36.5.5,0,0,0,.54-.37A3,3,0,0,0,390.74,239.3Zm-87-139.23.62.38a.44.44,0,0,0,.36.44,2,2,0,0,0,.55.07c.45.23.92.45,1.4.66l-.07.16a12,12,0,0,1-.55,1.28,8.94,8.94,0,0,1-1.57,2,11.74,11.74,0,0,0-1.54,2,22.43,22.43,0,0,0-2.77,9.86,40.17,40.17,0,0,0-.09,6.58c0,.64,1.05.65,1,0a36.26,36.26,0,0,1,1-11.83,14.62,14.62,0,0,1,2.1-4.64c.54-.75,1.23-1.36,1.82-2.08a9.1,9.1,0,0,0,1.38-2.45.24.24,0,0,1,.09-.22c.09-.07.08-.22.12-.32l.13.06c.89.36,1.78.71,2.64,1.15A12.79,12.79,0,0,1,313,105a.55.55,0,0,0,.34.52l.36.14.11.11a5.48,5.48,0,0,1-1.36,2.5,20.74,20.74,0,0,0-2.15,3.11,22.64,22.64,0,0,0-2.25,7.32,38.5,38.5,0,0,0-.34,4.42.5.5,0,0,0,1,0,31.23,31.23,0,0,1,1.09-7.8,17.88,17.88,0,0,1,1.44-3.54,22.54,22.54,0,0,1,2.16-3.24,6.3,6.3,0,0,0,1.33-2.58,21.12,21.12,0,0,1,2.18.81,23.14,23.14,0,0,1,3.15,2.12,26.74,26.74,0,0,0,3.18,1.87,1.18,1.18,0,0,1-.19.25,4.44,4.44,0,0,1-.66.56c-.5.36-1,.66-1.56,1a5.48,5.48,0,0,0-2.39,2.64,18,18,0,0,0-.61,2.18l-.58,2.23c-.2.75-.4,1.57-.62,2.32a4.66,4.66,0,0,1-.81,1.85c-.41.49.3,1.15.72.71a8.88,8.88,0,0,0,1.49-3.57l1.16-4.45a5.09,5.09,0,0,1,.71-1.72,4.35,4.35,0,0,1,1.22-1.16,13.91,13.91,0,0,0,2.71-1.93,2.77,2.77,0,0,0,.31-.45,26.27,26.27,0,0,1,2.61,1.54,8.82,8.82,0,0,1,2.72,2.82c-.08.43-.05.9-.11,1.29a16.09,16.09,0,0,1-.43,2,15.49,15.49,0,0,1-1.62,4,.51.51,0,0,0,.88.51,17.83,17.83,0,0,0,1.7-3.93,14,14,0,0,0,.45-2c.06-.36.12-.73.15-1.09V116a12.45,12.45,0,0,0,2.89,1.4,5.88,5.88,0,0,1,1.65.94,9.2,9.2,0,0,1,1.34,1.76,8.35,8.35,0,0,0,2.32,2.11h0c-2.22,3.36-4.22,6.84-6.2,10.32a16.53,16.53,0,0,0-2.23,5.26,11.56,11.56,0,0,1-.64,2.64,7.08,7.08,0,0,1-1.31,1.82c-1,1.16-2.31,2.41-2.23,4.1a.51.51,0,0,0,.58.43.52.52,0,0,0,.43-.43c0-1.39,1.09-2.42,1.93-3.38a9.33,9.33,0,0,0,1.29-1.77,8.62,8.62,0,0,0,.74-2.49,12.25,12.25,0,0,1,.7-2.74,24.1,24.1,0,0,1,1.35-2.5c1-1.73,2-3.45,3-5.17s2.12-3.51,3.35-5.39l.1-.16.26.15a17.28,17.28,0,0,1,3.31,2.32,11.3,11.3,0,0,1,2.58,3.85.34.34,0,0,0,0,.2,13.08,13.08,0,0,1-.77,4.33,15.25,15.25,0,0,1-2.17,3.88,33.75,33.75,0,0,0-2.67,3.84c-.75,1.39-1.38,2.83-2,4.25l-2.32,5.1c-.27.6.6,1.11.88.51,1.39-3,2.69-6.12,4.24-9.07,1.45-2.74,3.7-4.94,4.85-7.84a13.84,13.84,0,0,0,.93-4.63.57.57,0,0,0,.13-.08c.33-.27.95.23,1.16.4a13.76,13.76,0,0,1,1.16,1,4.91,4.91,0,0,1,1,1.33c.24.51.42,1.05.65,1.58a3.32,3.32,0,0,0,1.53,1.71h.08a3.26,3.26,0,0,0,.44.15,4.46,4.46,0,0,1,1.51.41,1.5,1.5,0,0,1,.55.62.62.62,0,0,0-.08.4c.35,2.32,2.32,3.88,4,5.3a12.11,12.11,0,0,1,2.32,2.37l.12.2a.11.11,0,0,1,0,.08,20.18,20.18,0,0,1,1.08,2.06.53.53,0,0,0-.15.11l-.68.63-.07.07-4.57,4.33c-1.68,1.59-3.33,3.28-5.1,4.77a8.11,8.11,0,0,1-2.73,1.57,14.13,14.13,0,0,0-1.58.57,15.28,15.28,0,0,0-1.43.79h0a6.72,6.72,0,0,1-3,1,13.07,13.07,0,0,1-1.77,0l-1.46-.07a11.61,11.61,0,0,0-3.48.23c-.81.2-2,.72-2.74,0-.45-.46-1.16.25-.7.72l.18.16a2.8,2.8,0,0,0,2.32.37,19.87,19.87,0,0,1,3.07-.51,50.69,50.69,0,0,0,5.23,0,6.41,6.41,0,0,0,1.42-.35c1.08-.38,2-1.16,3-1.55l.67-.25a12.16,12.16,0,0,0,2.52-1.07l.17-.13a17.29,17.29,0,0,0,1.88-1.54c.16-.16.32-.32.5-.48l2.78-2.63,1.72-1.63.91-.86,1.47-1.39.72-.68,1.36-1.29c0,.1.1.21.16.31a17.55,17.55,0,0,0,2.32,3.17.41.41,0,0,0,.15.32,11.91,11.91,0,0,1,2.31,3.06,26.25,26.25,0,0,1,1.37,3.94,7.71,7.71,0,0,0,2,3.13,10.86,10.86,0,0,0,1.47,1.16,5.29,5.29,0,0,1,1.31,1.09,3.6,3.6,0,0,1,.52,2v.49a.56.56,0,0,0-.17.09,9.4,9.4,0,0,0-2,3.48,4.63,4.63,0,0,1-1.1,1.6,5.52,5.52,0,0,1-2.12,1,46.16,46.16,0,0,1-5.32,1.25,50.39,50.39,0,0,0-5.47.66,52.34,52.34,0,0,0-5.19,2.24c-.59.23-.34,1.16.28,1,1.6-.61,3.07-1.55,4.63-2.1a32.54,32.54,0,0,1,5.47-.73,42.34,42.34,0,0,0,5.68-1.26,5.62,5.62,0,0,0,3.71-2.32c.7-1.16,1-2.61,1.84-3.63a.91.91,0,0,0,.12.35.42.42,0,0,0,.16.42c1.16.94,1,2.65,1.31,3.95.41,1.65,1.57,2.9,2.32,4.36,1.65,3.08,1.83,6.71,3.48,9.79.86,1.58,2.32,3.59,1.34,5.44a.51.51,0,0,0,.19.68l.06,0a4.46,4.46,0,0,0,.88,2.5,6,6,0,0,1,.83,1.54,6.9,6.9,0,0,1,.3,1.68c.08,1.16,0,2.41,0,3.61a3.05,3.05,0,0,0,.42,1.61,14.82,14.82,0,0,0,1.08,1.16,4.19,4.19,0,0,1,.46,3.19h-.14a10.23,10.23,0,0,1-3.22,0l-3-.35a40,40,0,0,1-6.12-1.24c-1.92-.58-3.74-1.44-5.62-2.17a25.68,25.68,0,0,0-2.85-.94c-1-.25-2-.44-3.06-.69a7.15,7.15,0,0,1-4.82-3c-.32-.57-1.16,0-.87.51a7.19,7.19,0,0,0,4.08,3.09c2,.7,4.21.93,6.24,1.65s3.89,1.63,5.88,2.32a35.91,35.91,0,0,0,6.31,1.39c1.16.16,2.38.3,3.58.44a12.67,12.67,0,0,0,3.48,0,12.16,12.16,0,0,0,.37,2.56c.22,1,.41,2,.54,3a.39.39,0,0,0-.31.24,11,11,0,0,1-7.81-.17c-1.37-.56-2.66-1.33-4.07-1.77a22,22,0,0,0-4.17-.77,15.09,15.09,0,0,1-4.64-1.08c-.59-.26-1.16.61-.51.89,2.72,1.25,5.79,1,8.6,1.8a37.86,37.86,0,0,1,4.35,1.85,11.84,11.84,0,0,0,4.32.9,12,12,0,0,0,4.32-.74c.1,1,.18,2.12.26,3.19a2.15,2.15,0,0,1-.55.49,6.49,6.49,0,0,1-5.27.14c-.6-.23-.87.75-.27,1a7.8,7.8,0,0,0,3.58.46,6.1,6.1,0,0,0,2.6-.78,6.32,6.32,0,0,0,.09,1.3v.11c.1,1.71.12,3.47.1,5.13a.75.75,0,0,0-.26-.21,23.78,23.78,0,0,0-2.76-.59,9,9,0,0,1-2.55-1c-1.42-.86-2.66-2-4.32-2.45-.63-.15-.91.83-.27,1,1.65.41,2.88,1.67,4.33,2.48a9.5,9.5,0,0,0,2.48,1,24.89,24.89,0,0,1,2.82.62.42.42,0,0,0,.53-.17v1.23a1.54,1.54,0,0,1-.68.61,3.89,3.89,0,0,1-2.16.23,17.8,17.8,0,0,1-4.64-1.58,39.6,39.6,0,0,0-9.68-2.54,8.85,8.85,0,0,1-4.64-1.48c-.49-.41-1.15.3-.7.72a8.73,8.73,0,0,0,4.41,1.66,51.39,51.39,0,0,1,5.38,1,39.16,39.16,0,0,1,5.41,1.84,12.77,12.77,0,0,0,5.19,1.45,4.11,4.11,0,0,0,1.94-.46c-.12,2.14-.36,4.28-.67,6.41a81.88,81.88,0,0,1-14.44-6.77q-2-1.17-3.91-2.45c-.54-.36-1,.51-.51.87a82.08,82.08,0,0,0,14.41,7.63c1.44.59,2.9,1.16,4.38,1.65a.45.45,0,0,0,.23,0,.58.58,0,0,0,.14.47l.14.17.06.07,1.3,1.62c.21.27.44.54.64.82a2.59,2.59,0,0,1,.26.46,1.82,1.82,0,0,0-1.31.18l-.31.19a4.38,4.38,0,0,0-1,1,4.69,4.69,0,0,1-1.16,1.27c-.59.39-1.06-.07-1.57-.35a4.29,4.29,0,0,0-3.58-.42,5.21,5.21,0,0,0-1.61,1.09c-.48.4-1.07.86-1.72.57a1.53,1.53,0,0,0-1.69,0,32.3,32.3,0,0,1-10.43-5.32c-.52-.4-1,.48-.51.88a33.1,33.1,0,0,0,10.22,5.27,4.29,4.29,0,0,0-.26.58,10,10,0,0,1-3.68,1.16,2.83,2.83,0,0,1-1-.09h-.05a6.24,6.24,0,0,1-2-1.24h0l-.75-.63-3.71-2.93a11.57,11.57,0,0,0-1.78-1.16,20.19,20.19,0,0,0-2-.85l-.37-.17a10.74,10.74,0,0,1-1.57-.92c-.81-.54-1.59-1.16-2.32-1.7a.46.46,0,0,0-.34-.08,7.48,7.48,0,0,1-2.71-1.8,8,8,0,0,0-1.37-1.29,4.07,4.07,0,0,1-.65-.53l-.07-.07c-.18-.21-.35-.43-.53-.66a9.08,9.08,0,0,0-1.16-1.16l-.61-.51-.86-.62-.21-.14a26.17,26.17,0,0,1-2.73-2.19,43.64,43.64,0,0,1-3.81-4.12l-1.35-1.66c-1.16-1.42-2.32-2.86-3.41-4.3-.58-.74-1.16-1.49-1.71-2.23-.38-.49-.72-1-1.08-1.45-1.07-1.45-2.12-2.91-3.17-4.38-.38-.56-.79-1.16-1.16-1.66a.51.51,0,0,0-.22-.19l-1.6-3.09-1.64-3.18-1.68-3.24c-.36-.7-.72-1.42-1.16-2.1-.15-.24-.3-.5-.47-.74-.61-.92-1.36-1.73-2-2.63a14.26,14.26,0,0,1-1.47-2.82,44.23,44.23,0,0,1-1.54-4.64l-.49-1.7a6.45,6.45,0,0,0-1.53-2.78l-.17-.18a5.5,5.5,0,0,1-1.17-1.58,2.25,2.25,0,0,1-.19-.57.38.38,0,0,0-.41-.37h0a5.59,5.59,0,0,1-1.1-2.32c-.22-.89-.39-1.78-.64-2.67v-.34a23.55,23.55,0,0,0-1.73-4.19l-.24-.44h.12a2,2,0,0,0,1.3-1.35,5,5,0,0,0,.17-1.27,3.24,3.24,0,0,1,.08-1.16V165c.2-.38.68-.26,1.16-.11l.52.18a2.78,2.78,0,0,0,.91.12,1.89,1.89,0,0,0,1.15-.57,1.7,1.7,0,0,1,2.32.31c.55.55,1,1.63,1.94,1.42s1.06-1.25,1.3-2l.32-1.75v-.15a2.84,2.84,0,0,1,.58-1.27,1.21,1.21,0,0,1,1.55.13,6.47,6.47,0,0,1,.94.87c.45.46,1.16-.24.71-.72l-.35-.36-.08-.08a3.55,3.55,0,0,0-1.76-1A2,2,0,0,0,321,161a6.12,6.12,0,0,0-.47,1.23l-.23.71-.28.83a8.2,8.2,0,0,1-.47,1.37c-.2.39-.41,0-.59-.24a6.17,6.17,0,0,0-.92-1,3.56,3.56,0,0,0-.58-.37,2.49,2.49,0,0,0-.51-.21,2.68,2.68,0,0,0-1.26,0,2.72,2.72,0,0,0-1.16.67c-.54.43-1.25,0-1.83-.17a1.6,1.6,0,0,0-1.85.57c-.5.77-.2,1.74-.38,2.58a1.16,1.16,0,0,1-.62.89.76.76,0,0,1-.47,0l-.2-.3a.48.48,0,0,0-.21-.19.5.5,0,0,0-.43-.07,24,24,0,0,1-2.94-7.48c-.38-1.4-.75-2.82-1.25-4.18a21.11,21.11,0,0,0-.86-2,7.82,7.82,0,0,1-.89-2.21,11.62,11.62,0,0,1,.39-2.75h0a6,6,0,0,0,0-1,8.18,8.18,0,0,0-.27-1.84.4.4,0,0,0-.19-.27c-.14-.48-.29-.95-.44-1.43a3.75,3.75,0,0,1-.28-1.66c.14-1,.75-1.91.44-3a.47.47,0,0,0-.31-.33,19.11,19.11,0,0,0-1.3-6.93c-.13-.34-.26-.66-.41-1a40.36,40.36,0,0,0-1.91-3.84c-.43-.75-.86-1.51-1.3-2.25l-.31-.56c-.59-1-1.16-2-1.8-3h0l-.89-1.45a.44.44,0,0,0,.28-.45,11.91,11.91,0,0,1,.18-2.73l.07-.28a13.08,13.08,0,0,1,1.45-3.91,7.71,7.71,0,0,0,1.16-3.14,7.67,7.67,0,0,0-.92-3.53.38.38,0,0,0-.49-.25,4.87,4.87,0,0,1,0-1.57,6.33,6.33,0,0,1,1.16-2.59l.28-.33a3,3,0,0,1,.37-.35c.41-.36.87-.65,1.29-1h0a3.71,3.71,0,0,0,.73-.75,1.74,1.74,0,0,0-.11-2.32.42.42,0,0,0-.06-.39c-.48-.69,0-1.36.6-1.82a20.68,20.68,0,0,0,1.3,3A9,9,0,0,0,303.73,100.07Zm-11.6,17h0l-1.47-2.42a35.85,35.85,0,0,0-3.75-5.61,13.25,13.25,0,0,0-1.07-1c-.28-.24-1-.74-.85-1.16s.63-.37.91-.37a7.26,7.26,0,0,1,1.54.16,8.77,8.77,0,0,1,2.77,1.16,9.86,9.86,0,0,1,2.09,2,1.83,1.83,0,0,0,2.49.55,2.63,2.63,0,0,0,1.16-1.92V108a1.92,1.92,0,0,1,.09.32,3.76,3.76,0,0,1,.07,1.6,11.68,11.68,0,0,1-1.43,3,13,13,0,0,0-1.47,5.79l-.15-.23-.24-.4ZM387.42,254h0a37.22,37.22,0,0,0-1,4.32c-.27,1.51-.38,3-.63,4.53a41,41,0,0,1-2.38,7.82.54.54,0,0,0-.38.47,30.78,30.78,0,0,1-2.31,8.64.41.41,0,0,0,.14.5c-1.31,2.61-2.14,5.46-3.19,8.19-1.16,2.94-2.4,5.85-3.77,8.7a122.68,122.68,0,0,1-9.5,16.4q-3,4.29-6.27,8.32a.43.43,0,0,0-.39.15q-6.68,7.62-13.81,14.79-3.56,3.58-7.26,7a33.12,33.12,0,0,1-3.59,3.1,23.78,23.78,0,0,1-4.27,2.31,41.85,41.85,0,0,0-4.83,2.53c-1.59,1-3.12,2.05-4.64,3.12a.59.59,0,0,0-.22.31q-5.1,2.91-10.25,5.8a96,96,0,0,1-11.28,5.34c-4,1.51-8.12,2.64-12.14,3.78a40.39,40.39,0,0,1-6.26,1.37c-1,.1-2,.12-3,.25a9.57,9.57,0,0,0-2.86.87,14.49,14.49,0,0,1-3,1.26,10.82,10.82,0,0,1-3.11.18,15.21,15.21,0,0,0-6,.32q-9.27.08-18.54.48h-.78a.46.46,0,0,0-.22.06,65.33,65.33,0,0,1-7.13.34,25.75,25.75,0,0,1-4.1-.39,38.36,38.36,0,0,1-3.8-.95,17.83,17.83,0,0,0-4.08-.78.5.5,0,0,0-.42-.22,32.62,32.62,0,0,1-7.31-.59,36.17,36.17,0,0,1-3.55-.9,16,16,0,0,0-3.48-.87,5.58,5.58,0,0,0-1.58.07,5.46,5.46,0,0,1-1.56.12,1.48,1.48,0,0,1-1-.77,3.89,3.89,0,0,0-1.16-1.09,20.45,20.45,0,0,0-3-1.39c-1.16-.47-2.22-.88-3.35-1.25a45,45,0,0,0-7.51-1.77.5.5,0,0,0-.47-.36,5,5,0,0,1-3.27-2,9.36,9.36,0,0,0-3.07-2.52c-1.47-.6-3,0-4.48-.35a8,8,0,0,1-3.12-1.61.8.8,0,0,0-.15-.21,49.46,49.46,0,0,0-6.34-4.5c-1.16-.62-2.32-1.16-3.37-1.82a16.69,16.69,0,0,1-2.77-2.4c-1.82-1.83-3.66-3.6-5.61-5.27s-4-3.24-6-4.77-4.33-3.11-6.5-4.63a.94.94,0,0,0-.12-.18,127.86,127.86,0,0,1-10.57-12.32c-1.62-2.15-3.19-4.37-4.64-6.61s-3-4.77-4.63-7.09c-.87-1.23-1.77-2.45-2.72-3.65-.48-.62-1-1.24-1.49-1.84l-.72-.85a4.32,4.32,0,0,1-.34-.39h0a.51.51,0,0,0,0-.74.54.54,0,0,0-.27-.14c-3-7.72-6.65-15.15-9-23.08-.69-2.32-1.28-4.58-1.79-6.89a.42.42,0,0,0-.24-.33c-.92-2.76-1.81-5.53-2.52-8.34a71.75,71.75,0,0,1-1.56-9.44c-.22-1.87-.43-3.72-.64-5.57a.5.5,0,0,0-.3-.42q.08-9.48-.2-18.94c0-1.66-.1-3.32-.16-5a.42.42,0,0,0,.45-.36h0q1-5.62,1.89-11.26c.3-1.82.64-3.64.79-5.47a37.62,37.62,0,0,1,.35-5.41,14.32,14.32,0,0,1,2.42-5,.37.37,0,0,0,.07-.14.65.65,0,0,0,.08-.22A38.3,38.3,0,0,1,110,185.7c1.1-2.87,2.32-5.7,3.48-8.56a25.19,25.19,0,0,0,1.38-4.34,16.68,16.68,0,0,1,1.24-4.15,21.26,21.26,0,0,0,1.63-3.88,15.75,15.75,0,0,1,1.21-4c1.37-2.32,3.87-3.69,5.2-6.05a.4.4,0,0,0,.07-.3.34.34,0,0,0,.14-.18c2.32-5.36,6.76-9.28,10-14,.86-1.25,1.57-2.57,2.32-3.89a10.5,10.5,0,0,1,1.4-2,13.88,13.88,0,0,1,1.82-1.61,55.64,55.64,0,0,0,7.33-6.3c2-2.15,3.93-4.75,7-5.44a.44.44,0,0,0,.31-.25,48.58,48.58,0,0,0,6.29-5.79,34.36,34.36,0,0,1,3.14-2.88,23.51,23.51,0,0,1,3.94-2.44c1.42-.72,2.88-1.37,4.29-2.12a24.59,24.59,0,0,1,4.38-2.2,18.55,18.55,0,0,0,2.25-.75,11.84,11.84,0,0,0,2-1.16c1.22-.83,2.31-1.81,3.61-2.59a17,17,0,0,1,9.87-2.61.47.47,0,0,0,.49-.46.52.52,0,0,0-.05-.24c2.16-1.69,4.92-2.32,7.54-3a39.22,39.22,0,0,0,4.15-1.16c1.5-.55,2.9-1.39,4.44-1.83a14.39,14.39,0,0,1,2.52-.41,18,18,0,0,0,2.52-.45c1.66-.4,3.27-1,4.94-1.31a63.4,63.4,0,0,1,10.56-1l6.13-.27a16.32,16.32,0,0,1,5.7.4.49.49,0,0,0,.6-.32.3.3,0,0,0,0-.1,14.13,14.13,0,0,1,4.25-.38c1.76,0,3.48,0,5.26.08a102.89,102.89,0,0,1,10.53.9c1.77.25,3.53.54,5.3.86a.39.39,0,0,0,.25.17,14.5,14.5,0,0,0,4.91.42,9.26,9.26,0,0,1,2.46.3,22.11,22.11,0,0,1,2.32,1.07,17.78,17.78,0,0,0,5,1.16,24.11,24.11,0,0,1,2.52.32,7.37,7.37,0,0,1,2.15.94,7.94,7.94,0,0,0,2.32,1,12.18,12.18,0,0,0,1.34.14,1.55,1.55,0,0,1,.31.06.44.44,0,0,0-.14.22.5.5,0,0,0,.34.62h.33a.52.52,0,0,0,.71.2.48.48,0,0,0,.2-.2,6.33,6.33,0,0,0,2.53-.62A9.12,9.12,0,0,1,299,94.14a2.61,2.61,0,0,0-.57.79,2.09,2.09,0,0,0,.08,2,.45.45,0,0,0,.2.6.68.68,0,0,1,.16.85,2.54,2.54,0,0,1-1,1,7.85,7.85,0,0,0-2,2,7.19,7.19,0,0,0-1.06,2.67,9,9,0,0,0,0,3.1c.12.83.18,2.24-.9,2.51-.47.1-.79-.33-1-.64a10,10,0,0,0-1-1.07,9.16,9.16,0,0,0-5.3-2.39,6.14,6.14,0,0,0-1,0c.36-.34-.1-1-.64-.78-1.37.65-2.72,1.36-4.12,1.91a6,6,0,0,1-4.17.43c-.61-.21-.88.77-.26,1a6.61,6.61,0,0,0,4.55-.37c1.09-.41,2.16-.94,3.21-1.45-.55.83.1,1.79.75,2.32a16.08,16.08,0,0,1,2.12,2.32l.32.46.41.61c.33.52.66,1.05,1,1.58,2.55,4.21,5.13,8.42,7.63,12.65s4.91,8.8,4.64,13.83a.43.43,0,0,0,.38.47,6.13,6.13,0,0,1-.18.61,6.3,6.3,0,0,0-.33,1.49,6.09,6.09,0,0,0,.33,1.74l.56,1.8a.51.51,0,0,0,.15.23,6.7,6.7,0,0,1,.13,2.32v.15a.44.44,0,0,0-.21.3c-.16.65-2.4-.23-2.76-.37a23.46,23.46,0,0,1-3.29-1.64l-7.06-4a.51.51,0,0,0-.51.88c2.66,1.52,5.29,3.08,8,4.54A15.81,15.81,0,0,0,300,150a4.59,4.59,0,0,0,1.73.19,5.7,5.7,0,0,0-.09.83c0,1.54,1.08,2.9,1.63,4.29,1.08,2.77,1.57,5.73,2.57,8.53a16.29,16.29,0,0,0,2.26,4.36.51.51,0,0,0,.51.21l.1.08a21.66,21.66,0,0,1,2.45,5.6c.53,1.89.66,4,2.09,5.52a.48.48,0,0,0,.14.09,4.44,4.44,0,0,0,1.26,1.88,6.19,6.19,0,0,1,1.65,2.24c.37,1,.57,2.08.88,3.1s.68,2.17,1.09,3.23a19.7,19.7,0,0,0,1.36,3,23.47,23.47,0,0,0,1.88,2.54,31.64,31.64,0,0,1,3,5.28.44.44,0,0,0-.19.37,23.92,23.92,0,0,1-.91,4.8c-.47,1.53-1.16,3-1.68,4.49a46.5,46.5,0,0,0-1.6,9.37c-.06.65,1,.64,1,0a42.78,42.78,0,0,1,1.65-9.4c.51-1.52,1.23-3,1.68-4.5a22.85,22.85,0,0,0,.74-3.77l3.41,6.59a.47.47,0,0,0,.26.24q4.74,6.81,9.95,13.28a69.37,69.37,0,0,0,5.27,6.08,25.17,25.17,0,0,0,3,2.49,13.14,13.14,0,0,1,2.78,2.32,9.54,9.54,0,0,0,1.31,1.53,9.69,9.69,0,0,1,.92.66c.25.23.46.5.69.74a8.36,8.36,0,0,0,3,2l.43.16h0l1.59,1.16a14.7,14.7,0,0,0,2.2,1.37c.72.33,1.5.55,2.2.9a10.86,10.86,0,0,1,1.89,1.25c1.33,1,2.64,2.1,4,3.14a9.21,9.21,0,0,0,2.87,1.86h0a70.71,70.71,0,0,1-2.21,9.39.51.51,0,0,0,.44.57.53.53,0,0,0,.53-.31,70.2,70.2,0,0,0,2.21-9.38.31.31,0,0,0,0-.19h.06a10.69,10.69,0,0,0,4.93-1.6A.49.49,0,0,0,377,246h0a1.45,1.45,0,0,1,.18-.32.53.53,0,0,0,.25-.22h.09a.5.5,0,0,1,.44.09l.12.05a1.9,1.9,0,0,0,.88.21h.15a71.57,71.57,0,0,0-5,13.91c-.36,1.45-.66,2.92-.93,4.39-.1.64.87.92,1,.27a70.46,70.46,0,0,1,6.14-18.8.51.51,0,0,0,0-.3,11.68,11.68,0,0,1,1.56-1.16,3.29,3.29,0,0,1,3.22.38,2.65,2.65,0,0,0,1.25.5c-.51.86-1.16,1.6-1.73,2.41a11,11,0,0,0-1.51,3.55c-.77,2.87-1.5,5.75-2.2,8.62a.53.53,0,0,0,.42.59.51.51,0,0,0,.55-.31c.72-2.83,1.45-5.66,2.17-8.48a10.5,10.5,0,0,1,1.47-3.48,17.86,17.86,0,0,0,2.06-3,.88.88,0,0,0,0-.23l.29-.25a13.09,13.09,0,0,0,1.15-1.43,2.33,2.33,0,0,1,1-.75,34.44,34.44,0,0,0-2.64,11.8Z"/><path class="cls-5" d="M301,127.77a.55.55,0,0,0,.15.36.61.61,0,0,0,.36.15.52.52,0,0,0,.5-.51v-.84a.55.55,0,0,0-.15-.36.5.5,0,0,0-.35-.14.54.54,0,0,0-.36.14.55.55,0,0,0-.15.36Z"/><path class="cls-5" d="M307.14,134.56a.51.51,0,0,0,1,.27c.32-2.14-.22-4.33.24-6.45.14-.64-.83-.9-1-.26C306.92,130.25,307.48,132.42,307.14,134.56Z"/><path class="cls-5" d="M307.81,139.07a.39.39,0,0,0-.17-.11.54.54,0,0,0-.18,0,.51.51,0,0,0-.51.51h0v.6a.31.31,0,0,0,0,.19.44.44,0,0,0,.1.16.42.42,0,0,0,.16.11.34.34,0,0,0,.2,0,.51.51,0,0,0,.5-.51v-.59a.34.34,0,0,0,0-.2A.27.27,0,0,0,307.81,139.07Z"/><path class="cls-5" d="M315.68,128.93c-.79,2.89-.19,5.93-.89,8.84a.51.51,0,0,0,1,.27c.71-2.91.09-6,.88-8.85a.51.51,0,0,0-1-.26Z"/><path class="cls-5" d="M319.57,131.56a.51.51,0,0,0,1,.26c.48-1.93.06-4,.58-5.9a9.61,9.61,0,0,1,2.75-4.59c.48-.44-.23-1.15-.71-.71a10.57,10.57,0,0,0-2.94,4.75,11.17,11.17,0,0,0-.42,2.81A16.67,16.67,0,0,1,319.57,131.56Z"/><path class="cls-5" d="M323.59,130.61c-1.13,2.32-2.34,4.63-3.65,6.95a.53.53,0,0,0,.23.69.52.52,0,0,0,.65-.18c1.31-2.25,2.52-4.55,3.64-6.95C324.74,130.49,323.87,130,323.59,130.61Z"/><path class="cls-5" d="M326.45,133.37c.14-.63-.83-.91-1-.27-1,4.13-4.36,7-6.78,10.29a18.51,18.51,0,0,0-1.87,3.07c-.26.58.61,1.16.87.51,1.81-3.9,5.35-6.61,7.46-10.34A12.39,12.39,0,0,0,326.45,133.37Z"/><path class="cls-5" d="M332.93,124.53c-2.65,3.75-3.47,8.28-4.63,12.64a.51.51,0,0,0,.44.57.52.52,0,0,0,.53-.31c.57-2.17,1.08-4.39,1.73-6.54a20.47,20.47,0,0,1,2.8-5.8C334.22,124.52,333.3,124,332.93,124.53Z"/><path class="cls-5" d="M344.06,144.42c1-.54,2-1,3-1.52.5-.23,1-.45,1.53-.64s1-.53,1.45-.35a.52.52,0,0,0,.63-.35.54.54,0,0,0-.35-.63,2.53,2.53,0,0,0-1.77.26l-1.67.7a34.26,34.26,0,0,0-3.32,1.66.51.51,0,0,0,.51.87Z"/><path class="cls-5" d="M344.76,139.53a8,8,0,0,1-.57.59.51.51,0,0,0,.06.72.51.51,0,0,0,.66,0,10.24,10.24,0,0,0,2.06-2.7.52.52,0,0,0-.19-.69.5.5,0,0,0-.68.18,10.66,10.66,0,0,1-.85,1.36l-.05.08h0v.06l-.06.07Z"/><path class="cls-5" d="M355.71,168.22c.9-.38,1.89-.57,2.83-.87a5.9,5.9,0,0,0,2.9-1.87,41.22,41.22,0,0,0,2.48-3.75c.34-.56-.53-1.07-.88-.51a33.86,33.86,0,0,1-2.15,3.32,5,5,0,0,1-2.82,1.89c-.42.14-.85.26-1.29.37a41.93,41.93,0,0,0,3.2-5.2c.49-1,1.24-2.47,2.55-2.39a.51.51,0,0,0,0-1,3.25,3.25,0,0,0-2.81,1.75c-.74,1.16-1.27,2.32-2,3.48a39.47,39.47,0,0,1-2.67,4l-.16.08a8.81,8.81,0,0,0-2.69,2.32c-1,1.23-2.06,2.48-3.09,3.72a.51.51,0,0,0,.72.72A41.69,41.69,0,0,0,355.71,168.22Z"/><path class="cls-5" d="M375.68,179.22a7.1,7.1,0,0,1-3.82,1.42c-1.6.24-3.22.39-4.81.55-3.37.34-6.75.59-10.12.76-.65,0-.65,1.05,0,1q5.31-.27,10.61-.81c1.66-.17,3.34-.32,5-.59a7.41,7.41,0,0,0,3.86-1.63C376.87,179.5,376.17,178.78,375.68,179.22Z"/><path class="cls-5" d="M367.08,189.52c-.45.08-.92,0-1.37.11a6.55,6.55,0,0,0-1.23.25,4.16,4.16,0,0,1-2.53.32c-.62-.21-.89.76-.27,1a4.13,4.13,0,0,0,2.53-.15,11.72,11.72,0,0,1,1.29-.35c.47-.08.94,0,1.41-.12a13,13,0,0,0,2.66-.83,9.87,9.87,0,0,1,2.95-.5.5.5,0,0,0,.42-.58.51.51,0,0,0-.42-.43,10.57,10.57,0,0,0-2.79.4C368.84,188.86,368,189.34,367.08,189.52Z"/><path class="cls-5" d="M360.38,188.41c3.11.34,6-1.39,9-1.27a.52.52,0,0,0,.51-.52.5.5,0,0,0-.51-.5c-3.08-.11-5.94,1.62-9,1.28C359.72,187.33,359.72,188.34,360.38,188.41Z"/><path class="cls-5" d="M378.79,219.23a.52.52,0,0,0,.61-.36.49.49,0,0,0-.35-.61h0q-5.79-.84-11.65-1.72c-.63-.1-.91.87-.26,1Q373,218.4,378.79,219.23Z"/><path class="cls-5" d="M363.73,215.1a4.93,4.93,0,0,1-.54-.34,4,4,0,0,1-.66-.64.51.51,0,0,0-.87.36h0a.53.53,0,0,0,.15.35,5.39,5.39,0,0,0,1.41,1.15.5.5,0,0,0,.68-.18A.53.53,0,0,0,363.73,215.1Z"/><path class="cls-5" d="M374,222.7a.49.49,0,0,0,.18.17l.36.24a.31.31,0,0,0,.19,0,.43.43,0,0,0,.37-.09.35.35,0,0,0,.13-.14v-.12a.57.57,0,0,0,0-.26v-.13a.42.42,0,0,0-.18-.17l-.36-.25h-.18a.49.49,0,0,0-.37.1.4.4,0,0,0-.14.15v.11a.42.42,0,0,0,0,.27Z"/><path class="cls-5" d="M369.73,220.32a.45.45,0,0,0-.39,0,.27.27,0,0,0-.16.1l-.08.1a.43.43,0,0,0-.07.25v.14a.48.48,0,0,0,.12.22l.12.12a.27.27,0,0,0,.16.1.34.34,0,0,0,.2,0,.34.34,0,0,0,.2,0,.27.27,0,0,0,.16-.1l.08-.1a.43.43,0,0,0,.07-.25v-.14a.5.5,0,0,0-.13-.22l-.11-.12A.27.27,0,0,0,369.73,220.32Z"/><path class="cls-5" d="M364.36,222.57a7.65,7.65,0,0,0-2.58-2.51c-1.16-.71-2.31-1.29-3.54-1.92-.57-.31-1.08.57-.51.87,1.16.59,2.31,1.16,3.38,1.83a6.47,6.47,0,0,1,2.38,2.24.51.51,0,0,0,.87-.51Z"/><path class="cls-5" d="M364.44,228.14c-1.16-.67-2.42-1.16-3.63-1.81a43.43,43.43,0,0,1-4.13-2.39c-.54-.36-1.05.52-.51.86A38.9,38.9,0,0,0,359.8,227c1.24.65,2.45,1.16,3.65,1.8a36.82,36.82,0,0,1,3.61,2.31l3.6,2.47,4.15,2.87c.55.35,1-.51.51-.89l-7.27-5C366.87,229.71,365.7,228.85,364.44,228.14Z"/><path class="cls-5" d="M355.84,233.59a36,36,0,0,1-4.45-3.73c-.46-.47-1.16.24-.72.72a39,39,0,0,0,4.63,3.88.52.52,0,0,0,.69-.17A.53.53,0,0,0,355.84,233.59Z"/><path class="cls-5" d="M353.35,227.52c-1.88-1.66-3.69-3.4-5.42-5.24-.44-.48-1.16.24-.7.72,1.68,1.78,3.47,3.47,5.28,5.13.9.79,1.82,1.57,2.76,2.32a9.79,9.79,0,0,1,2.44,2.32.51.51,0,0,0,.72.07.5.5,0,0,0,.15-.58,9.43,9.43,0,0,0-2.31-2.32C355.25,229.13,354.28,228.35,353.35,227.52Z"/><path class="cls-5" d="M365.08,247.75c-.92,4.11-4.79,6.65-7.1,9.93a11.43,11.43,0,0,0-1.55,3.08c-.2.61.77.88,1,.27,1.28-4,5.14-6.44,7.32-9.88a10,10,0,0,0,1.33-3.13C366.2,247.38,365.23,247.12,365.08,247.75Z"/><path class="cls-5" d="M354.2,246.13a21.69,21.69,0,0,0-1.33,5.12c-.31,1.89-.6,3.78-.9,5.67-.11.64.87.91,1,.27.29-1.83.58-3.68.88-5.52a21.82,21.82,0,0,1,1.26-5C355.33,246.05,354.46,245.53,354.2,246.13Z"/><path class="cls-5" d="M345.05,243.16c-1.16,3.17-2.5,6.3-3.93,9.36-.28.58.59,1.1.87.51,1.47-3.14,2.82-6.35,4-9.6C346.25,242.82,345.27,242.55,345.05,243.16Z"/><path class="cls-5" d="M340,228.69a2.16,2.16,0,0,1-.47,1.16c-.26.39-.58.75-.88,1.16l-2,2.51a.53.53,0,0,0,0,.72.49.49,0,0,0,.7,0h0c.73-.92,1.46-1.83,2.18-2.76a4.83,4.83,0,0,0,1.44-2.72A.5.5,0,1,0,340,228.69Z"/><path class="cls-5" d="M339.19,235.84a107.71,107.71,0,0,1-3.47,13.35c-.21.62.76.88,1,.27a109.55,109.55,0,0,0,3.48-13.35C340.29,235.48,339.32,235.2,339.19,235.84Z"/><path class="cls-5" d="M331.22,222.25a28.93,28.93,0,0,1-5.29,8.12c-.44.46.27,1.16.72.71a29.75,29.75,0,0,0,5.44-8.26C332.35,222.17,331.49,221.66,331.22,222.25Z"/><path class="cls-5" d="M316.56,192.28a16,16,0,0,0-1.24,5.37,37.26,37.26,0,0,1-1.43,5.71,22.37,22.37,0,0,0-1,6,53.21,53.21,0,0,0,.34,6.05,51,51,0,0,1,.4,6.87.51.51,0,1,0,1,0c.1-4-.71-8-.75-12a20.66,20.66,0,0,1,.69-5.8,54.88,54.88,0,0,0,1.55-5.79c.33-2,.34-4.1,1.26-5.94C317.72,192.21,316.83,191.69,316.56,192.28Z"/><path class="cls-5" d="M288.51,134c2.67,2.16,6,3.21,9.19,4.37.61.22.88-.76.26-1-3-1.09-6.21-2.06-8.73-4.1C288.72,132.84,288,133.55,288.51,134Z"/><path class="cls-5" d="M279.16,97a33.67,33.67,0,0,0,16,1.24c.64-.1.38-1.07-.26-1A32.73,32.73,0,0,1,279.43,96C278.82,95.84,278.59,96.79,279.16,97Z"/><path class="cls-5" d="M288.58,100.47a8.67,8.67,0,0,1-3.32-.81.52.52,0,0,0-.69.19.5.5,0,0,0,.18.68h0a10,10,0,0,0,3.83,1,.51.51,0,0,0,.58-.43.51.51,0,0,0-.43-.58A.38.38,0,0,0,288.58,100.47Z"/><path class="cls-5" d="M303.44,167.27a41.48,41.48,0,0,1-6.76,1.59.49.49,0,0,0-.35.61h0a.53.53,0,0,0,.63.36,43.24,43.24,0,0,0,6.74-1.62A.49.49,0,1,0,303.44,167.27Z"/><path class="cls-5" d="M303.91,174.81a.51.51,0,0,0-.71,0,14.07,14.07,0,0,1-3.29,2.16.5.5,0,0,0-.17.68h0a.51.51,0,0,0,.68.19,15.09,15.09,0,0,0,3.48-2.32A.51.51,0,0,0,303.91,174.81Z"/><path class="cls-5" d="M307.46,184.3a.54.54,0,0,0-.7.17l-4.43,5.9a.5.5,0,1,0,.87.51h0c1.49-2,3-3.92,4.43-5.9A.5.5,0,0,0,307.46,184.3Z"/><path d="M296.9,97.86a1.74,1.74,0,1,0-1.74-1.74A1.73,1.73,0,0,0,296.9,97.86Z"/><path d="M294,98a1.74,1.74,0,1,0-1.74-1.74A1.74,1.74,0,0,0,294,98Z"/><path d="M299.59,98.39a1.74,1.74,0,1,0-1.74-1.74A1.74,1.74,0,0,0,299.59,98.39Z"/><path d="M306.07,103.32a1.74,1.74,0,1,0-1.74-1.74A1.74,1.74,0,0,0,306.07,103.32Z"/><path d="M313.26,107.58a1.74,1.74,0,1,0-1.73-1.74A1.74,1.74,0,0,0,313.26,107.58Z"/></svg>