<svg id="Layer_5" data-name="Layer 5" xmlns="http://www.w3.org/2000/svg" xmlns:xlink="http://www.w3.org/1999/xlink" width="500" height="500" viewBox="0 0 500 500"><defs><style>.cls-1,.cls-6{fill:none;}.cls-2{clip-path:url(#clip-path);}.cls-3{fill:#fbb03b;}.cls-3,.cls-4,.cls-5,.cls-6,.cls-9{stroke:#000;stroke-miterlimit:10;}.cls-4{fill:#885b00;}.cls-5{fill:#835700;}.cls-7{clip-path:url(#clip-path-2);}.cls-8{clip-path:url(#clip-path-3);}.cls-9{fill:#7e5400;}.cls-10{clip-path:url(#clip-path-4);}.cls-11{clip-path:url(#clip-path-5);}.cls-12{clip-path:url(#clip-path-6);}.cls-13{clip-path:url(#clip-path-7);}.cls-14{clip-path:url(#clip-path-8);}.cls-15{clip-path:url(#clip-path-9);}.cls-16{clip-path:url(#clip-path-10);}.cls-17{clip-path:url(#clip-path-11);}.cls-18{clip-path:url(#clip-path-12);}.cls-19{clip-path:url(#clip-path-13);}.cls-20{clip-path:url(#clip-path-14);}.cls-21{clip-path:url(#clip-path-15);}.cls-22{clip-path:url(#clip-path-16);}.cls-23{clip-path:url(#clip-path-17);}.cls-24{fill:red;}</style><clipPath id="clip-path"><path class="cls-1" d="M85.84,159.93,79,153q7.8,0,12.71-4.69l6.86,7Q93.65,159.93,85.84,159.93Z"/></clipPath><clipPath id="clip-path-2"><path class="cls-1" d="M91.84,123.1l6.89,7a9.88,9.88,0,0,1,.89,1,17.54,17.54,0,0,1,4,11.76,17.08,17.08,0,0,1-5.08,12.41l-6.9-7q4.91-4.68,5.09-12.37a17.54,17.54,0,0,0-4-11.75A10.2,10.2,0,0,0,91.84,123.1Z"/></clipPath><clipPath id="clip-path-3"><path class="cls-1" d="M100.41,116.64l6.9,7q-6.82-6.9-20.45-6.9l-6.91-7Q93.59,109.76,100.41,116.64Z"/></clipPath><clipPath id="clip-path-4"><path class="cls-1" d="M170,124.14l6.9,7q3.7,3.75,3.58,10a17.09,17.09,0,0,1-4.78,11.78q-4.6,4.83-13.72,4.82l-6.89-7q9.1,0,13.71-4.82a17,17,0,0,0,4.78-11.79Q173.68,127.89,170,124.14Z"/></clipPath><clipPath id="clip-path-5"><path class="cls-1" d="M177.25,116.46l6.9,7q-6.65-6.74-19.86-6.73l-6.89-7Q170.6,109.76,177.25,116.46Z"/></clipPath><clipPath id="clip-path-6"><path class="cls-1" d="M294.18,194.07l-6.88-7a4.56,4.56,0,0,0,3.37,1.3q4,0,5-4.15l6.9,7c-.66,2.77-2.33,4.15-5,4.15A4.43,4.43,0,0,1,294.18,194.07Z"/></clipPath><clipPath id="clip-path-7"><path class="cls-1" d="M294.78,165.24l6.9,7a4.89,4.89,0,0,1,1,1.45c.78,1.79,1.12,4.74,1,8.88a43,43,0,0,1-1.1,8.67l-6.9-7a41.51,41.51,0,0,0,1.1-8.68c.1-4.1-.24-7.06-1-8.86A4.57,4.57,0,0,0,294.78,165.24Z"/></clipPath><clipPath id="clip-path-8"><path class="cls-1" d="M280.43,199.56l-6.9-7L273,192a21.85,21.85,0,0,1-6-15.91,22.47,22.47,0,0,1,7.14-16.36q6.86-6.56,17.58-6.55t17.21,6.46l6.9,7q-6.39-6.47-17.21-6.47T281,166.75a22.49,22.49,0,0,0-7.15,16.35,21.94,21.94,0,0,0,6,16A5.18,5.18,0,0,1,280.43,199.56Z"/></clipPath><clipPath id="clip-path-9"><path class="cls-1" d="M242.88,202.21l-6.9-7a13.22,13.22,0,0,1-1.63-2l6.9,7A12.68,12.68,0,0,0,242.88,202.21Z"/></clipPath><clipPath id="clip-path-10"><path class="cls-1" d="M243.1,193.81l-6.9-7a4,4,0,0,0,2.93,1.22,4.37,4.37,0,0,0,4.34-2.87l6.89,7A4.36,4.36,0,0,1,246,195,4,4,0,0,1,243.1,193.81Z"/></clipPath><clipPath id="clip-path-11"><path class="cls-1" d="M242.67,165.12l6.86,7a5.51,5.51,0,0,1,1.08,1.63q1.26,2.76,1.09,9.62c-.09,4-.55,6.9-1.37,8.81l-6.9-7q1.23-2.87,1.38-8.8c.11-4.57-.25-7.77-1.1-9.63A5.59,5.59,0,0,0,242.67,165.12Z"/></clipPath><clipPath id="clip-path-12"><path class="cls-1" d="M256.78,157.3l6.9,7a14.05,14.05,0,0,0-10.46-4.09q-9,0-12.5,7.14l-6.9-7q3.5-7.14,12.51-7.14A14,14,0,0,1,256.78,157.3Z"/></clipPath><clipPath id="clip-path-13"><path class="cls-1" d="M425.62,192.08l-6.89-7a1.24,1.24,0,0,0,.35.25,5.47,5.47,0,0,0,2.57.64,20.63,20.63,0,0,0,4.93-.74l6.9,7a20.15,20.15,0,0,1-4.94.74,5.69,5.69,0,0,1-2.56-.62A1.36,1.36,0,0,1,425.62,192.08Z"/></clipPath><clipPath id="clip-path-14"><path class="cls-1" d="M411.32,201.79l-6.9-7c-2.25-2.28-3.3-5.81-3.19-10.6l6.9,7Q408,198.37,411.32,201.79Z"/></clipPath><clipPath id="clip-path-15"><path class="cls-1" d="M372.76,166l6.9,7c.64.66.95,2.09.89,4.31l-6.9-7C373.72,168.13,373.43,166.7,372.76,166Z"/></clipPath><clipPath id="clip-path-16"><path class="cls-1" d="M387.8,157.08l6.91,7a11.8,11.8,0,0,0-2.68-2,16.29,16.29,0,0,0-8-1.83l-6.89-7a16.23,16.23,0,0,1,8,1.83A11.56,11.56,0,0,1,387.8,157.08Z"/></clipPath><clipPath id="clip-path-17"><path class="cls-1" d="M371.17,167.3l-6.89-7q3.71-7.15,12.79-7.15l6.89,7Q374.89,160.19,371.17,167.3Z"/></clipPath></defs><g class="cls-2"><path class="cls-3" d="M85.84,159.93,79,153a15.55,15.55,0,0,0,2.06-.09l6.87,7a20.1,20.1,0,0,1-2.07.09"/><path class="cls-3" d="M87.91,159.84l-6.9-7a19.28,19.28,0,0,0,2.92-.46l6.9,7a19.26,19.26,0,0,1-2.92.45"/><path class="cls-3" d="M90.83,159.39l-6.9-7a18,18,0,0,0,2.34-.71l6.9,7a19.16,19.16,0,0,1-2.34.72"/><path class="cls-3" d="M93.17,158.67l-6.9-6.94a18.76,18.76,0,0,0,2.13-1l6.89,7a16.41,16.41,0,0,1-2.12,1"/><path class="cls-4" d="M95.29,157.67l-6.89-7a15.61,15.61,0,0,0,2.24-1.54l6.9,7a15.1,15.1,0,0,1-2.25,1.53"/><path class="cls-5" d="M97.54,156.14l-6.9-7a12.13,12.13,0,0,0,1-.89l6.9,7c-.33.31-.66.6-1,.89"/></g><path class="cls-6" d="M85.84,159.93,79,153q7.8,0,12.71-4.69l6.86,7Q93.65,159.93,85.84,159.93Z"/><g class="cls-7"><path class="cls-5" d="M98.55,155.3l-6.9-7q4.91-4.68,5.09-12.37a17.54,17.54,0,0,0-4-11.75c-.3-.37-.61-.72-.9-1l6.9,7c.31.33.61.68.89,1a17.57,17.57,0,0,1,4,11.72,17.08,17.08,0,0,1-5.08,12.41"/></g><path class="cls-6" d="M91.84,123.1l6.89,7a9.88,9.88,0,0,1,.89,1,17.54,17.54,0,0,1,4,11.76,17.08,17.08,0,0,1-5.08,12.41l-6.9-7q4.91-4.68,5.09-12.37a17.54,17.54,0,0,0-4-11.75A10.2,10.2,0,0,0,91.84,123.1Z"/><polygon class="cls-3" points="65.56 159.93 58.66 152.95 78.94 152.95 85.84 159.93 65.56 159.93"/><g class="cls-8"><path class="cls-3" d="M86.85,116.72l-6.9-7c1.36,0,2.68,0,3.93.15l6.9,7c-1.25-.1-2.57-.15-3.93-.15"/><path class="cls-3" d="M90.78,116.9l-6.9-7a33,33,0,0,1,8.62,1.79l6.9,7a33,33,0,0,0-8.62-1.79"/><path class="cls-3" d="M99.4,118.69l-6.9-7a21.79,21.79,0,0,1,5.87,3.17l6.9,7a22,22,0,0,0-5.87-3.14"/><path class="cls-3" d="M105.27,121.83l-6.9-7a19.15,19.15,0,0,1,2,1.78l6.9,7a18.17,18.17,0,0,0-2-1.79"/></g><path class="cls-6" d="M100.41,116.64l6.9,7q-6.82-6.9-20.45-6.9l-6.91-7Q93.59,109.76,100.41,116.64Z"/><polygon class="cls-3" points="55.58 116.72 48.68 109.74 79.95 109.74 86.85 116.72 55.58 116.72"/><polygon class="cls-9" points="53.4 204.89 46.5 197.91 48.68 109.74 55.58 116.72 53.4 204.89"/><path class="cls-3" d="M108.29,124.7a26.26,26.26,0,0,1,6.52,18.19,25.66,25.66,0,0,1-8,18.75Q99,169,86.71,169.11H65.34l-.9,35.78h-11l2.18-88.17H86.84Q101.5,116.72,108.29,124.7Zm-9.74,30.6q4.89-4.7,5.08-12.37a17.53,17.53,0,0,0-4-11.76Q95.53,126,87.46,126H66.4l-.81,33.93H85.84q7.8,0,12.71-4.68"/><polygon class="cls-9" points="179.21 204.89 172.32 197.91 157 159.74 163.91 166.72 179.21 204.89"/><g class="cls-10"><path class="cls-3" d="M161.93,157.74l-6.9-7c.89,0,1.79,0,2.68-.11l6.89,7c-.84.07-1.72.1-2.67.1"/><path class="cls-3" d="M164.56,157.64l-6.89-7a25.65,25.65,0,0,0,3.37-.52l6.9,7a24,24,0,0,1-3.38.53"/><path class="cls-3" d="M167.94,157.08l-6.9-7a21.14,21.14,0,0,0,2.46-.75l6.89,7a17.74,17.74,0,0,1-2.45.75"/><path class="cls-3" d="M170.39,156.36l-6.89-7a15.84,15.84,0,0,0,2-1l6.89,7a15.18,15.18,0,0,1-2,1"/><path class="cls-4" d="M172.43,155.4l-6.89-7a12.66,12.66,0,0,0,2-1.34l6.9,7a14,14,0,0,1-2,1.34"/><path class="cls-5" d="M174.41,154.06l-6.9-7a12,12,0,0,0,1.24-1.13,17.06,17.06,0,0,0,4.77-11.79c.1-4.17-1.08-7.5-3.57-10l6.91,7q3.7,3.75,3.57,10a17,17,0,0,1-4.78,11.78,13.18,13.18,0,0,1-1.23,1.14"/></g><path class="cls-6" d="M170,124.14l6.9,7q3.7,3.75,3.58,10a17.09,17.09,0,0,1-4.78,11.78q-4.6,4.83-13.72,4.82l-6.89-7q9.1,0,13.71-4.82a17,17,0,0,0,4.78-11.79Q173.68,127.89,170,124.14Z"/><polygon class="cls-3" points="138.86 157.74 131.97 150.75 155.03 150.75 161.93 157.74 138.86 157.74"/><g class="cls-11"><path class="cls-3" d="M164.29,116.72l-6.89-7c1.31,0,2.58,0,3.79.14l6.91,7c-1.23-.11-2.49-.15-3.81-.15"/><path class="cls-3" d="M168.1,116.9l-6.91-7a32.58,32.58,0,0,1,8.35,1.73l6.9,7a31.76,31.76,0,0,0-8.34-1.73"/><path class="cls-3" d="M176.44,118.61l-6.9-7a21.78,21.78,0,0,1,5.71,3.09l6.9,7a21.46,21.46,0,0,0-5.71-3.08"/><path class="cls-3" d="M182.15,121.69l-6.9-7a20,20,0,0,1,2,1.79l6.9,7a18.83,18.83,0,0,0-2-1.78"/></g><path class="cls-6" d="M177.25,116.46l6.9,7q-6.65-6.74-19.86-6.73l-6.89-7Q170.6,109.76,177.25,116.46Z"/><polygon class="cls-3" points="129.55 116.72 122.64 109.74 157.4 109.74 164.29 116.72 129.55 116.72"/><polygon class="cls-9" points="127.36 204.89 120.46 197.91 122.64 109.74 129.55 116.72 127.36 204.89"/><path class="cls-3" d="M174.52,164.07l16.3,40.82H179.21l-15.3-38.17H138.64l-.95,38.17H127.36l2.19-88.17h34.74q14.16,0,20.77,7.73t6.43,16.88a26.67,26.67,0,0,1-4.14,13.49Q183.35,161.3,174.52,164.07ZM162,157.74q9.11,0,13.72-4.82a17,17,0,0,0,4.77-11.78c.12-4.66-1.37-8.26-4.46-10.85s-7.06-3.88-11.89-3.88H139.64l-.78,31.33h23.07"/><polygon class="cls-9" points="328.08 204.89 321.18 197.91 322.27 154.12 329.17 161.1 328.08 204.89"/><polygon class="cls-3" points="329.17 161.1 322.27 154.12 339.44 154.12 346.35 161.1 329.17 161.1"/><polygon class="cls-3" points="328.08 204.89 329.17 161.1 346.35 161.1 345.26 204.89 328.08 204.89"/><polygon class="cls-3" points="329.58 144.26 322.69 137.28 339.86 137.28 346.76 144.26 329.58 144.26"/><polygon class="cls-9" points="329.25 157.87 322.35 150.89 322.69 137.28 329.58 144.26 329.25 157.87"/><polygon class="cls-3" points="329.58 144.26 346.76 144.26 346.43 157.87 329.25 157.87 329.58 144.26"/><g class="cls-12"><path class="cls-3" d="M294.18,194.07l-6.88-7a3.57,3.57,0,0,0,.46.4l6.9,7a2.86,2.86,0,0,1-.45-.4"/><path class="cls-3" d="M294.66,194.47l-6.9-7a4.61,4.61,0,0,0,1.11.61l6.89,7a4.08,4.08,0,0,1-1.1-.61"/><path class="cls-3" d="M295.76,195.08l-6.89-7a5.59,5.59,0,0,0,1.29.27l6.9,7a5.3,5.3,0,0,1-1.3-.28"/><path class="cls-3" d="M297.06,195.36l-6.9-7h1.11l6.9,7h-1.11"/><path class="cls-3" d="M298.17,195.35l-6.9-7a5.74,5.74,0,0,0,.83-.13l6.9,7a4.63,4.63,0,0,1-.83.13"/><path class="cls-3" d="M299,195.22l-6.9-7,.64-.2,6.9,7a4.75,4.75,0,0,1-.64.2"/><path class="cls-3" d="M299.64,195l-6.9-7a5,5,0,0,0,.57-.27l6.9,7a4.17,4.17,0,0,1-.57.26"/><path class="cls-4" d="M300.21,194.76l-6.92-7a4.21,4.21,0,0,0,.58-.39l6.89,7a4.6,4.6,0,0,1-.58.4"/><path class="cls-5" d="M300.79,194.36l-6.9-7a5.55,5.55,0,0,0,1.79-3.14l6.9,7a5.59,5.59,0,0,1-1.78,3.14"/></g><path class="cls-6" d="M294.18,194.07l-6.88-7a4.56,4.56,0,0,0,3.37,1.3q4,0,5-4.15l6.9,7c-.66,2.77-2.33,4.15-5,4.15A4.43,4.43,0,0,1,294.18,194.07Z"/><g class="cls-13"><path class="cls-5" d="M302.56,191.22l-6.9-7a41.68,41.68,0,0,0,1.1-8.68c.1-4.11-.24-7.06-1-8.87a4.67,4.67,0,0,0-1-1.45l6.9,7a4.89,4.89,0,0,1,1,1.45c.78,1.79,1.12,4.74,1,8.88a43,43,0,0,1-1.1,8.67"/></g><path class="cls-6" d="M294.78,165.24l6.9,7a4.89,4.89,0,0,1,1,1.45c.78,1.79,1.12,4.74,1,8.88a43,43,0,0,1-1.1,8.67l-6.9-7a41.51,41.51,0,0,0,1.1-8.68c.1-4.1-.24-7.06-1-8.86A4.57,4.57,0,0,0,294.78,165.24Z"/><g class="cls-14"><path class="cls-5" d="M280.43,199.56l-6.9-7L273,192a21.85,21.85,0,0,1-6-15.91,22.47,22.47,0,0,1,7.14-16.36c.45-.44.93-.86,1.42-1.26l6.9,7c-.49.4-1,.81-1.42,1.26a22.49,22.49,0,0,0-7.15,16.35,21.94,21.94,0,0,0,6,16c.17.19.35.37.52.55"/><path class="cls-4" d="M282.41,165.49l-6.89-7a23,23,0,0,1,3.17-2.16l6.9,7a22.88,22.88,0,0,0-3.18,2.17"/><path class="cls-3" d="M285.59,163.33l-6.9-7a23.31,23.31,0,0,1,3-1.41l6.89,7a23.83,23.83,0,0,0-3,1.41"/><path class="cls-3" d="M288.56,161.92l-6.88-7a22.73,22.73,0,0,1,3.23-1l6.89,7a26.7,26.7,0,0,0-3.23,1"/><path class="cls-3" d="M291.79,160.93l-6.89-7a29.7,29.7,0,0,1,4-.63l6.9,7a28.52,28.52,0,0,0-4,.62"/><path class="cls-3" d="M295.78,160.31l-6.9-7c.9-.07,1.83-.11,2.79-.11a22.25,22.25,0,0,1,2.74.11l6.91,7c-.89-.08-1.78-.12-2.74-.12s-1.88.05-2.79.12"/><path class="cls-3" d="M301.32,160.31l-6.9-7a25.94,25.94,0,0,1,6.8,1.44l6.9,7a25.92,25.92,0,0,0-6.8-1.43"/><path class="cls-3" d="M308.11,161.74l-6.9-7a20.83,20.83,0,0,1,5.47,3l6.89,7a20.87,20.87,0,0,0-5.5-3"/><path class="cls-3" d="M313.61,164.75l-6.93-7a22,22,0,0,1,2.17,1.91l6.89,7a18.77,18.77,0,0,0-2.17-1.91"/></g><path class="cls-6" d="M280.43,199.56l-6.9-7L273,192a21.85,21.85,0,0,1-6-15.91,22.47,22.47,0,0,1,7.14-16.36q6.86-6.56,17.58-6.55t17.21,6.46l6.9,7q-6.39-6.47-17.21-6.47T281,166.75a22.49,22.49,0,0,0-7.15,16.35,21.94,21.94,0,0,0,6,16A5.18,5.18,0,0,1,280.43,199.56Z"/><path class="cls-3" d="M315.78,166.66A21.23,21.23,0,0,1,322,182.85a22.71,22.71,0,0,1-7.06,16.38q-6.82,6.57-17.86,6.56t-17.15-6.74a21.94,21.94,0,0,1-6-15.91A22.57,22.57,0,0,1,281,166.78q6.86-6.54,17.58-6.55T315.78,166.66Zm-13.22,24.56a42.87,42.87,0,0,0,1.1-8.67q.15-6.18-1-8.88a4.41,4.41,0,0,0-4.47-2.67,4.68,4.68,0,0,0-4.41,2.8c-1,1.86-1.51,4.93-1.61,9.21-.12,5,.27,8.35,1.17,10a4.47,4.47,0,0,0,4.21,2.43c2.68,0,4.33-1.39,5-4.15"/><g class="cls-15"><path class="cls-5" d="M242.88,202.21l-6.9-7a13.22,13.22,0,0,1-1.63-2l6.9,7a12.68,12.68,0,0,0,1.63,2"/></g><path class="cls-6" d="M242.88,202.21l-6.9-7a13.22,13.22,0,0,1-1.63-2l6.9,7A12.68,12.68,0,0,0,242.88,202.21Z"/><g class="cls-16"><path class="cls-3" d="M243.1,193.81l-6.9-7c.15.14.3.28.46.41l6.91,7a3.63,3.63,0,0,1-.47-.41"/><path class="cls-3" d="M243.57,194.22l-6.91-7a4.12,4.12,0,0,0,1,.56l6.9,7a3.77,3.77,0,0,1-1-.56"/><path class="cls-3" d="M244.59,194.78l-6.9-7a3.53,3.53,0,0,0,1.06.23l6.91,7a3.87,3.87,0,0,1-1.07-.24"/><path class="cls-3" d="M245.66,195l-6.91-7h.91l6.9,7h-.9"/><path class="cls-3" d="M246.56,195l-6.9-7a4.85,4.85,0,0,0,.75-.11l6.89,7a4.57,4.57,0,0,1-.74.12"/><path class="cls-3" d="M247.3,194.89l-6.89-7c.2,0,.39-.11.59-.18l6.89,7a3.09,3.09,0,0,1-.59.18"/><path class="cls-3" d="M247.89,194.71l-6.89-7a3.6,3.6,0,0,0,.5-.29l6.9,7a4.45,4.45,0,0,1-.54.25"/><path class="cls-4" d="M248.42,194.46l-6.92-7a5,5,0,0,0,.56-.38l6.89,7a4.14,4.14,0,0,1-.55.38"/><path class="cls-5" d="M249,194.09l-6.9-7a4.83,4.83,0,0,0,1.39-1.92l6.89,7a5,5,0,0,1-1.38,1.92"/></g><path class="cls-6" d="M243.1,193.81l-6.9-7a4,4,0,0,0,2.93,1.22,4.37,4.37,0,0,0,4.34-2.87l6.89,7A4.36,4.36,0,0,1,246,195,4,4,0,0,1,243.1,193.81Z"/><g class="cls-17"><path class="cls-5" d="M250.36,192.17l-6.89-7q1.23-2.87,1.37-8.8c.12-4.57-.25-7.77-1.09-9.63a5.71,5.71,0,0,0-1.08-1.63l6.86,7a5.51,5.51,0,0,1,1.08,1.63q1.26,2.76,1.09,9.62c-.09,4-.55,6.9-1.37,8.81"/></g><path class="cls-6" d="M242.67,165.12l6.86,7a5.51,5.51,0,0,1,1.08,1.63q1.26,2.76,1.09,9.62c-.09,4-.55,6.9-1.37,8.81l-6.9-7q1.23-2.87,1.38-8.8c.11-4.57-.25-7.77-1.1-9.63A5.59,5.59,0,0,0,242.67,165.12Z"/><g class="cls-18"><path class="cls-5" d="M240.68,167.3l-6.89-7a12.52,12.52,0,0,1,3.3-4.26l6.91,7a12.51,12.51,0,0,0-3.32,4.25"/><path class="cls-4" d="M244,163.05l-6.91-7A12.31,12.31,0,0,1,238.7,155l6.9,7a11.64,11.64,0,0,0-1.6,1.1"/><path class="cls-3" d="M245.6,162l-6.9-7a11.66,11.66,0,0,1,1.6-.75l6.89,7a12.75,12.75,0,0,0-1.59.75"/><path class="cls-3" d="M247.19,161.2l-6.89-7a12.89,12.89,0,0,1,1.83-.56l6.89,7a13.25,13.25,0,0,0-1.83.55"/><path class="cls-3" d="M249,160.66l-6.89-7a16.18,16.18,0,0,1,2.4-.37l6.9,7a16.54,16.54,0,0,0-2.41.38"/><path class="cls-3" d="M251.43,160.27l-6.9-7a17.87,17.87,0,0,1,1.79-.08,13.13,13.13,0,0,1,1.54.06l6.9,7c-.5,0-1-.06-1.55-.06a13.78,13.78,0,0,0-1.79.08"/><path class="cls-3" d="M254.76,160.25l-6.89-7a15.73,15.73,0,0,1,4,.89l6.89,7a15.34,15.34,0,0,0-4-.9"/><path class="cls-3" d="M258.77,161.11l-6.89-7a13.29,13.29,0,0,1,3.45,1.88l6.89,7a13.29,13.29,0,0,0-3.45-1.88"/><path class="cls-3" d="M262.22,163l-6.89-7a14.84,14.84,0,0,1,1.45,1.29l6.9,7a16.22,16.22,0,0,0-1.46-1.29"/></g><path class="cls-6" d="M256.78,157.3l6.9,7a14.05,14.05,0,0,0-10.46-4.09q-9,0-12.5,7.14l-6.9-7q3.5-7.14,12.51-7.14A14,14,0,0,1,256.78,157.3Z"/><polygon class="cls-3" points="225.04 161.1 218.14 154.12 233.94 154.12 240.84 161.1 225.04 161.1"/><polygon class="cls-9" points="223.61 218.72 216.71 211.73 218.14 154.12 225.04 161.1 223.61 218.72"/><path class="cls-3" d="M265.35,166.29c2.85,4.05,4.19,9.6,4,16.6s-1.78,12.57-4.94,16.71a14.57,14.57,0,0,1-12.16,6.19q-7.32,0-11-5.59l-.46,18.5H223.64l1.43-57.62h15.8l-.16,6.2q3.51-7.14,12.5-7.14A14.07,14.07,0,0,1,265.35,166.29Zm-15,25.9c.84-1.91,1.29-4.84,1.38-8.81.11-4.57-.25-7.77-1.09-9.63a4.15,4.15,0,0,0-3.93-2.77,5.21,5.21,0,0,0-3.21,1.25,5.06,5.06,0,0,0-1.67,4.09l-.34,12.55a6.77,6.77,0,0,0,1.22,4.55A4,4,0,0,0,246,195a4.37,4.37,0,0,0,4.33-2.86"/><g class="cls-19"><path class="cls-3" d="M425.62,192.08l-6.89-7a.67.67,0,0,0,.15.14l6.9,7-.16-.14"/><path class="cls-3" d="M425.78,192.22l-6.9-7,.2.11a4.88,4.88,0,0,0,.66.29l6.9,7a6.54,6.54,0,0,1-.66-.28,1.37,1.37,0,0,1-.2-.13"/><path class="cls-3" d="M426.64,192.63l-6.9-7a5.88,5.88,0,0,0,1.45.33l6.93,7a5.45,5.45,0,0,1-1.45-.32"/><path class="cls-3" d="M428.12,193l-6.9-7h.45c.37,0,.76,0,1.16-.05l6.89,7a11.43,11.43,0,0,1-1.15,0h-.45"/><path class="cls-3" d="M429.69,192.92l-6.93-7a21.28,21.28,0,0,0,3.08-.51l6.9,7a21.77,21.77,0,0,1-3.08.52"/><path class="cls-3" d="M432.77,192.4l-6.89-7,.7-.17,6.9,7-.71.17"/></g><path class="cls-6" d="M425.62,192.08l-6.89-7a1.24,1.24,0,0,0,.35.25,5.47,5.47,0,0,0,2.57.64,20.63,20.63,0,0,0,4.93-.74l6.9,7a20.15,20.15,0,0,1-4.94.74,5.69,5.69,0,0,1-2.56-.62A1.36,1.36,0,0,1,425.62,192.08Z"/><g class="cls-20"><path class="cls-5" d="M411.32,201.79l-6.9-7c-2.25-2.28-3.3-5.81-3.19-10.6l6.9,7q-.18,7.16,3.19,10.59"/></g><path class="cls-6" d="M411.32,201.79l-6.9-7c-2.25-2.28-3.3-5.81-3.19-10.6l6.9,7Q408,198.37,411.32,201.79Z"/><polygon class="cls-9" points="408.14 191.19 401.23 184.21 401.4 179.09 408.3 186.08 408.14 191.19"/><polygon class="cls-3" points="425.5 161.1 418.6 154.12 427.34 154.12 434.25 161.1 425.5 161.1"/><polygon class="cls-9" points="408.3 186.08 401.4 179.09 401.74 165.27 408.65 172.25 408.3 186.08"/><polygon class="cls-9" points="402.1 172.25 395.2 165.27 395.48 154.12 402.38 161.1 402.1 172.25"/><polygon class="cls-3" points="402.38 161.1 395.48 154.12 402.02 154.12 408.91 161.1 402.38 161.1"/><path class="cls-3" d="M425.86,146.59l-.36,14.51h8.75L434,172.26h-8.75l-.39,16.16c-.07,2.2.33,3.52,1.15,3.93a5.57,5.57,0,0,0,2.56.63,20.15,20.15,0,0,0,4.94-.74l-.31,12.23a52.59,52.59,0,0,1-10,1q-7.94,0-11.61-3.4c-2.43-2.27-3.57-5.88-3.46-10.85l.17-5.12.38-13.83H402.1l.28-11.15h6.53l.62-14.29Z"/><polygon class="cls-9" points="408.91 161.1 402.02 154.12 402.64 139.86 409.53 146.84 408.91 161.1"/><polygon class="cls-3" points="409.53 146.84 402.64 139.86 418.96 139.61 425.86 146.59 409.53 146.84"/><polygon class="cls-9" points="379.88 204.89 372.98 197.91 373.67 170.34 380.57 177.34 379.88 204.89"/><g class="cls-21"><path class="cls-5" d="M380.57,177.34l-6.92-7c.05-2.21-.24-3.64-.89-4.3l6.9,7c.64.65.95,2.08.89,4.31"/></g><path class="cls-6" d="M372.76,166l6.9,7c.64.66.95,2.09.89,4.31l-6.9-7C373.72,168.13,373.43,166.7,372.76,166Z"/><g class="cls-22"><path class="cls-3" d="M384,160.19l-6.89-7a16,16,0,0,1,1.85.07l6.9,7c-.6-.05-1.21-.08-1.86-.08"/><path class="cls-3" d="M385.82,160.27l-6.9-7a16.44,16.44,0,0,1,4.33.89l6.9,7a16,16,0,0,0-4.33-.9"/><path class="cls-3" d="M390.15,161.17l-6.9-7a13.69,13.69,0,0,1,1.85.89,14.58,14.58,0,0,1,1.54,1l6.91,7a13.41,13.41,0,0,0-1.56-1,12.53,12.53,0,0,0-1.84-.9"/><path class="cls-3" d="M393.55,163l-6.91-7a9.41,9.41,0,0,1,1.16,1l6.91,7a12.27,12.27,0,0,0-1.16-1"/></g><path class="cls-6" d="M387.8,157.08l6.91,7a11.8,11.8,0,0,0-2.68-2,16.29,16.29,0,0,0-8-1.83l-6.89-7a16.23,16.23,0,0,1,8,1.83A11.56,11.56,0,0,1,387.8,157.08Z"/><g class="cls-23"><path class="cls-5" d="M371.17,167.3l-6.89-7a13,13,0,0,1,3.32-4.13l6.94,6.95a13.2,13.2,0,0,0-3.33,4.16"/><path class="cls-4" d="M374.54,163.14l-6.94-6.95a11.93,11.93,0,0,1,1.67-1.13l6.9,7a11.94,11.94,0,0,0-1.63,1.1"/><path class="cls-3" d="M376.17,162l-6.9-7a12.43,12.43,0,0,1,1.65-.78l6.89,7a14.39,14.39,0,0,0-1.64.77"/><path class="cls-3" d="M377.81,161.23l-6.89-7a15.1,15.1,0,0,1,1.88-.57l6.9,7a12.81,12.81,0,0,0-1.89.57"/><path class="cls-3" d="M379.7,160.66l-6.9-7a15.73,15.73,0,0,1,2.46-.38l6.89,7a15.44,15.44,0,0,0-2.45.39"/><path class="cls-3" d="M382.15,160.27l-6.89-7a17.54,17.54,0,0,1,1.78-.08l6.9,7a13,13,0,0,0-1.79.08"/></g><path class="cls-6" d="M371.17,167.3l-6.89-7q3.71-7.15,12.79-7.15l6.89,7Q374.89,160.19,371.17,167.3Z"/><polygon class="cls-3" points="355.4 161.1 348.5 154.12 364.43 154.12 371.32 161.1 355.4 161.1"/><polygon class="cls-9" points="354.31 204.89 347.41 197.91 348.5 154.12 355.4 161.1 354.31 204.89"/><path class="cls-3" d="M384,160.19a16.26,16.26,0,0,1,8,1.83,10.6,10.6,0,0,1,4.6,4.74c.89,1.93,1.29,5.31,1.17,10.1l-.69,28H379.9l.69-27.55c.05-2.28-.26-3.72-.95-4.36a3.75,3.75,0,0,0-2.62-.89q-4.69,0-4.86,6.54l-.65,26.31h-17.2l1.08-43.76h15.94l-.16,6.2Q374.89,160.2,384,160.19Z"/><polygon class="cls-3" points="463.73 161.41 456.84 154.41 466.48 154.41 473.38 161.41 463.73 161.41"/><polygon class="cls-9" points="463.5 171.05 456.6 164.06 456.84 154.41 463.73 161.41 463.5 171.05"/><polygon class="cls-3" points="463.73 161.41 473.38 161.41 473.14 171.05 463.5 171.05 463.73 161.41"/><polygon class="cls-9" points="462.66 204.89 455.76 197.91 456 188.26 462.89 195.25 462.66 204.89"/><polygon class="cls-3" points="462.89 195.25 456 188.26 465.64 188.26 472.55 195.25 462.89 195.25"/><polygon class="cls-3" points="462.66 204.89 462.89 195.25 472.55 195.25 472.3 204.89 462.66 204.89"/><g id="Layer_2" data-name="Layer 2"><path class="cls-24" d="M140.37,333.42l-.08.21a.58.58,0,0,1-.11.25l-.19.45c-.48,1.23-.92,2.5-1.34,3.78s-.83,2.8-1.19,4.21a5.48,5.48,0,0,0,1.5-2.59c.73-2.82,1.48-5.63,2.4-8.39-.27.51-.52,1-.76,1.55Z"/><path class="cls-24" d="M121.42,264.6h0l.17.14Z"/><path class="cls-24" d="M148.58,316.08c3.56-2.4,7.4-4.37,11.12-6.5,1.84-1.05,3.65-2.15,5.37-3.36l1.34-.93h0l.21-.18.58-.48a26,26,0,0,0,2.25-2.08c.36-.38.71-.76,1.06-1.17l.47-.56h0l.16-.23a19.23,19.23,0,0,0,1.7-2.68c.18-.33.34-.68.5-1v-.12a1.33,1.33,0,0,1,.17-.43c.25-.65.46-1.34.65-1.95a18,18,0,0,0,.51-2.1c.08-.34.13-.67.19-1l.08-.51h0a34.61,34.61,0,0,0,.12-7.05,2.86,2.86,0,0,0-.1-.92v-.34c-.09-.55-.18-1.08-.29-1.63a33.17,33.17,0,0,0-.83-3.3q-.26-.84-.57-1.65c-.09-.26-.18-.53-.29-.78v-.34a31.42,31.42,0,0,0-1.52-3,26.4,26.4,0,0,0-2-2.95l-.29-.39v-.07l-.51-.61c-.34-.42-.71-.82-1.08-1.21a27.46,27.46,0,0,0-2.43-2.15s-.62-.45-.12-.09l-.28-.24c-.22-.16-.43-.32-.66-.47-.44-.31-.91-.6-1.34-.87s-1-.59-1.57-.85l-.64-.31c-.28-.12-.58-.22-.87-.32a14.73,14.73,0,0,0-2.17-.47,4.21,4.21,0,0,1-.71,0h-1.45l-.7.14a12.4,12.4,0,0,0-1.68.49c-.08,0-.71.33-.2.08l-.4.19c-.27.12-.53.26-.79.4-.54.3-1.05.61-1.54.94l-.85.59-.17.14-.23.17L147.49,265c-1,.88-1.93,1.79-2.86,2.69a63.17,63.17,0,0,0-5.19,5.65l-.16.22-.26.37c-.19.26-.37.53-.54.78-.31.48-.62,1-.9,1.49l-.52,1.05c0,.1-.1.21-.15.33v.11c-.21.59-.4,1.18-.56,1.78a2.48,2.48,0,0,1-1.45,1.64,3.17,3.17,0,0,1-1.06.63,2.69,2.69,0,0,1-3.16-1.8c-.46-1.26-.93-2.51-1.34-3.75-.14-.31-.26-.62-.39-.94v-.12c0-.14-.12-.27-.19-.42-.27-.6-.54-1.22-.83-1.81a35.89,35.89,0,0,0-2-3.47c-.17-.28-.36-.55-.55-.83l-.3-.41h0c-.29-.37-.6-.73-.91-1.08A20.79,20.79,0,0,0,122,265l-.17-.13-.18-.15-.6-.43c-.39-.28-.81-.55-1.22-.8A24.11,24.11,0,0,0,117,262h-.11l-.22-.08-.72-.28-1.34-.44a24.24,24.24,0,0,0-3.06-.7h-.37l-.78-.08a8.94,8.94,0,0,1-1.46-.08,26.86,26.86,0,0,0-3.11.09c-.2,0-1.08.09-.39,0-.23,0-.45.06-.67.11-.48.08-1,.18-1.42.28a21.9,21.9,0,0,0-3,.93c-.09,0-.7.32-.11,0l-.35.16-.93.17c-.46.23-.9.47-1.35.73s-1.07.67-1.58,1l-.2.12h0c-.24.19-.47.38-.68.58a12.11,12.11,0,0,0-1.34,1.34,5.71,5.71,0,0,0-.39.47l-.35.48c-.35.54-.62,1.09-.91,1.64h0l-.12.32a10.17,10.17,0,0,0-.31,1c-.1.33-.15.73-.24,1.1h0v.49a23.44,23.44,0,0,0,.16,3.85v.19l.08.51.2,1A82.57,82.57,0,0,0,94,285c.21.65.43,1.34.68,1.95.1.28.21.58.33.87l.3.65A24.39,24.39,0,0,0,97,291.58l.5.69v.08a2.15,2.15,0,0,0,.19.22c.35.45.71.88,1.08,1.35.74.81,1.52,1.59,2.31,2.35,3.34,3.18,7,6,10.23,9.3a37.48,37.48,0,0,1,4.83,6.12c1.34,2.24,2.59,4.59,3.93,6.86a44,44,0,0,0,4.52,6.34,52.94,52.94,0,0,1,5.16,6.92A32.48,32.48,0,0,1,133,339.3a47.4,47.4,0,0,1,5.48-13.17A34.65,34.65,0,0,1,148.58,316.08Z"/><path class="cls-24" d="M125.67,335c-.48-.84-1-1.65-1.54-2.44.89,1.68,1.72,3.38,2.47,5.11.28.68.56,1.34.82,2.05a9,9,0,0,0,.68,1.48q-.36-1.38-.84-2.7A25.58,25.58,0,0,0,125.67,335Z"/><path d="M179.13,277.24a33.57,33.57,0,0,0-6.84-13.12c-3.25-3.85-8-7.33-13-8.34a14.76,14.76,0,0,0-9,1.12,26.56,26.56,0,0,0-6.8,4.7c-2,1.77-3.82,3.68-5.6,5.62a35.37,35.37,0,0,0-4.45,5.81,34,34,0,0,0-5.74-9.61A26.07,26.07,0,0,0,116,256.13a27.68,27.68,0,0,0-13.91-.56,22,22,0,0,0-12.52,7.49,15.5,15.5,0,0,0-3.26,8.41,28.58,28.58,0,0,0,1.06,9,67.09,67.09,0,0,0,2.37,8.22A28,28,0,0,0,94,296.09c3,3.75,6.79,6.7,10.33,9.83a50.12,50.12,0,0,1,5.08,5.12l.47.57a1.16,1.16,0,0,1,.09.14l.3.4c.44.62.86,1.23,1.26,1.86.74,1.17,1.42,2.36,2.09,3.57a71.1,71.1,0,0,0,4.29,7.17c.95,1.34,2,2.55,3,3.77l1.34,1.6.66.8.32.42.08.1.07.08.75,1.05c.55.79,1.06,1.6,1.54,2.44a27.15,27.15,0,0,1,1.64,3.5c.31.9.58,1.82.8,2.75a15.06,15.06,0,0,0,1.7,4.44,6,6,0,0,0,3.38,2.6,2.69,2.69,0,0,0,3.06-1.5,2.31,2.31,0,0,0,.32-.74c.3-1.23.59-2.47.91-3.69s.75-2.81,1.2-4.21.84-2.55,1.34-3.78l.19-.44a.38.38,0,0,1,.1-.26l.08-.21.24-.52c.25-.53.5-1.05.77-1.56a.23.23,0,0,1,.11-.23,31.59,31.59,0,0,1,2.11-3.48c.18-.26.37-.51.55-.75h0l.3-.37c.39-.48.82-1,1.25-1.42.75-.78,1.54-1.51,2.36-2.22l1.06-.85.37-.29.79-.57c7.28-5.14,16.09-8.22,22.43-14.6a25.37,25.37,0,0,0,7.1-13.79A36.1,36.1,0,0,0,179.13,277.24Zm-40.68,48.85A47.4,47.4,0,0,0,133,339.26a32.63,32.63,0,0,0-3.23-7.45,52.94,52.94,0,0,0-5.16-6.92,45.67,45.67,0,0,1-4.5-6.3c-1.34-2.27-2.54-4.62-3.93-6.86a37.43,37.43,0,0,0-4.77-6.16c-3.19-3.34-6.89-6.12-10.23-9.3-.79-.76-1.57-1.54-2.31-2.35-.37-.43-.73-.86-1.08-1.35a2.15,2.15,0,0,1-.19-.22v-.08l-.58-.69a25.31,25.31,0,0,1-1.78-3l-.29-.65c-.12-.29-.23-.59-.34-.87-.24-.64-.47-1.34-.67-2a77,77,0,0,1-2.06-8l-.21-1-.08-.53a.6.6,0,0,0,0-.19c-.08-.64-.13-1.34-.16-1.94s0-1.27,0-1.9V271h0c.1-.36.15-.74.24-1.1s.19-.66.31-1l.12-.32h0c.3-.55.57-1.1.92-1.64l.34-.48c.12-.16.26-.32.39-.47a16.94,16.94,0,0,1,1.34-1.34q.33-.3.69-.57h0l.2-.17c.51-.36,1-.71,1.58-1s.89-.49,1.34-.72l.62-.3.35-.16c-.59.28,0,0,.1,0a24.2,24.2,0,0,1,3.18-1.06c.47-.1.94-.2,1.42-.28.22,0,.45-.08.67-.11h.39a24.91,24.91,0,0,1,3.11-.09,8.88,8.88,0,0,1,1.46.08l.78.08h.38a24.49,24.49,0,0,1,3,.7c.47.13.93.28,1.35.44l.72.28.21.08h.11a23.3,23.3,0,0,1,2.76,1.44c.42.25.83.52,1.22.8l.61.43h0a.53.53,0,0,1,.14.12l.18.14a20.65,20.65,0,0,1,2.25,2.14c.31.35.62.71.91,1.09h0l.3.4.55.83a35,35,0,0,1,2.08,3.62c.29.59.56,1.21.83,1.81,0,.15.12.28.19.42v.12c.13.32.25.63.38.94.49,1.24,1,2.49,1.34,3.75a2.7,2.7,0,0,0,3.17,1.8,3.17,3.17,0,0,0,1.06-.63,2.48,2.48,0,0,0,1.45-1.64c.16-.6.35-1.19.56-1.78v-.11c0-.12.11-.23.15-.34l.52-1c.28-.51.59-1,.9-1.49l.53-.78.27-.37.16-.22a63.56,63.56,0,0,1,5.41-5.6c.92-.94,1.87-1.85,2.85-2.68l1.34-1.12.23-.17.18-.13c.28-.21.55-.41.84-.59s1-.65,1.54-.94c.26-.15.52-.28.79-.41l.41-.18c-.51.24.12,0,.2-.08a10.7,10.7,0,0,1,1.67-.5l.67-.11h1.45a4.21,4.21,0,0,0,.71,0,14.91,14.91,0,0,1,2.09.54,9.25,9.25,0,0,1,.88.32l.64.31c.54.25,1.06.54,1.57.84a11.93,11.93,0,0,1,1.34.88,7.24,7.24,0,0,1,.66.47l.32.24.12.09a25.83,25.83,0,0,1,2.37,2.19c.38.38.74.78,1.09,1.2l.51.62v.07l.28.39a27.39,27.39,0,0,1,1.82,2.8,29.82,29.82,0,0,1,1.58,2.95h0V275c.11.25.21.52.3.78.2.54.39,1.09.56,1.65a28.8,28.8,0,0,1,.83,3.29c.11.55.2,1.09.3,1.64v.34a3.23,3.23,0,0,0,.09.92,33.23,33.23,0,0,1-.12,7.05h0l-.08.51a4.49,4.49,0,0,1-.19,1,18.89,18.89,0,0,1-.51,2.1c-.2.7-.4,1.34-.64,1.95a1.47,1.47,0,0,1-.17.43v.12c-.16.35-.33.69-.5,1a21.28,21.28,0,0,1-1.7,2.68l-.16.23h0l-.47.56c-.35.4-.7.79-1.06,1.17a26,26,0,0,1-2.25,2.08l-.58.48-.22.17h0l-1.34.94c-1.73,1.21-3.54,2.31-5.36,3.36-3.73,2.13-7.56,4.1-11.13,6.5A34.69,34.69,0,0,0,138.45,326.09Z"/><path d="M121.57,264.77l-.16-.14h0Z"/></g><g id="Layer_2-2" data-name="Layer 2"><path class="cls-24" d="M251.61,331.58l-.08.21a.94.94,0,0,1-.1.26l-.19.44c-.48,1.23-.93,2.5-1.34,3.78s-.83,2.8-1.2,4.21a5.41,5.41,0,0,0,1.51-2.59c.72-2.81,1.47-5.63,2.4-8.39-.27.51-.53,1-.77,1.55Z"/><path class="cls-24" d="M232.67,262.77h0l.16.13A.65.65,0,0,0,232.67,262.77Z"/><path class="cls-24" d="M259.82,314.24c3.57-2.4,7.4-4.37,11.13-6.5,1.84-1.05,3.65-2.15,5.36-3.36l1.34-.93h0l.22-.18.57-.48a24.75,24.75,0,0,0,2.26-2.08c.36-.38.71-.76,1.06-1.17l.47-.56h0l.16-.23a21.28,21.28,0,0,0,1.7-2.68c.17-.33.33-.68.49-1v-.12c0-.15.13-.3.18-.43.24-.64.46-1.34.64-1.95a16.18,16.18,0,0,0,.51-2.1c.08-.34.14-.67.19-1l.08-.51h0a33.23,33.23,0,0,0,.12-7.05,3.2,3.2,0,0,0-.09-.92v-.34c-.1-.55-.19-1.08-.3-1.63a28.44,28.44,0,0,0-.83-3.3c-.17-.56-.36-1.11-.56-1.65-.1-.26-.19-.52-.3-.78v-.33a30.37,30.37,0,0,0-1.51-3,26.48,26.48,0,0,0-2-2.95l-.28-.39v-.07l-.51-.61c-.35-.42-.71-.82-1.09-1.21a26,26,0,0,0-2.42-2.15s-.62-.45-.12-.09l-.29-.24-.65-.47c-.45-.31-.91-.6-1.34-.87s-1-.59-1.57-.85l-.65-.31c-.28-.12-.57-.22-.87-.32a14.45,14.45,0,0,0-2.17-.47,4.21,4.21,0,0,1-.71,0h-1.45l-.7.14a11.87,11.87,0,0,0-1.67.49c-.08,0-.71.33-.2.08l-.41.19c-.27.12-.53.26-.79.4-.53.3-1,.61-1.54.94l-.84.59-.18.14-.23.17-1.34,1.11c-1,.88-1.93,1.79-2.85,2.69a60.32,60.32,0,0,0-5.19,5.65l-.16.22-.27.37c-.19.26-.36.53-.54.78-.3.48-.61,1-.89,1.49l-.53,1c0,.1-.09.21-.15.33v.11c-.21.59-.4,1.18-.56,1.78a2.45,2.45,0,0,1-1.45,1.64,3,3,0,0,1-1.06.63,2.68,2.68,0,0,1-3.16-1.8c-.46-1.26-.92-2.51-1.34-3.75l-.39-.94v-.12c0-.14-.12-.27-.19-.42-.27-.6-.53-1.22-.83-1.81a33.9,33.9,0,0,0-2-3.47c-.17-.28-.36-.55-.55-.83l-.29-.4h0c-.3-.38-.6-.74-.91-1.09a20.88,20.88,0,0,0-2.26-2.15L233,263l-.17-.15-.61-.43c-.39-.28-.8-.55-1.22-.8a24.11,24.11,0,0,0-2.76-1.44h-.11l-.21-.08-.73-.28-1.34-.44a24.49,24.49,0,0,0-3-.7h-.38l-.78-.08a9,9,0,0,1-1.46-.08,24.86,24.86,0,0,0-3.11.1c-.2,0-1.07.08-.39,0a5.16,5.16,0,0,0-.67.1c-.48.08-.95.18-1.42.28a22.34,22.34,0,0,0-3,.93c-.09,0-.69.32-.1,0l-.35.16-.94.17c-.46.23-.9.47-1.34.73s-1.07.67-1.58,1l-.2.12h0c-.25.19-.47.38-.69.58A14.12,14.12,0,0,0,205.1,264c-.13.15-.27.31-.39.47l-.35.48c-.34.54-.61,1.09-.91,1.64h0l-.12.32c-.12.32-.21.64-.31,1s-.14.73-.24,1.1h0v.49c0,.64,0,1.27,0,1.91a15.08,15.08,0,0,0,.16,1.94.61.61,0,0,1,0,.19l.08.51.2,1a79.85,79.85,0,0,0,2.07,8c.2.65.43,1.34.67,2,.11.28.21.58.33.87l.3.65a23.25,23.25,0,0,0,1.65,3.12l.5.69v.08a2.13,2.13,0,0,0,.18.22c.35.45.71.88,1.09,1.35.74.81,1.51,1.59,2.31,2.36,3.33,3.17,7,5.95,10.23,9.29a38,38,0,0,1,4.82,6.12c1.34,2.24,2.59,4.59,3.93,6.86a44.77,44.77,0,0,0,4.52,6.34A52.05,52.05,0,0,1,241,330a32.06,32.06,0,0,1,3.23,7.49,47.54,47.54,0,0,1,5.49-13.16A34.53,34.53,0,0,1,259.82,314.24Z"/><path class="cls-24" d="M236.92,333.17c-.48-.84-1-1.65-1.54-2.44.88,1.68,1.71,3.38,2.46,5.11.29.68.57,1.34.82,2.05a8.29,8.29,0,0,0,.69,1.48,27.31,27.31,0,0,0-.85-2.7A26.79,26.79,0,0,0,236.92,333.17Z"/><path d="M290.38,275.4a33.7,33.7,0,0,0-6.84-13.12c-3.26-3.85-8.05-7.33-13-8.34a14.72,14.72,0,0,0-9,1.12,26.39,26.39,0,0,0-6.8,4.7c-2,1.77-3.82,3.68-5.61,5.62a35.37,35.37,0,0,0-4.45,5.81,33.32,33.32,0,0,0-5.74-9.6,26,26,0,0,0-11.73-7.3,27.64,27.64,0,0,0-13.9-.56,22,22,0,0,0-12.53,7.49,15.49,15.49,0,0,0-3.25,8.41,28.29,28.29,0,0,0,1.06,9,65.37,65.37,0,0,0,2.37,8.22,27.7,27.7,0,0,0,4.25,7.43c3,3.75,6.78,6.7,10.32,9.83a48.15,48.15,0,0,1,5.08,5.12l.47.57.1.14.29.4c.45.62.86,1.23,1.26,1.86.74,1.17,1.42,2.36,2.09,3.57a71.19,71.19,0,0,0,4.3,7.17c.95,1.35,1.95,2.55,3,3.77l1.34,1.6.65.8.33.42.08.1.06.09.75,1c.55.79,1.06,1.6,1.55,2.44a27.09,27.09,0,0,1,1.63,3.5c.32.9.58,1.82.81,2.75a14.53,14.53,0,0,0,1.7,4.44,6,6,0,0,0,3.38,2.6,2.69,2.69,0,0,0,3.05-1.5,2.13,2.13,0,0,0,.33-.74c.29-1.23.59-2.47.91-3.69s.75-2.81,1.19-4.21.85-2.55,1.34-3.78l.19-.44a.36.36,0,0,1,.11-.26l.08-.21.24-.52c.24-.53.49-1.05.76-1.56a.23.23,0,0,1,.11-.23,31.67,31.67,0,0,1,2.12-3.48c.17-.26.36-.51.55-.75h0l.29-.37c.39-.48.82-1,1.25-1.42.75-.77,1.54-1.51,2.36-2.22l1.06-.85.37-.29.8-.57c7.28-5.14,16.09-8.21,22.43-14.6A25.42,25.42,0,0,0,291,291,36.25,36.25,0,0,0,290.38,275.4ZM249.7,324.26a47.54,47.54,0,0,0-5.49,13.16A32.19,32.19,0,0,0,241,330a52.05,52.05,0,0,0-5.16-6.92,44.77,44.77,0,0,1-4.49-6.3c-1.34-2.27-2.55-4.62-3.93-6.86a37.43,37.43,0,0,0-4.77-6.16c-3.2-3.34-6.9-6.12-10.23-9.29-.8-.77-1.57-1.55-2.31-2.36a16.45,16.45,0,0,1-1.09-1.35,2.13,2.13,0,0,1-.18-.22v-.08l-.58-.69a22.88,22.88,0,0,1-1.78-3s-.27-.61-.3-.65c-.12-.29-.23-.59-.33-.87-.25-.64-.47-1.34-.67-2a79.66,79.66,0,0,1-2.07-8l-.2-1-.08-.53v-.19c-.08-.64-.14-1.34-.16-1.94a15.06,15.06,0,0,1,0-1.9v-.5h0c.09-.36.15-.74.24-1.1a8.66,8.66,0,0,1,.31-1l.12-.32h0c.29-.55.56-1.1.91-1.64l.35-.48a5.71,5.71,0,0,1,.39-.47,14.12,14.12,0,0,1,1.34-1.34,7.59,7.59,0,0,1,.68-.57h0l.2-.17c.51-.36,1.05-.71,1.59-1s.88-.49,1.34-.72l.61-.3.35-.16c-.59.28,0,0,.11,0a23.25,23.25,0,0,1,3.18-1.06c.47-.1.94-.2,1.42-.28.22-.05.44-.08.67-.11h.39a24.8,24.8,0,0,1,3.11-.09,8.94,8.94,0,0,1,1.46.08l.78.08h.37a24.24,24.24,0,0,1,3.06.7c.47.13.92.28,1.34.44l.72.28.22.08H228a24.11,24.11,0,0,1,2.76,1.44c.41.25.83.52,1.22.8l.6.43h0a.44.44,0,0,1,.15.12l.17.14a20.79,20.79,0,0,1,2.26,2.14c.3.35.61.71.91,1.09h0l.29.4c.19.28.38.55.55.83A33.25,33.25,0,0,1,239,271c.3.59.56,1.21.83,1.81,0,.15.12.28.19.42v.12c.13.32.25.63.39.94.48,1.24,1,2.49,1.34,3.75a2.69,2.69,0,0,0,3.16,1.8,3,3,0,0,0,1.06-.63,2.45,2.45,0,0,0,1.45-1.64c.16-.6.35-1.19.56-1.78v-.11c0-.12.11-.23.15-.33l.52-1.05c.29-.51.59-1,.9-1.49.18-.25.35-.52.54-.78l.27-.37.16-.22a63.44,63.44,0,0,1,5.4-5.6c.93-.94,1.88-1.85,2.86-2.68l1.34-1.12.23-.17.17-.13a9.91,9.91,0,0,1,.85-.59c.29-.19,1-.65,1.54-.94a7.31,7.31,0,0,1,.79-.4l.4-.19c-.51.24.12,0,.2-.08A11.15,11.15,0,0,1,266,259l.67-.11h1.45a4.21,4.21,0,0,0,.71,0,14.91,14.91,0,0,1,2.09.54,9.07,9.07,0,0,1,.87.32l.64.31c.54.26,1.06.54,1.57.84a11.93,11.93,0,0,1,1.34.88,6.08,6.08,0,0,1,.66.47l.32.24.12.09a25.94,25.94,0,0,1,2.38,2.19q.56.57,1.08,1.2l.51.62v.07l.28.39a25.89,25.89,0,0,1,1.83,2.8,32.07,32.07,0,0,1,1.58,2.95h0v.32c.11.25.2.52.29.78q.31.81.57,1.65a33.17,33.17,0,0,1,.83,3.3c.11.54.2,1.08.29,1.63v.34a2.92,2.92,0,0,0,.1.92,34.61,34.61,0,0,1-.12,7.05h0l-.08.51a4.49,4.49,0,0,1-.19,1q-.21,1.06-.51,2.1c-.2.7-.4,1.34-.64,1.95a1.28,1.28,0,0,1-.18.43v.12c-.16.35-.32.7-.5,1a19.23,19.23,0,0,1-1.7,2.68l-.16.23h0l-.47.56c-.35.41-.7.79-1.06,1.17a26,26,0,0,1-2.25,2.08l-.58.48-.21.17h0l-1.34.94c-1.73,1.21-3.54,2.31-5.37,3.36-3.72,2.13-7.56,4.1-11.12,6.5A34.48,34.48,0,0,0,249.7,324.26Z"/><path d="M232.82,262.93l-.16-.14h0Z"/></g><g id="Layer_2-3" data-name="Layer 2"><path class="cls-24" d="M355.47,333.42l-.08.21a.74.74,0,0,1-.11.25l-.19.45c-.48,1.23-.92,2.5-1.34,3.78s-.83,2.8-1.19,4.21a5.48,5.48,0,0,0,1.5-2.59c.72-2.82,1.47-5.63,2.4-8.39-.27.51-.53,1-.77,1.55Z"/><path class="cls-24" d="M336.52,264.6h0l.16.14A1.07,1.07,0,0,0,336.52,264.6Z"/><path class="cls-24" d="M363.67,316.08c3.57-2.4,7.4-4.37,11.13-6.5,1.84-1.05,3.65-2.15,5.36-3.36l1.34-.93h0l.22-.18.58-.48a26,26,0,0,0,2.25-2.08c.36-.38.71-.76,1.06-1.17l.47-.56h0l.16-.23a21.28,21.28,0,0,0,1.7-2.68c.17-.33.34-.68.5-1v-.12a1.33,1.33,0,0,1,.17-.43c.24-.65.46-1.34.64-1.95a16.18,16.18,0,0,0,.51-2.1c.08-.34.14-.67.19-1l.08-.51h0a33.23,33.23,0,0,0,.12-7.05,3.16,3.16,0,0,0-.09-.92v-.34c-.1-.55-.19-1.08-.3-1.63a28.44,28.44,0,0,0-.83-3.3c-.17-.56-.36-1.11-.56-1.65-.09-.26-.19-.53-.3-.78v-.34a31.33,31.33,0,0,0-1.51-3,26.48,26.48,0,0,0-2-2.95l-.28-.39v-.07l-.51-.61c-.35-.42-.71-.82-1.09-1.21a26,26,0,0,0-2.42-2.15s-.62-.45-.12-.09l-.28-.24c-.22-.16-.43-.32-.66-.47-.44-.31-.91-.6-1.34-.87s-1-.59-1.57-.85l-.64-.31c-.29-.12-.58-.22-.88-.32a14.45,14.45,0,0,0-2.17-.47,4.21,4.21,0,0,1-.71,0h-1.45l-.69.14a12,12,0,0,0-1.68.49c-.08,0-.71.33-.2.08l-.4.19c-.27.12-.54.26-.79.4-.54.3-1.05.61-1.55.94l-.84.59-.18.14-.22.17L362.59,265c-1,.88-1.94,1.79-2.86,2.69a61.72,61.72,0,0,0-5.19,5.65l-.16.22-.27.37c-.19.26-.36.53-.53.78-.31.48-.62,1-.9,1.49l-.53,1.05c0,.1-.09.21-.14.33v.11c-.22.59-.41,1.18-.57,1.78A2.44,2.44,0,0,1,350,281.1a3.17,3.17,0,0,1-1.06.63,2.7,2.7,0,0,1-3.17-1.8c-.45-1.26-.92-2.51-1.34-3.75-.13-.31-.25-.62-.39-.94v-.12c0-.14-.12-.27-.19-.42-.26-.6-.53-1.22-.83-1.81a33.81,33.81,0,0,0-1.95-3.47l-.55-.83-.3-.41h0c-.29-.37-.6-.73-.91-1.08a21.75,21.75,0,0,0-2.25-2.15l-.18-.13-.17-.15-.61-.43c-.38-.28-.8-.55-1.22-.8a23.3,23.3,0,0,0-2.76-1.44H332l-.21-.08-.72-.28-1.34-.44a25.06,25.06,0,0,0-3.06-.7h-.38l-.77-.08a9.06,9.06,0,0,1-1.47-.08,27,27,0,0,0-3.11.09c-.2,0-1.07.09-.39,0-.22,0-.44.06-.67.11-.48.08-.95.18-1.42.28a22.21,22.21,0,0,0-3,.93c-.1,0-.7.32-.11,0l-.35.16-.94.17c-.45.23-.9.47-1.34.73s-1.07.67-1.58,1l-.2.12h0c-.24.19-.47.38-.69.58a14.12,14.12,0,0,0-1.34,1.34c-.13.15-.27.31-.39.47l-.34.48c-.35.54-.62,1.09-.92,1.64h0l-.12.32c-.12.32-.21.64-.31,1s-.14.73-.24,1.1h0v.49c0,.64,0,1.27,0,1.91a15.08,15.08,0,0,0,.16,1.94.61.61,0,0,1,0,.19l.08.51.21,1a77.21,77.21,0,0,0,2.06,8.05c.2.65.43,1.34.67,1.95.11.28.22.58.34.87l.29.65a23.25,23.25,0,0,0,1.65,3.12l.5.69v.08a2.13,2.13,0,0,0,.18.22c.35.45.71.88,1.09,1.35.74.81,1.52,1.59,2.31,2.35,3.34,3.18,7,6,10.23,9.3a37.43,37.43,0,0,1,4.82,6.12c1.34,2.24,2.59,4.59,3.93,6.86a44.77,44.77,0,0,0,4.52,6.34,52.05,52.05,0,0,1,5.16,6.92,32.06,32.06,0,0,1,3.23,7.49,47.72,47.72,0,0,1,5.49-13.17A34.74,34.74,0,0,1,363.67,316.08Z"/><path class="cls-24" d="M340.77,335c-.48-.84-1-1.65-1.54-2.44.88,1.68,1.71,3.38,2.47,5.11.28.68.56,1.34.81,2.05a8.29,8.29,0,0,0,.69,1.48,27.31,27.31,0,0,0-.85-2.7A26.79,26.79,0,0,0,340.77,335Z"/><path d="M394.23,277.24a33.7,33.7,0,0,0-6.84-13.12c-3.26-3.85-8-7.33-13-8.34a14.73,14.73,0,0,0-9,1.12,26.56,26.56,0,0,0-6.8,4.7c-2,1.77-3.82,3.68-5.6,5.62a34.89,34.89,0,0,0-4.46,5.81,33.51,33.51,0,0,0-5.74-9.61,26,26,0,0,0-11.73-7.29,27.64,27.64,0,0,0-13.9-.56,22,22,0,0,0-12.52,7.49,15.42,15.42,0,0,0-3.26,8.41,28.29,28.29,0,0,0,1.06,9,65.37,65.37,0,0,0,2.37,8.22,27.7,27.7,0,0,0,4.25,7.43c3,3.75,6.78,6.7,10.32,9.83a49.21,49.21,0,0,1,5.09,5.12l.47.57a1.16,1.16,0,0,1,.09.14l.29.4c.45.62.86,1.23,1.26,1.86.74,1.17,1.43,2.36,2.1,3.57a69.29,69.29,0,0,0,4.29,7.17c.95,1.34,1.95,2.55,3,3.77l1.34,1.6.65.8.33.42.08.1.06.08.75,1.05c.55.79,1.06,1.6,1.55,2.44a27.09,27.09,0,0,1,1.63,3.5,26.26,26.26,0,0,1,.81,2.75,14.79,14.79,0,0,0,1.7,4.44,6,6,0,0,0,3.38,2.6,2.69,2.69,0,0,0,3.06-1.5,2.31,2.31,0,0,0,.32-.74c.29-1.23.59-2.47.91-3.69s.75-2.81,1.19-4.21.85-2.55,1.34-3.78l.19-.44a.36.36,0,0,1,.11-.26l.08-.21.24-.52c.24-.53.5-1.05.76-1.56a.23.23,0,0,1,.11-.23,31.67,31.67,0,0,1,2.12-3.48c.17-.26.36-.51.55-.75h0l.29-.37c.39-.48.82-1,1.25-1.42.75-.78,1.54-1.51,2.36-2.22l1.06-.85.38-.29.79-.57c7.28-5.14,16.09-8.22,22.43-14.6a25.29,25.29,0,0,0,7.09-13.79A36.25,36.25,0,0,0,394.23,277.24Zm-40.68,48.85a47.72,47.72,0,0,0-5.49,13.17,31.77,31.77,0,0,0-3.23-7.45,52.05,52.05,0,0,0-5.16-6.92,44.77,44.77,0,0,1-4.49-6.3c-1.34-2.27-2.55-4.62-3.93-6.86a37.43,37.43,0,0,0-4.77-6.16c-3.19-3.34-6.89-6.12-10.23-9.3-.79-.76-1.57-1.54-2.31-2.35-.37-.43-.74-.86-1.09-1.35a2.13,2.13,0,0,1-.18-.22v-.08l-.58-.69a22.88,22.88,0,0,1-1.78-3s-.27-.61-.3-.65c-.12-.29-.23-.59-.33-.87-.24-.64-.47-1.34-.67-2a79.66,79.66,0,0,1-2.07-8l-.2-1-.08-.53v-.19c-.08-.64-.13-1.34-.16-1.94s0-1.27,0-1.9V271h0c.09-.36.15-.74.24-1.1a8.66,8.66,0,0,1,.31-1l.12-.32h0c.29-.55.56-1.1.91-1.64l.35-.48a5.71,5.71,0,0,1,.39-.47,14.12,14.12,0,0,1,1.34-1.34,7.59,7.59,0,0,1,.68-.57h0l.2-.17c.51-.36,1-.71,1.59-1s.88-.49,1.34-.72l.61-.3.35-.16c-.59.28,0,0,.11,0a23.25,23.25,0,0,1,3.18-1.06c.47-.1.94-.2,1.42-.28.22,0,.44-.08.67-.11h.39a24.8,24.8,0,0,1,3.11-.09,8.94,8.94,0,0,1,1.46.08l.78.08h.37a24.24,24.24,0,0,1,3.06.7,14,14,0,0,1,1.34.44l.73.28.21.08h.11a24.11,24.11,0,0,1,2.76,1.44c.42.25.83.52,1.22.8l.6.43h0a.44.44,0,0,1,.15.12l.17.14a19.87,19.87,0,0,1,2.26,2.14c.31.35.61.71.91,1.09h0l.29.4c.19.28.38.55.55.83a33.25,33.25,0,0,1,2.08,3.62c.3.59.57,1.21.83,1.81,0,.15.12.28.19.42v.12c.14.32.26.63.39.94.48,1.24,1,2.49,1.34,3.75a2.69,2.69,0,0,0,3.16,1.8,3,3,0,0,0,1.06-.63,2.45,2.45,0,0,0,1.45-1.64c.16-.6.35-1.19.57-1.78v-.11c0-.12.1-.23.14-.34l.53-1c.28-.51.59-1,.89-1.49.18-.25.35-.52.54-.78l.27-.37.16-.22a63.44,63.44,0,0,1,5.4-5.6c.93-.94,1.88-1.85,2.86-2.68l1.34-1.12.23-.17.17-.13a9.91,9.91,0,0,1,.85-.59c.29-.19,1-.65,1.54-.94.26-.15.52-.28.79-.41l.4-.18c-.51.24.12,0,.2-.08a11.15,11.15,0,0,1,1.68-.5l.67-.11H372a4.21,4.21,0,0,0,.71,0,14.91,14.91,0,0,1,2.09.54,9.07,9.07,0,0,1,.87.32l.65.31c.53.25,1.06.54,1.56.84a11.93,11.93,0,0,1,1.34.88,6.08,6.08,0,0,1,.66.47l.32.24.12.09a25.94,25.94,0,0,1,2.38,2.19q.55.57,1.08,1.2l.51.62v.07l.28.39a25.89,25.89,0,0,1,1.83,2.8,29.82,29.82,0,0,1,1.58,2.95h0V275c.11.25.2.52.3.78.2.54.39,1.09.56,1.65a31,31,0,0,1,.83,3.29c.11.55.2,1.09.29,1.64v.34a2.92,2.92,0,0,0,.1.92,33.23,33.23,0,0,1-.12,7.05h0l-.08.51a4.49,4.49,0,0,1-.19,1,21.41,21.41,0,0,1-.51,2.1c-.2.7-.4,1.34-.64,1.95a1.28,1.28,0,0,1-.18.43v.12c-.16.35-.32.69-.49,1a20.27,20.27,0,0,1-1.71,2.68l-.16.23h0l-.47.56c-.35.4-.69.79-1.06,1.17a24.63,24.63,0,0,1-2.25,2.08l-.58.48-.21.17h0l-1.34.94c-1.73,1.21-3.54,2.31-5.36,3.36-3.73,2.13-7.57,4.1-11.13,6.5A34.57,34.57,0,0,0,353.55,326.09Z"/><path d="M336.67,264.77l-.16-.14h0Z"/></g></svg>